<?xml version="1.0" encoding="UTF-8"?>
<svg width="451px" height="112px" viewBox="0 0 451 112" version="1.1" xmlns="http://www.w3.org/2000/svg" xmlns:xlink="http://www.w3.org/1999/xlink">
    <title>CWRA Logo Acronym</title>
    <g id="Profile-Pictures" stroke="none" stroke-width="1" fill="none" fill-rule="evenodd">
        <g id="Profile-Picture---CWRA-Logo-(Round)" transform="translate(-135.000000, -426.000000)" fill="#FFFFFF" fill-rule="nonzero">
            <g id="CWRA-Logo" transform="translate(104.000000, 94.000000)">
                <g id="CWRA-Logo-Acronym" transform="translate(31.000000, 332.166667)">
                    <path d="M451,109.355556 L451,106.344601 C449.600406,106.244236 448.025864,105.516588 446.276372,104.161659 C444.52688,102.806729 442.952337,100.322692 441.552743,96.7095462 L441.552743,96.7095462 L405.113324,2.46666667 C403.513788,2.56703182 401.789289,2.6172144 399.939826,2.6172144 C398.090363,2.6172144 396.365864,2.56703182 394.766328,2.46666667 L394.766328,2.46666667 L360.576255,90.5370892 C358.476865,96.0571727 356.327489,99.9714137 354.128128,102.279812 C351.928766,104.588211 349.77939,105.94314 347.68,106.344601 L347.68,106.344601 L347.68,109.355556 C349.179565,109.154825 350.904064,109.029369 352.853498,108.979186 C354.802932,108.929004 356.877329,108.903912 359.076691,108.903912 C362.175791,108.903912 365.224906,108.929004 368.224035,108.979186 C371.223164,109.029369 374.37225,109.154825 377.671292,109.355556 L377.671292,109.355556 L377.671292,106.344601 C373.672453,106.143871 370.473382,105.366041 368.074078,104.011111 C365.674775,102.656182 364.450131,100.071779 364.400145,96.257903 C364.35016,92.4440271 365.724761,86.8235785 368.523948,79.3965571 L368.523948,79.3965571 L372.494113,69.0087637 L405.118325,69.0087637 L414.110711,93.6985915 C416.041185,98.6407102 416.410638,101.92209 415.219069,103.54273 L415.085428,103.710016 C413.73582,105.265676 410.511756,106.143871 405.413237,106.344601 L405.413237,106.344601 L405.413237,109.355556 C407.81254,109.154825 411.061597,109.029369 415.160406,108.979186 C419.259216,108.929004 423.607954,108.903912 428.206618,108.903912 C432.305428,108.903912 436.379245,108.929004 440.42807,108.979186 C444.476894,109.029369 448.000871,109.154825 451,109.355556 L451,109.355556 Z M403.44,65.7777778 L373.1,65.7777778 L388.6405,24.6666667 L403.44,65.7777778 Z" id="A"></path>
                    <path d="M243.813333,1.64444444 L244.176357,1.65876094 C246.636191,1.75420422 249.889519,1.84964751 253.936342,1.9450908 C258.185506,2.04530625 262.409676,2.09541397 266.60885,2.09541397 C271.407906,2.09541397 276.056991,2.04530625 280.556106,1.9450908 C285.055221,1.84487535 288.254592,1.79476762 290.154218,1.79476762 C304.051485,1.79476762 314.44944,4.07466913 321.348083,8.63447215 C328.246726,13.1942752 331.696047,19.6331179 331.696047,27.9510003 C331.696047,31.3583256 330.996185,34.7907048 329.59646,38.2481379 C328.196735,41.7055709 325.822203,44.9124654 322.472861,47.8688212 C319.12352,50.825177 314.54942,53.1802401 308.75056,54.9340105 L308.75056,54.9340105 L308.017892,55.1486647 C305.302801,55.9189839 302.272668,56.5050964 298.927493,56.9070022 L298.927493,56.9070022 L298.290333,56.9794444 L298.748489,57.0225993 C307.305762,57.8384122 313.709265,59.6995563 317.958996,62.6060316 L318.273687,62.8259772 C322.622832,65.9326562 325.447276,70.5926747 326.747021,76.8060326 L326.747021,76.8060326 L330.196342,92.2893198 L330.304561,92.7645815 C331.17223,96.5204963 332.085971,99.1681083 333.045782,100.707418 C334.045585,102.310865 335.4953,103.112588 337.394926,103.112588 C338.694671,103.012373 339.769459,102.686673 340.619292,102.135488 C341.469125,101.584303 342.393943,100.757525 343.393746,99.6551554 L343.393746,99.6551554 L345.493333,101.459034 L345.106335,101.89688 C342.517275,104.776085 339.746845,106.859931 336.795044,108.148415 C333.695654,109.501323 329.946391,110.177778 325.547257,110.177778 C320.148319,110.177778 315.699194,109.0253 312.199882,106.720345 C308.70057,104.415389 306.401023,100.156233 305.301239,93.9428747 L305.301239,93.9428747 L302.60177,78.9105571 L302.459798,78.0757624 C301.78793,74.2127908 300.985421,70.8081379 300.052271,67.8618036 C299.052468,64.7050169 297.677738,62.1996307 295.928083,60.3456448 L295.928083,60.3456448 L295.630225,60.0452304 C293.906952,58.3915208 291.581715,57.5646661 288.654513,57.5646661 L288.654513,57.5646661 L278.906429,57.5646661 L278.906431,92.1389966 L278.908135,92.6253728 C278.931994,95.9908727 279.206372,98.5345645 279.731268,100.256448 C280.28116,102.060326 281.355949,103.262912 282.955634,103.864204 C284.55532,104.465497 286.954848,104.866359 290.154218,105.06679 L290.154218,105.06679 L290.154218,108.073253 L289.670576,108.038663 C287.052406,107.858345 283.814289,107.744606 279.956224,107.697445 C275.85703,107.647338 271.707847,107.622284 267.508673,107.622284 C262.709617,107.622284 258.185506,107.647338 253.936342,107.697445 C249.687178,107.747553 246.312842,107.872822 243.813333,108.073253 L243.813333,108.073253 L243.813333,105.06679 L244.28724,105.035222 C247.250657,104.825772 249.492216,104.435432 251.011917,103.864204 C252.611603,103.262912 253.686391,102.060326 254.236283,100.256448 C254.786175,98.45257 255.061121,95.7467528 255.061121,92.1389966 L255.061121,92.1389966 L255.061121,17.5787011 L255.059562,17.1005939 C255.036693,13.6351095 254.762267,11.0636075 254.236283,9.38608803 C253.686391,7.63231764 252.586608,6.42973223 250.936932,5.77833179 C249.287257,5.12693136 246.912724,4.75112342 243.813333,4.65090797 L243.813333,4.65090797 L243.813333,1.64444444 Z M288.366668,4.93333333 C284.469464,4.93333333 281.946274,5.78940205 280.797098,7.50153949 C279.647923,9.21367693 279.073333,12.6883088 279.073333,17.9254351 L279.073333,17.9254351 L279.073333,55.0888889 L285.518711,55.0888889 L286.067268,55.0855695 C291.692578,55.0169679 295.981517,53.8850423 298.934087,51.6897925 C301.9819,49.4237282 304.080394,46.4023092 305.22957,42.6255355 C306.378746,38.8487617 306.953333,34.6439536 306.953333,30.0111111 C306.953333,22.0547077 305.554337,15.8859772 302.756344,11.5049197 C299.958352,7.12386212 295.161793,4.93333333 288.366668,4.93333333 Z" id="R"></path>
                    <path d="M201.887437,109.355556 L228.380257,23.3928013 C230.186586,17.5716223 232.293969,13.3311946 234.702407,10.671518 C237.110845,8.01184142 239.418932,6.28054251 241.626667,5.47762128 L241.626667,5.47762128 L241.626667,2.46666667 C240.121393,2.56703182 238.390328,2.66739697 236.433472,2.76776213 C234.476616,2.86812728 232.344145,2.91830986 230.036058,2.91830986 C227.02551,2.91830986 224.014963,2.86812728 221.004415,2.76776213 C217.993867,2.66739697 214.782617,2.56703182 211.370663,2.46666667 L211.370663,2.46666667 L211.370663,5.47762128 C215.485078,5.57798644 218.646153,6.55654669 220.853888,8.41330203 C223.061623,10.2700574 224.215666,13.3562859 224.316018,17.6719875 C224.416369,21.9876891 223.262326,27.9594158 220.853888,35.5871674 L220.853888,35.5871674 L206.531216,81.0937847 L185.931535,18.1236307 C184.790696,14.6055679 184.302837,11.9882894 184.467958,10.271795 L184.501525,9.99405321 C184.752404,8.28784559 185.75592,7.13364632 187.512072,6.5314554 C189.268225,5.92926448 191.651575,5.57798644 194.662123,5.47762128 L194.662123,5.47762128 L194.662123,2.46666667 C192.354037,2.56703182 189.268225,2.66739697 185.404689,2.76776213 C181.541153,2.86812728 177.40165,2.91830986 172.98618,2.91830986 C169.172819,2.91830986 165.334371,2.86812728 161.470835,2.76776213 C157.607299,2.66739697 154.270609,2.56703182 151.460764,2.46666667 L151.460764,2.46666667 L151.460764,5.47762128 C153.066389,5.57798644 154.596751,6.18017736 156.051849,7.28419405 C157.506947,8.38821075 158.736254,10.495879 159.73977,13.6071987 L159.73977,13.6071987 L167.466983,37.0134091 L152.157556,81.7498559 L130.236403,18.1236307 C129.621749,16.279421 129.218383,14.5312639 129.026304,12.8791593 L128.95692,12.1769953 C128.806393,10.32024 129.132535,8.81476265 129.935348,7.66056338 C130.738161,6.50636411 132.143083,5.77871674 134.150115,5.47762128 L134.150115,5.47762128 L134.150115,2.46666667 C132.143083,2.56703182 129.55903,2.66739697 126.397955,2.76776213 C123.23688,2.86812728 119.64931,2.91830986 115.635247,2.91830986 C111.922238,2.91830986 108.008526,2.86812728 103.894111,2.76776213 C99.7796957,2.66739697 96.2172143,2.56703182 93.2066667,2.46666667 L93.2066667,2.46666667 L93.2066667,5.47762128 C94.7119405,5.57798644 96.3426538,6.28054251 98.0988066,7.58528951 C99.8549594,8.89003652 101.385321,11.3991654 102.689892,15.1126761 L102.689892,15.1126761 L136.408026,109.355556 C137.210838,109.25519 138.063827,109.205008 138.966991,109.205008 L138.966991,109.205008 L144.385977,109.205008 C145.289141,109.205008 146.14213,109.25519 146.944943,109.355556 L146.944943,109.355556 L169.205178,42.2794103 L191.350521,109.355556 C191.95263,109.280282 192.582964,109.233236 193.241521,109.214417 L193.909486,109.205008 L193.909486,109.205008 L199.328472,109.205008 C200.231636,109.205008 201.084625,109.25519 201.887437,109.355556 L201.887437,109.355556 Z" id="W"></path>
                    <path d="M53.019901,111 C59.5284818,111 64.8605116,110.019701 69.0159901,108.059103 C73.1714686,106.098505 77.1016502,103.811141 80.8065347,101.197011 C83.0094389,99.7894022 84.5865182,99.638587 85.5377723,100.744565 C86.4890264,101.850543 87.1649175,104.565217 87.5654455,108.888587 L87.5654455,108.888587 L91.02,108.888587 C90.819736,104.866848 90.669538,99.9150815 90.5694059,94.033288 C90.4772845,88.622038 90.4275389,81.657713 90.4201692,73.140313 L90.4192079,70.8831522 L86.9646535,70.8831522 C86.2637294,78.3233696 85.2123432,84.2805707 83.810495,88.7547554 C82.4086469,93.2289402 79.7551485,96.9741848 75.85,99.9904891 C73.4468317,102.403533 70.5680363,104.238451 67.2136139,105.495245 C63.8591914,106.752038 60.529802,107.380435 57.2254455,107.380435 C51.9184488,107.380435 47.3123762,105.972826 43.4072277,103.157609 C39.5020792,100.342391 36.3228878,96.5217391 33.8696535,91.6956522 C31.4164191,86.8695652 29.6140429,81.3648098 28.4625248,75.1813859 C27.3110066,68.997962 26.7352475,62.5380435 26.7352475,55.8016304 C26.7352475,49.1657609 27.2859736,42.7561141 28.3874257,36.5726902 C29.4888779,30.3892663 31.2161551,24.8342391 33.5692574,19.9076087 C35.9223597,14.9809783 39.0014191,11.0849185 42.8064356,8.21942935 C46.6114521,5.35394022 51.2175248,3.92119565 56.6246535,3.92119565 C60.2294059,3.92119565 63.6839604,4.52445652 66.9883168,5.73097826 C70.2926733,6.9375 73.1965017,8.79755435 75.699802,11.3111413 C78.3032343,13.3220109 80.3058746,15.5842391 81.7077228,18.0978261 C83.109571,20.611413 84.2110231,23.502038 85.0120792,26.7697011 C85.8131353,30.0373641 86.4639934,33.9836957 86.9646535,38.6086957 L86.9646535,38.6086957 L90.4192079,38.6086957 C90.4192079,29.3586957 90.4692739,21.9436141 90.5694059,16.3634511 C90.669538,10.783288 90.819736,6.0326087 91.02,2.11141304 L91.02,2.11141304 L87.5654455,2.11141304 C87.1649175,6.43478261 86.4389604,9.17459239 85.3875743,10.3308424 C84.3361881,11.4870924 82.8091749,11.3111413 80.8065347,9.80298913 C77.5021782,7.1888587 73.7221947,4.90149457 69.4665842,2.94089674 C65.2109736,0.980298913 59.7788119,0 53.170099,0 C42.7563696,0 33.5692574,2.36277174 25.6087624,7.08831522 C17.6482673,11.8138587 11.3900165,18.3994565 6.8340099,26.8451087 C2.2780033,35.2907609 0,45.1440217 0,56.4048913 C0,67.8668478 2.20290429,77.669837 6.60871287,85.8138587 C11.0145215,93.9578804 17.1976733,100.191576 25.1581683,104.514946 C33.1186634,108.838315 42.4059076,111 53.019901,111 Z" id="C"></path>
                </g>
            </g>
        </g>
    </g>
</svg>