<?xml version="1.0" encoding="UTF-8"?>
<svg width="624px" height="40px" viewBox="0 0 624 40" version="1.1" xmlns="http://www.w3.org/2000/svg" xmlns:xlink="http://www.w3.org/1999/xlink">
    <title>CenterforWomen’sRightsAdvocacy</title>
    <g id="Profile-Pictures" stroke="none" stroke-width="1" fill="none" fill-rule="evenodd">
        <g id="Profile-Picture---CWRA-Logo" transform="translate(-48.000000, -607.000000)" fill="#FFFFFF" fill-rule="nonzero">
            <g id="Group" transform="translate(48.000000, 52.000000)">
                <path d="M9.32,587.36 C11.08,587.36 12.5066667,587.106667 13.6,586.6 C14.6933333,586.093333 15.7866667,585.48 16.88,584.76 C17.3333333,584.466667 17.6666667,584.353333 17.88,584.42 C18.0933333,584.486667 18.2,584.826667 18.2,585.44 C18.2,585.786667 18.16,586.24 18.08,586.8 L18.08,586.8 L18.96,586.8 C19.1466667,585.786667 19.42,584.54 19.78,583.06 C20.14,581.58 20.6533333,579.626667 21.32,577.2 L21.32,577.2 L20.44,577.2 C19.8,578.746667 19.22,580.006667 18.7,580.98 C18.18,581.953333 17.56,582.8 16.84,583.52 C15.8533333,584.533333 14.7,585.306667 13.38,585.84 C12.06,586.373333 10.84,586.64 9.72,586.64 C7.96,586.64 6.56666667,585.986667 5.54,584.68 C4.51333333,583.373333 4,581.413333 4,578.8 C4,577.013333 4.24,575.18 4.72,573.3 C5.2,571.42 5.86666667,569.606667 6.72,567.86 C7.57333333,566.113333 8.56,564.546667 9.68,563.16 C10.8,561.773333 12.0133333,560.673333 13.32,559.86 C14.6266667,559.046667 15.9733333,558.64 17.36,558.64 C18.4533333,558.64 19.4733333,558.906667 20.42,559.44 C21.3666667,559.973333 22.0933333,560.746667 22.6,561.76 C22.9466667,562.426667 23.1533333,563.233333 23.22,564.18 C23.2866667,565.126667 23.2133333,566.293333 23,567.68 L23,567.68 L23.88,567.68 C24.3333333,565.546667 24.7733333,563.74 25.2,562.26 C25.6266667,560.78 26.04,559.52 26.44,558.48 L26.44,558.48 L25.6,558.48 C25.1733333,559.653333 24.7933333,560.38 24.46,560.66 C24.1266667,560.94 23.7733333,560.893333 23.4,560.52 C22.7866667,559.853333 22.0733333,559.253333 21.26,558.72 C20.4466667,558.186667 19.1733333,557.92 17.44,557.92 C15.4133333,557.92 13.52,558.32 11.76,559.12 C10,559.92 8.4,561 6.96,562.36 C5.52,563.72 4.28,565.266667 3.24,567 C2.2,568.733333 1.4,570.54 0.84,572.42 C0.28,574.3 0,576.146667 0,577.96 C0,581.053333 0.82,583.393333 2.46,584.98 C4.1,586.566667 6.38666667,587.36 9.32,587.36 Z M30.52,587.36 C31.6666667,587.36 32.7533333,587.1 33.78,586.58 C34.8066667,586.06 35.7333333,585.386667 36.56,584.56 C37.3866667,583.733333 38.0533333,582.88 38.56,582 L38.56,582 L37.92,581.68 C36.9066667,583.173333 35.8666667,584.213333 34.8,584.8 C33.7333333,585.386667 32.72,585.68 31.76,585.68 C30.9333333,585.68 30.2666667,585.38 29.76,584.78 C29.2533333,584.18 29,583.2 29,581.84 C29,580.552 29.1404667,579.270533 29.4214,577.9956 L29.428,577.964 L29.5,577.94 C29.88,577.81 30.27875,577.66875 30.69625,577.51625 L31.12,577.36 C32.2666667,576.933333 33.44,576.426667 34.64,575.84 C35.84,575.253333 36.9533333,574.58 37.98,573.82 C39.0066667,573.06 39.8333333,572.22 40.46,571.3 C41.0866667,570.38 41.4,569.386667 41.4,568.32 C41.4,567.44 41.1133333,566.78 40.54,566.34 C39.9666667,565.9 39.2666667,565.68 38.44,565.68 C36.92,565.68 35.4933333,566.04 34.16,566.76 C32.8266667,567.48 31.6133333,568.44 30.52,569.64 C29.4266667,570.84 28.4866667,572.153333 27.7,573.58 C26.9133333,575.006667 26.3066667,576.433333 25.88,577.86 C25.4533333,579.286667 25.24,580.573333 25.24,581.72 C25.24,583.586667 25.7133333,584.993333 26.66,585.94 C27.6066667,586.886667 28.8933333,587.36 30.52,587.36 Z M29.618,577.197 L29.6966,576.9044 L29.6966,576.9044 L29.86,576.36 C30.4333333,574.546667 31.16,572.886667 32.04,571.38 C32.92,569.873333 33.8533333,568.673333 34.84,567.78 C35.8266667,566.886667 36.7333333,566.44 37.56,566.44 C37.7733333,566.44 37.9333333,566.546667 38.04,566.76 C38.1466667,566.973333 38.2,567.466667 38.2,568.24 C38.2,569.546667 37.92,570.746667 37.36,571.84 C36.8,572.933333 36.04,573.866667 35.08,574.64 C34.36,575.2 33.3933333,575.726667 32.18,576.22 C31.4866667,576.501905 30.747619,576.785986 29.9628571,577.072245 L29.618,577.197 Z M57.28,587.36 C58.1066667,587.36 58.9733333,587.093333 59.88,586.56 C60.7866667,586.026667 61.5333333,584.92 62.12,583.24 L62.12,583.24 L63.12,580.32 L62.36,580.32 L61.84,581.8 C61.28,583.4 60.7533333,584.48 60.26,585.04 C59.7666667,585.6 59.2666667,585.88 58.76,585.88 C58.1733333,585.88 57.86,585.646667 57.82,585.18 C57.78,584.713333 57.88,584.12 58.12,583.4 L58.12,583.4 L62,571.72 C62.32,570.733333 62.5066667,569.78 62.56,568.86 C62.6133333,567.94 62.4066667,567.18 61.94,566.58 C61.4733333,565.98 60.6133333,565.68 59.36,565.68 C58.4,565.68 57.4733333,565.9 56.58,566.34 C55.6866667,566.78 54.8133333,567.5 53.96,568.5 C53.1066667,569.5 52.24,570.813333 51.36,572.44 C50.7507692,573.566154 50.1287574,574.877633 49.4939645,576.374438 L49.342,576.735 L50.72,571.28 C50.88,570.64 51.0175,570 51.1325,569.36 L51.24,568.72 C51.3733333,567.866667 51.2866667,567.146667 50.98,566.56 C50.6733333,565.973333 49.9866667,565.68 48.92,565.68 C48.0666667,565.68 47.2066667,565.946667 46.34,566.48 C45.4733333,567.013333 44.7466667,568.12 44.16,569.8 L44.16,569.8 L43.16,572.72 L43.92,572.72 L44.44,571.24 C45,569.666667 45.5066667,568.593333 45.96,568.02 C46.4133333,567.446667 46.9333333,567.16 47.52,567.16 C47.9466667,567.16 48.2133333,567.3 48.32,567.58 C48.4266667,567.86 48.4466667,568.193333 48.38,568.58 C48.3133333,568.966667 48.2266667,569.32 48.12,569.64 L48.12,569.64 L43.32,586.8 L46.8,586.8 L47.528,583.917 L47.7148148,583.277531 C48.271358,581.420082 48.8883951,579.66749 49.5659259,578.019753 L49.86,577.32 C50.7533333,575.24 51.68,573.426667 52.64,571.88 C53.6,570.333333 54.54,569.126667 55.46,568.26 C56.38,567.393333 57.24,566.96 58.04,566.96 C58.68,566.96 59.0666667,567.166667 59.2,567.58 C59.3333333,567.993333 59.3533333,568.46 59.26,568.98 C59.1666667,569.5 59.0533333,569.946667 58.92,570.32 L58.92,570.32 L55.12,581.76 C54.8,582.693333 54.5866667,583.546667 54.48,584.32 C54.3733333,585.093333 54.4666667,585.72 54.76,586.2 C55.24,586.973333 56.08,587.36 57.28,587.36 Z M70.12,587.36 C71.3466667,587.36 72.42,587.04 73.34,586.4 C74.26,585.76 75.0133333,584.573333 75.6,582.84 L75.6,582.84 L76.44,580.32 L75.68,580.32 L75.12,581.88 C74.5333333,583.533333 73.94,584.613333 73.34,585.12 C72.74,585.626667 72.1466667,585.88 71.56,585.88 C70.9733333,585.88 70.5,585.686667 70.14,585.3 C69.78,584.913333 69.72,584.28 69.96,583.4 L69.96,583.4 L74.607,567.04 L80,567.04 L80.12,566.24 L74.834,566.24 L76.72,559.6 C76.3146667,559.749333 75.8709333,559.864533 75.3888,559.9456 L75.02,560 C74.3933333,560.08 73.76,560.133333 73.12,560.16 L73.12,560.16 L71.375,566.24 L67.76,566.24 L67.56,567.04 L71.145,567.04 L66.92,581.76 C66.47,583.31 66.4477344,584.590469 66.8532031,585.601406 L66.94,585.8 C67.4333333,586.84 68.4933333,587.36 70.12,587.36 Z M84.32,587.36 C85.4666667,587.36 86.5533333,587.1 87.58,586.58 C88.6066667,586.06 89.5333333,585.386667 90.36,584.56 C91.1866667,583.733333 91.8533333,582.88 92.36,582 L92.36,582 L91.72,581.68 C90.7066667,583.173333 89.6666667,584.213333 88.6,584.8 C87.5333333,585.386667 86.52,585.68 85.56,585.68 C84.7333333,585.68 84.0666667,585.38 83.56,584.78 C83.0533333,584.18 82.8,583.2 82.8,581.84 C82.8,580.552 82.9404667,579.270533 83.2214,577.9956 L83.228,577.964 L83.3,577.94 C83.68,577.81 84.07875,577.66875 84.49625,577.51625 L84.92,577.36 C86.0666667,576.933333 87.24,576.426667 88.44,575.84 C89.64,575.253333 90.7533333,574.58 91.78,573.82 C92.8066667,573.06 93.6333333,572.22 94.26,571.3 C94.8866667,570.38 95.2,569.386667 95.2,568.32 C95.2,567.44 94.9133333,566.78 94.34,566.34 C93.7666667,565.9 93.0666667,565.68 92.24,565.68 C90.72,565.68 89.2933333,566.04 87.96,566.76 C86.6266667,567.48 85.4133333,568.44 84.32,569.64 C83.2266667,570.84 82.2866667,572.153333 81.5,573.58 C80.7133333,575.006667 80.1066667,576.433333 79.68,577.86 C79.2533333,579.286667 79.04,580.573333 79.04,581.72 C79.04,583.586667 79.5133333,584.993333 80.46,585.94 C81.4066667,586.886667 82.6933333,587.36 84.32,587.36 Z M83.418,577.197 L83.4966,576.9044 L83.4966,576.9044 L83.66,576.36 C84.2333333,574.546667 84.96,572.886667 85.84,571.38 C86.72,569.873333 87.6533333,568.673333 88.64,567.78 C89.6266667,566.886667 90.5333333,566.44 91.36,566.44 C91.5733333,566.44 91.7333333,566.546667 91.84,566.76 C91.9466667,566.973333 92,567.466667 92,568.24 C92,569.546667 91.72,570.746667 91.16,571.84 C90.6,572.933333 89.84,573.866667 88.88,574.64 C88.16,575.2 87.1933333,575.726667 85.98,576.22 C85.2866667,576.501905 84.547619,576.785986 83.7628571,577.072245 L83.418,577.197 Z M100.56,586.8 L101.324,583.774 L101.530612,583.087347 C101.887619,581.91619 102.251156,580.792925 102.621224,579.717551 L102.9,578.92 C103.553333,577.08 104.22,575.406667 104.9,573.9 C105.58,572.393333 106.26,571.1 106.94,570.02 C107.62,568.94 108.286667,568.113333 108.94,567.54 C109.593333,566.966667 110.226667,566.68 110.84,566.68 C110.946667,566.68 111.033333,566.693333 111.1,566.72 C111.166667,566.746667 111.226667,566.786667 111.28,566.84 C110.773333,567.053333 110.346667,567.373333 110,567.8 C109.653333,568.226667 109.48,568.76 109.48,569.4 C109.48,569.853333 109.633333,570.206667 109.94,570.46 C110.246667,570.713333 110.626667,570.84 111.08,570.84 C111.826667,570.84 112.48,570.56 113.04,570 C113.6,569.44 113.88,568.76 113.88,567.96 C113.88,567.293333 113.673333,566.746667 113.26,566.32 C112.846667,565.893333 112.266667,565.68 111.52,565.68 C110.64,565.68 109.806667,565.926667 109.02,566.42 C108.233333,566.913333 107.466667,567.713333 106.72,568.82 C105.973333,569.926667 105.22,571.373333 104.46,573.16 C104.109231,573.984615 103.74568,574.897278 103.369349,575.897988 L103.196,576.362 L104.48,571.28 C104.64,570.66 104.7775,570.0325 104.8925,569.3975 L105,568.76 C105.133333,567.906667 105.06,567.18 104.78,566.58 C104.5,565.98 103.826667,565.68 102.76,565.68 C101.933333,565.68 101.066667,565.946667 100.16,566.48 C99.2533333,567.013333 98.5066667,568.12 97.92,569.8 L97.92,569.8 L96.92,572.72 L97.68,572.72 L98.2,571.24 C98.7333333,569.746667 99.24,568.693333 99.72,568.08 C100.2,567.466667 100.733333,567.16 101.32,567.16 C101.773333,567.16 102.046667,567.346667 102.14,567.72 C102.233333,568.093333 102.146667,568.733333 101.88,569.64 L101.88,569.64 L97.08,586.8 L100.56,586.8 Z M121.88,594.32 C122.413333,594.133333 122.986667,594 123.6,593.92 C124.213333,593.84 124.84,593.786667 125.48,593.76 L125.48,593.76 L132.654,567.04 L137.36,567.04 L137.6,566.24 L132.869,566.24 L132.88,566.2 C133.337143,564.508571 133.764898,562.92 134.163265,561.434286 L134.36,560.7 C134.813333,559.006667 135.4,557.826667 136.12,557.16 C136.413333,556.893333 136.746667,556.653333 137.12,556.44 C137.493333,556.226667 137.933333,556.12 138.44,556.12 C138.973333,556.12 139.413333,556.22 139.76,556.42 C140.106667,556.62 140.28,556.84 140.28,557.08 C139.613333,557.266667 139.066667,557.593333 138.64,558.06 C138.213333,558.526667 138,559.093333 138,559.76 C137.973333,560.186667 138.106667,560.52 138.4,560.76 C138.693333,561 139.093333,561.12 139.6,561.12 C140.373333,561.12 141.013333,560.826667 141.52,560.24 C142.026667,559.653333 142.28,559.026667 142.28,558.36 C142.28,557.56 141.953333,556.886667 141.3,556.34 C140.646667,555.793333 139.706667,555.52 138.48,555.52 C137.546667,555.52 136.633333,555.7 135.74,556.06 C134.846667,556.42 134.093333,556.906667 133.48,557.52 C132.573333,558.4 131.806667,559.533333 131.18,560.92 C130.553333,562.306667 129.96,564.066667 129.4,566.2 L129.4,566.2 L129.389,566.24 L125.8,566.24 L125.56,567.04 L129.175,567.04 L121.88,594.32 Z M142.04,587.36 C143.906667,587.36 145.56,586.846667 147,585.82 C148.44,584.793333 149.646667,583.48 150.62,581.88 C151.593333,580.28 152.333333,578.593333 152.84,576.82 C153.346667,575.046667 153.6,573.426667 153.6,571.96 C153.6,569.826667 153.1,568.246667 152.1,567.22 C151.1,566.193333 149.773333,565.68 148.12,565.68 C146.253333,565.68 144.6,566.193333 143.16,567.22 C141.72,568.246667 140.513333,569.56 139.54,571.16 C138.566667,572.76 137.826667,574.446667 137.32,576.22 C136.813333,577.993333 136.56,579.613333 136.56,581.08 C136.56,583.186667 137.06,584.76 138.06,585.8 C139.06,586.84 140.386667,587.36 142.04,587.36 Z M142.28,586.56 C141.533333,586.56 140.966667,586.28 140.58,585.72 C140.193333,585.16 140,584.28 140,583.08 C140,581.666667 140.133333,580.186667 140.4,578.64 C140.666667,577.093333 141.046667,575.6 141.54,574.16 C142.033333,572.72 142.606667,571.42 143.26,570.26 C143.913333,569.1 144.633333,568.18 145.42,567.5 C146.206667,566.82 147.026667,566.48 147.88,566.48 C148.653333,566.48 149.226667,566.753333 149.6,567.3 C149.973333,567.846667 150.16,568.733333 150.16,569.96 C150.16,571.4 150.026667,572.886667 149.76,574.42 C149.493333,575.953333 149.12,577.44 148.64,578.88 C148.16,580.32 147.586667,581.62 146.92,582.78 C146.253333,583.94 145.526667,584.86 144.74,585.54 C143.953333,586.22 143.133333,586.56 142.28,586.56 Z M160.08,586.8 L160.844,583.774 L161.050612,583.087347 C161.407619,581.91619 161.771156,580.792925 162.141224,579.717551 L162.42,578.92 C163.073333,577.08 163.74,575.406667 164.42,573.9 C165.1,572.393333 165.78,571.1 166.46,570.02 C167.14,568.94 167.806667,568.113333 168.46,567.54 C169.113333,566.966667 169.746667,566.68 170.36,566.68 C170.466667,566.68 170.553333,566.693333 170.62,566.72 C170.686667,566.746667 170.746667,566.786667 170.8,566.84 C170.293333,567.053333 169.866667,567.373333 169.52,567.8 C169.173333,568.226667 169,568.76 169,569.4 C169,569.853333 169.153333,570.206667 169.46,570.46 C169.766667,570.713333 170.146667,570.84 170.6,570.84 C171.346667,570.84 172,570.56 172.56,570 C173.12,569.44 173.4,568.76 173.4,567.96 C173.4,567.293333 173.193333,566.746667 172.78,566.32 C172.366667,565.893333 171.786667,565.68 171.04,565.68 C170.16,565.68 169.326667,565.926667 168.54,566.42 C167.753333,566.913333 166.986667,567.713333 166.24,568.82 C165.493333,569.926667 164.74,571.373333 163.98,573.16 C163.629231,573.984615 163.26568,574.897278 162.889349,575.897988 L162.716,576.362 L164,571.28 C164.16,570.66 164.2975,570.0325 164.4125,569.3975 L164.52,568.76 C164.653333,567.906667 164.58,567.18 164.3,566.58 C164.02,565.98 163.346667,565.68 162.28,565.68 C161.453333,565.68 160.586667,565.946667 159.68,566.48 C158.773333,567.013333 158.026667,568.12 157.44,569.8 L157.44,569.8 L156.44,572.72 L157.2,572.72 L157.72,571.24 C158.253333,569.746667 158.76,568.693333 159.24,568.08 C159.72,567.466667 160.253333,567.16 160.84,567.16 C161.293333,567.16 161.566667,567.346667 161.66,567.72 C161.753333,568.093333 161.666667,568.733333 161.4,569.64 L161.4,569.64 L156.6,586.8 L160.08,586.8 Z M191.84,587 L202.691,568.774 L205.56,587 L206.2,587 L218.16,562.76 C218.586667,561.906667 219.02,561.24 219.46,560.76 C219.9,560.28 220.333333,559.933333 220.76,559.72 C221.186667,559.506667 221.586667,559.36 221.96,559.28 L221.96,559.28 L222.16,558.48 C221.733333,558.506667 221.293333,558.533333 220.84,558.56 C220.386667,558.586667 219.813333,558.6 219.12,558.6 C218.666667,558.6 218.18,558.593333 217.66,558.58 L217.66,558.58 L216.1,558.54 C215.58,558.526667 215.066667,558.506667 214.56,558.48 L214.56,558.48 L214.36,559.28 C215.48,559.306667 216.293333,559.473333 216.8,559.78 C217.306667,560.086667 217.513333,560.64 217.42,561.44 C217.326667,562.24 216.893333,563.413333 216.12,564.96 L216.12,564.96 L208.302,580.83 L205.44,562.64 C205.24,561.34 205.32125,560.473594 205.68375,560.040781 L205.76,559.96 C206.186667,559.56 207.093333,559.333333 208.48,559.28 L208.48,559.28 L208.64,558.48 C208.08,558.506667 207.346667,558.533333 206.44,558.56 C205.533333,558.586667 204.56,558.6 203.52,558.6 C202.853333,558.6 202.213333,558.586667 201.6,558.56 C200.986667,558.533333 200.44,558.506667 199.96,558.48 L199.96,558.48 L199.8,559.28 C200.173333,559.306667 200.526667,559.486667 200.86,559.82 C201.193333,560.153333 201.44,560.826667 201.6,561.84 L201.6,561.84 L202.497,567.54 L194.116,581.706 L191.88,562.64 C191.730667,561.395556 191.81363,560.546015 192.128889,560.091378 L192.2,560 C192.573333,559.573333 193.213333,559.333333 194.12,559.28 L194.12,559.28 L194.28,558.48 C193.8,558.506667 193.18,558.533333 192.42,558.56 C191.66,558.586667 190.84,558.6 189.96,558.6 C189.213333,558.6 188.5,558.586667 187.82,558.56 C187.14,558.533333 186.533333,558.506667 186,558.48 L186,558.48 L185.84,559.28 C186.266667,559.306667 186.706667,559.48 187.16,559.8 C187.613333,560.12 187.906667,560.8 188.04,561.84 L188.04,561.84 L191.2,587 L191.84,587 Z M224.8,587.36 C226.666667,587.36 228.32,586.846667 229.76,585.82 C231.2,584.793333 232.406667,583.48 233.38,581.88 C234.353333,580.28 235.093333,578.593333 235.6,576.82 C236.106667,575.046667 236.36,573.426667 236.36,571.96 C236.36,569.826667 235.86,568.246667 234.86,567.22 C233.86,566.193333 232.533333,565.68 230.88,565.68 C229.013333,565.68 227.36,566.193333 225.92,567.22 C224.48,568.246667 223.273333,569.56 222.3,571.16 C221.326667,572.76 220.586667,574.446667 220.08,576.22 C219.573333,577.993333 219.32,579.613333 219.32,581.08 C219.32,583.186667 219.82,584.76 220.82,585.8 C221.82,586.84 223.146667,587.36 224.8,587.36 Z M225.04,586.56 C224.293333,586.56 223.726667,586.28 223.34,585.72 C222.953333,585.16 222.76,584.28 222.76,583.08 C222.76,581.666667 222.893333,580.186667 223.16,578.64 C223.426667,577.093333 223.806667,575.6 224.3,574.16 C224.793333,572.72 225.366667,571.42 226.02,570.26 C226.673333,569.1 227.393333,568.18 228.18,567.5 C228.966667,566.82 229.786667,566.48 230.64,566.48 C231.413333,566.48 231.986667,566.753333 232.36,567.3 C232.733333,567.846667 232.92,568.733333 232.92,569.96 C232.92,571.4 232.786667,572.886667 232.52,574.42 C232.253333,575.953333 231.88,577.44 231.4,578.88 C230.92,580.32 230.346667,581.62 229.68,582.78 C229.013333,583.94 228.286667,584.86 227.5,585.54 C226.713333,586.22 225.893333,586.56 225.04,586.56 Z M262.52,587.36 C263.346667,587.36 264.213333,587.093333 265.12,586.56 C266.026667,586.026667 266.773333,584.92 267.36,583.24 L267.36,583.24 L268.36,580.32 L267.6,580.32 L267.08,581.8 C266.52,583.4 265.993333,584.48 265.5,585.04 C265.006667,585.6 264.506667,585.88 264,585.88 C263.466667,585.88 263.16,585.673333 263.08,585.26 C263,584.846667 263.093333,584.226667 263.36,583.4 L263.36,583.4 L267.24,571.72 C267.533333,570.813333 267.713333,569.9 267.78,568.98 C267.846667,568.06 267.68,567.28 267.28,566.64 C266.88,566 266.12,565.68 265,565.68 C263.933333,565.68 262.946667,565.953333 262.04,566.5 C261.133333,567.046667 260.253333,567.92 259.4,569.12 C258.546667,570.32 257.68,571.886667 256.8,573.82 C256.36,574.786667 255.9,575.858333 255.42,577.035 L255.365,577.171 L256.84,571.72 C257.032,571.037333 257.181333,570.329067 257.288,569.5952 L257.36,569.04 C257.466667,568.106667 257.346667,567.313333 257,566.66 C256.653333,566.006667 255.906667,565.68 254.76,565.68 C253.533333,565.68 252.38,566.08 251.3,566.88 C250.22,567.68 249.146667,569.013333 248.08,570.88 C247.264314,572.307451 246.401845,574.124752 245.492595,576.331903 L245.471,576.384 L246.76,571.28 C246.952,570.661333 247.109867,570.0128 247.2336,569.3344 L247.32,568.82 C247.453333,567.953333 247.373333,567.213333 247.08,566.6 C246.786667,565.986667 246.106667,565.68 245.04,565.68 C244.213333,565.68 243.346667,565.946667 242.44,566.48 C241.533333,567.013333 240.786667,568.12 240.2,569.8 L240.2,569.8 L239.2,572.72 L239.96,572.72 L240.48,571.24 C241.013333,569.746667 241.52,568.693333 242,568.08 C242.48,567.466667 243.013333,567.16 243.6,567.16 C244.026667,567.16 244.28,567.32 244.36,567.64 C244.44,567.96 244.446667,568.313333 244.38,568.7 C244.313333,569.086667 244.24,569.4 244.16,569.64 L244.16,569.64 L239.36,586.8 L242.84,586.8 L243.379,584.665 L243.574375,583.957187 C244.091875,582.125937 244.661875,580.380937 245.284375,578.722187 L245.6,577.9 C246.453333,575.726667 247.34,573.82 248.26,572.18 C249.18,570.54 250.086667,569.26 250.98,568.34 C251.873333,567.42 252.693333,566.96 253.44,566.96 C254.186667,566.96 254.56,567.313333 254.56,568.02 C254.56,568.726667 254.426667,569.493333 254.16,570.32 L254.16,570.32 L249.16,586.8 L252.76,586.8 L253.047,585.741 L253,586 C254.058462,582.603077 255.156686,579.552663 256.294675,576.848757 L256.58,576.18 C257.82,573.313333 259.053333,571.06 260.28,569.42 C261.506667,567.78 262.64,566.96 263.68,566.96 C264.266667,566.96 264.56,567.313333 264.56,568.02 C264.56,568.726667 264.426667,569.493333 264.16,570.32 L264.16,570.32 L260.36,581.76 C260.04,582.746667 259.826667,583.62 259.72,584.38 C259.613333,585.14 259.72,585.773333 260.04,586.28 C260.253333,586.6 260.553333,586.86 260.94,587.06 C261.326667,587.26 261.853333,587.36 262.52,587.36 Z M276.12,587.36 C277.266667,587.36 278.353333,587.1 279.38,586.58 C280.406667,586.06 281.333333,585.386667 282.16,584.56 C282.986667,583.733333 283.653333,582.88 284.16,582 L284.16,582 L283.52,581.68 C282.506667,583.173333 281.466667,584.213333 280.4,584.8 C279.333333,585.386667 278.32,585.68 277.36,585.68 C276.533333,585.68 275.866667,585.38 275.36,584.78 C274.853333,584.18 274.6,583.2 274.6,581.84 C274.6,580.552 274.740467,579.270533 275.0214,577.9956 L275.028,577.964 L275.1,577.94 C275.48,577.81 275.87875,577.66875 276.29625,577.51625 L276.72,577.36 C277.866667,576.933333 279.04,576.426667 280.24,575.84 C281.44,575.253333 282.553333,574.58 283.58,573.82 C284.606667,573.06 285.433333,572.22 286.06,571.3 C286.686667,570.38 287,569.386667 287,568.32 C287,567.44 286.713333,566.78 286.14,566.34 C285.566667,565.9 284.866667,565.68 284.04,565.68 C282.52,565.68 281.093333,566.04 279.76,566.76 C278.426667,567.48 277.213333,568.44 276.12,569.64 C275.026667,570.84 274.086667,572.153333 273.3,573.58 C272.513333,575.006667 271.906667,576.433333 271.48,577.86 C271.053333,579.286667 270.84,580.573333 270.84,581.72 C270.84,583.586667 271.313333,584.993333 272.26,585.94 C273.206667,586.886667 274.493333,587.36 276.12,587.36 Z M275.218,577.197 L275.2966,576.9044 L275.2966,576.9044 L275.46,576.36 C276.033333,574.546667 276.76,572.886667 277.64,571.38 C278.52,569.873333 279.453333,568.673333 280.44,567.78 C281.426667,566.886667 282.333333,566.44 283.16,566.44 C283.373333,566.44 283.533333,566.546667 283.64,566.76 C283.746667,566.973333 283.8,567.466667 283.8,568.24 C283.8,569.546667 283.52,570.746667 282.96,571.84 C282.4,572.933333 281.64,573.866667 280.68,574.64 C279.96,575.2 278.993333,575.726667 277.78,576.22 C277.086667,576.501905 276.347619,576.785986 275.562857,577.072245 L275.218,577.197 Z M302.88,587.36 C303.706667,587.36 304.573333,587.093333 305.48,586.56 C306.386667,586.026667 307.133333,584.92 307.72,583.24 L307.72,583.24 L308.72,580.32 L307.96,580.32 L307.44,581.8 C306.88,583.4 306.353333,584.48 305.86,585.04 C305.366667,585.6 304.866667,585.88 304.36,585.88 C303.773333,585.88 303.46,585.646667 303.42,585.18 C303.38,584.713333 303.48,584.12 303.72,583.4 L303.72,583.4 L307.6,571.72 C307.92,570.733333 308.106667,569.78 308.16,568.86 C308.213333,567.94 308.006667,567.18 307.54,566.58 C307.073333,565.98 306.213333,565.68 304.96,565.68 C304,565.68 303.073333,565.9 302.18,566.34 C301.286667,566.78 300.413333,567.5 299.56,568.5 C298.706667,569.5 297.84,570.813333 296.96,572.44 C296.350769,573.566154 295.728757,574.877633 295.093964,576.374438 L294.942,576.735 L296.32,571.28 C296.48,570.64 296.6175,570 296.7325,569.36 L296.84,568.72 C296.973333,567.866667 296.886667,567.146667 296.58,566.56 C296.273333,565.973333 295.586667,565.68 294.52,565.68 C293.666667,565.68 292.806667,565.946667 291.94,566.48 C291.073333,567.013333 290.346667,568.12 289.76,569.8 L289.76,569.8 L288.76,572.72 L289.52,572.72 L290.04,571.24 C290.6,569.666667 291.106667,568.593333 291.56,568.02 C292.013333,567.446667 292.533333,567.16 293.12,567.16 C293.546667,567.16 293.813333,567.3 293.92,567.58 C294.026667,567.86 294.046667,568.193333 293.98,568.58 C293.913333,568.966667 293.826667,569.32 293.72,569.64 L293.72,569.64 L288.92,586.8 L292.4,586.8 L293.128,583.917 L293.314815,583.277531 C293.871358,581.420082 294.488395,579.66749 295.165926,578.019753 L295.46,577.32 C296.353333,575.24 297.28,573.426667 298.24,571.88 C299.2,570.333333 300.14,569.126667 301.06,568.26 C301.98,567.393333 302.84,566.96 303.64,566.96 C304.28,566.96 304.666667,567.166667 304.8,567.58 C304.933333,567.993333 304.953333,568.46 304.86,568.98 C304.766667,569.5 304.653333,569.946667 304.52,570.32 L304.52,570.32 L300.72,581.76 C300.4,582.693333 300.186667,583.546667 300.08,584.32 C299.973333,585.093333 300.066667,585.72 300.36,586.2 C300.84,586.973333 301.68,587.36 302.88,587.36 Z M315.92,568.32 C317.76,567.413333 319.2,566.273333 320.24,564.9 C321.28,563.526667 321.8,562.146667 321.8,560.76 C321.8,560.146667 321.66,559.6 321.38,559.12 C321.1,558.64 320.653333,558.4 320.04,558.4 C319.426667,558.4 318.84,558.593333 318.28,558.98 C317.72,559.366667 317.26,559.84 316.9,560.4 C316.54,560.96 316.36,561.533333 316.36,562.12 C316.36,563.053333 316.866667,563.52 317.88,563.52 C318.253333,563.52 318.613333,563.42 318.96,563.22 C319.306667,563.02 319.64,562.786667 319.96,562.52 C319.88,563.426667 319.466667,564.333333 318.72,565.24 C317.973333,566.146667 316.973333,566.986667 315.72,567.76 L315.72,567.76 L315.92,568.32 Z M325.04,587.36 C326.293333,587.36 327.44,587.093333 328.48,586.56 C329.52,586.026667 330.353333,585.286667 330.98,584.34 C331.606667,583.393333 331.92,582.306667 331.92,581.08 C331.92,580.04 331.693333,579.053333 331.24,578.12 C330.786667,577.186667 330.226667,576.213333 329.56,575.2 C328.786667,574.026667 328.193333,573.126667 327.78,572.5 C327.366667,571.873333 327.16,571.106667 327.16,570.2 C327.16,569 327.493333,568.066667 328.16,567.4 C328.826667,566.733333 329.653333,566.4 330.64,566.4 C331.466667,566.4 332.133333,566.56 332.64,566.88 C332.293333,567.306667 332.02,567.74 331.82,568.18 C331.62,568.62 331.52,569.08 331.52,569.56 C331.52,570.066667 331.68,570.473333 332,570.78 C332.32,571.086667 332.693333,571.24 333.12,571.24 C333.813333,571.24 334.293333,570.986667 334.56,570.48 C334.826667,569.973333 334.96,569.533333 334.96,569.16 C334.96,568.2 334.713333,567.473333 334.22,566.98 C333.726667,566.486667 333.106667,566.146667 332.36,565.96 C331.613333,565.773333 330.853333,565.68 330.08,565.68 C328.373333,565.68 326.913333,566.2 325.7,567.24 C324.486667,568.28 323.88,569.653333 323.88,571.36 C323.88,572.586667 324.16,573.646667 324.72,574.54 C325.28,575.433333 325.866667,576.306667 326.48,577.16 C327.253333,578.226667 327.793333,579.166667 328.1,579.98 C328.406667,580.793333 328.56,581.613333 328.56,582.44 C328.56,583.773333 328.18,584.793333 327.42,585.5 C326.66,586.206667 325.693333,586.56 324.52,586.56 C324.013333,586.56 323.633333,586.526667 323.38,586.46 C323.126667,586.393333 322.893333,586.306667 322.68,586.2 C322.733333,585.906667 322.793333,585.593333 322.86,585.26 C322.926667,584.926667 322.96,584.546667 322.96,584.12 C322.96,583.48 322.826667,582.9 322.56,582.38 C322.293333,581.86 321.84,581.6 321.2,581.6 C320.613333,581.6 320.206667,581.806667 319.98,582.22 C319.753333,582.633333 319.64,583.026667 319.64,583.4 C319.64,584.36 319.9,585.126667 320.42,585.7 C320.94,586.273333 321.613333,586.693333 322.44,586.96 C323.266667,587.226667 324.133333,587.36 325.04,587.36 Z M365.36,587.36 C366.613333,587.36 367.606667,586.953333 368.34,586.14 C369.073333,585.326667 369.666667,584.106667 370.12,582.48 L370.12,582.48 L370.28,581.96 L369.36,581.96 L369.16,582.52 C368.786667,583.586667 368.42,584.406667 368.06,584.98 C367.7,585.553333 367.28,585.853333 366.8,585.88 C366.186667,585.906667 365.806667,585.566667 365.66,584.86 C365.513333,584.153333 365.466667,583.4 365.52,582.6 L365.52,582.6 L365.84,578.52 C365.946667,577.32 365.846667,576.373333 365.54,575.68 C365.233333,574.986667 364.74,574.453333 364.06,574.08 C363.38,573.706667 362.506667,573.426667 361.44,573.24 C360.986667,573.16 360.513333,573.093333 360.02,573.04 L360.02,573.04 L360.013,573.04 L360.149156,573.018667 C361.161067,572.848 362.116444,572.613333 363.015289,572.314667 L363.46,572.16 C365.66,571.36 367.38,570.273333 368.62,568.9 C369.86,567.526667 370.48,565.946667 370.48,564.16 C370.48,562.453333 369.826667,561.086667 368.52,560.06 C367.213333,559.033333 365.213333,558.52 362.52,558.52 C361.533333,558.52 360.553333,558.533333 359.58,558.56 C358.606667,558.586667 357.64,558.6 356.68,558.6 C356.093333,558.6 355.486667,558.593333 354.86,558.58 C354.233333,558.566667 353.653333,558.553333 353.12,558.54 C352.586667,558.526667 352.133333,558.506667 351.76,558.48 L351.76,558.48 L351.56,559.28 C352.546667,559.28 353.24,559.393333 353.64,559.62 C354.04,559.846667 354.246667,560.206667 354.26,560.7 C354.273333,561.193333 354.16,561.866667 353.92,562.72 L353.92,562.72 L348.64,582.56 C348.4,583.52 348.133333,584.24 347.84,584.72 C347.546667,585.2 347.146667,585.52 346.64,585.68 C346.133333,585.84 345.426667,585.946667 344.52,586 L344.52,586 L344.36,586.8 C344.92,586.746667 345.666667,586.713333 346.6,586.7 C347.533333,586.686667 348.52,586.68 349.56,586.68 C350.493333,586.68 351.4,586.686667 352.28,586.7 C353.16,586.713333 353.906667,586.746667 354.52,586.8 L354.52,586.8 L354.68,586 C353.666667,585.973333 352.953333,585.846667 352.54,585.62 C352.126667,585.393333 351.933333,585.033333 351.96,584.54 C351.986667,584.046667 352.106667,583.386667 352.32,582.56 L352.32,582.56 L354.768,573.362 L354.923114,573.361869 C356.907197,573.380554 358.418962,573.539377 359.458408,573.838339 L359.66,573.9 C360.766667,574.26 361.473333,574.853333 361.78,575.68 C362.086667,576.506667 362.186667,577.626667 362.08,579.04 L362.08,579.04 L361.76,583.52 C361.68,584.506667 361.933333,585.393333 362.52,586.18 C363.106667,586.966667 364.053333,587.36 365.36,587.36 Z M357.6,562.72 C357.973333,561.36 358.4,560.446667 358.88,559.98 C359.36,559.513333 360.186667,559.28 361.36,559.28 C363.173333,559.28 364.473333,559.66 365.26,560.42 C366.046667,561.18 366.44,562.346667 366.44,563.92 C366.44,565.52 366.12,566.973333 365.48,568.28 C364.84,569.586667 363.773333,570.626667 362.28,571.4 C360.786667,572.173333 358.76,572.56 356.2,572.56 L356.2,572.56 L354.981,572.56 L357.6,562.72 Z M381.76,561.52 C382.453333,561.52 383.086667,561.266667 383.66,560.76 C384.233333,560.253333 384.586667,559.653333 384.72,558.96 C384.853333,558.266667 384.726667,557.666667 384.34,557.16 C383.953333,556.653333 383.413333,556.4 382.72,556.4 C382.053333,556.4 381.433333,556.653333 380.86,557.16 C380.286667,557.666667 379.933333,558.266667 379.8,558.96 C379.666667,559.653333 379.793333,560.253333 380.18,560.76 C380.566667,561.266667 381.093333,561.52 381.76,561.52 Z M376.36,587.36 C377.293333,587.36 378.206667,587.06 379.1,586.46 C379.993333,585.86 380.72,584.786667 381.28,583.24 L381.28,583.24 L382.32,580.32 L381.56,580.32 L381,581.8 C380.413333,583.346667 379.88,584.413333 379.4,585 C378.92,585.586667 378.413333,585.88 377.88,585.88 C377.373333,585.88 377.073333,585.66 376.98,585.22 C376.886667,584.78 376.973333,584.173333 377.24,583.4 L377.24,583.4 L381.52,571.28 C381.813333,570.453333 382.02,569.606667 382.14,568.74 C382.26,567.873333 382.14,567.146667 381.78,566.56 C381.42,565.973333 380.666667,565.68 379.52,565.68 C378.693333,565.68 377.813333,565.946667 376.88,566.48 C375.946667,567.013333 375.173333,568.12 374.56,569.8 L374.56,569.8 L373.52,572.72 L374.28,572.72 L374.84,571.24 C375.373333,569.853333 375.88,568.826667 376.36,568.16 C376.84,567.493333 377.386667,567.16 378,567.16 C378.933333,567.16 379.12,567.986667 378.56,569.64 L378.56,569.64 L374.28,581.76 C373.933333,582.72 373.706667,583.626667 373.6,584.48 C373.493333,585.333333 373.64,586.026667 374.04,586.56 C374.44,587.093333 375.213333,587.36 376.36,587.36 Z M386.8,594.6 C388.88,594.6 390.653333,594.346667 392.12,593.84 C393.586667,593.333333 394.78,592.693333 395.7,591.92 C396.62,591.146667 397.3,590.34 397.74,589.5 C398.18,588.66 398.4,587.906667 398.4,587.24 C398.4,586.546667 398.2,585.986667 397.8,585.56 C397.4,585.133333 396.86,584.78 396.18,584.5 C395.5,584.22 394.733333,583.973333 393.88,583.76 L393.88,583.76 L390.96,583 C390.106667,582.786667 389.493333,582.566667 389.12,582.34 C388.746667,582.113333 388.56,581.866667 388.56,581.6 C388.56,581.066667 389.1,580.513333 390.18,579.94 C391.02,579.494074 391.968889,578.971523 393.026667,578.372346 L393.446,578.134 L393.502449,578.124388 C394.425442,577.958401 395.270068,577.659626 396.036327,577.228061 L396.32,577.06 C397.626667,576.246667 398.64,575.213333 399.36,573.96 C400.08,572.706667 400.44,571.44 400.44,570.16 C400.44,568.586667 399.953333,567.446667 398.98,566.74 C398.910476,566.689524 398.839422,566.64085 398.766837,566.59398 L398.751,566.585 L398.918367,566.374286 C398.983673,566.29619 399.049796,566.220952 399.116735,566.148571 L399.32,565.94 C399.669091,565.600606 400.187438,565.271791 400.875041,564.953554 L401.032,564.883 L400.992397,564.986446 C400.749091,565.638788 400.63978,566.199449 400.664463,566.66843 L400.68,566.84 C400.76,567.453333 400.993333,567.9 401.38,568.18 C401.766667,568.46 402.173333,568.6 402.6,568.6 C403.026667,568.6 403.426667,568.426667 403.8,568.08 C404.173333,567.733333 404.36,567.186667 404.36,566.44 C404.36,565.613333 404.146667,565.006667 403.72,564.62 C403.293333,564.233333 402.733333,564.04 402.04,564.04 C401.053333,564.04 400.106667,564.386667 399.2,565.08 C398.746667,565.426667 398.36,565.8 398.04,566.2 L398.035,566.206 L397.822347,566.118061 C397.143707,565.858469 396.367109,565.714252 395.492551,565.685408 L395.16,565.68 C393.533333,565.68 392.166667,565.966667 391.06,566.54 C389.953333,567.113333 389.066667,567.833333 388.4,568.7 C387.733333,569.566667 387.246667,570.473333 386.94,571.42 C386.633333,572.366667 386.48,573.2 386.48,573.92 C386.48,575.413333 386.98,576.513333 387.98,577.22 C388.98,577.926667 390.213333,578.28 391.68,578.28 L391.68,578.28 L391.947,578.276 L391.832,578.3304 C390.521778,578.962044 389.462519,579.532741 388.654222,580.042489 L388.44,580.18 C387.4,580.86 386.693333,581.48 386.32,582.04 C385.946667,582.6 385.76,583.146667 385.76,583.68 C385.76,584.346667 385.96,584.873333 386.36,585.26 C386.76,585.646667 387.28,585.92 387.92,586.08 L387.92,586.08 L394.04,587.64 C394.626667,587.773333 395.046667,587.906667 395.3,588.04 C395.553333,588.173333 395.68,588.44 395.68,588.84 C395.68,589.72 395.266667,590.546667 394.44,591.32 C393.613333,592.093333 392.586667,592.72 391.36,593.2 C390.133333,593.68 388.92,593.92 387.72,593.92 C386.626667,593.92 385.706667,593.686667 384.96,593.22 C384.213333,592.753333 383.84,591.986667 383.84,590.92 C383.84,590.28 384.026667,589.64 384.4,589 C384.773333,588.36 385.453333,587.786667 386.44,587.28 L386.44,587.28 L386.16,586.68 C385.2,586.946667 384.366667,587.273333 383.66,587.66 C382.953333,588.046667 382.366667,588.46 381.9,588.9 C381.433333,589.34 381.08,589.793333 380.84,590.26 C380.6,590.726667 380.48,591.173333 380.48,591.6 C380.48,592.186667 380.713333,592.706667 381.18,593.16 C381.646667,593.613333 382.353333,593.966667 383.3,594.22 C384.246667,594.473333 385.413333,594.6 386.8,594.6 Z M392.08,577.56 C391.44,577.56 390.926667,577.373333 390.54,577 C390.153333,576.626667 389.96,576.013333 389.96,575.16 C389.96,574.76 390.026667,574.093333 390.16,573.16 C390.293333,572.226667 390.533333,571.24 390.88,570.2 C391.226667,569.16 391.733333,568.266667 392.4,567.52 C393.066667,566.773333 393.933333,566.4 395,566.4 C395.773333,566.4 396.28,566.666667 396.52,567.2 C396.76,567.733333 396.88,568.453333 396.88,569.36 C396.88,569.973333 396.82,570.733333 396.7,571.64 C396.58,572.546667 396.346667,573.453333 396,574.36 C395.653333,575.266667 395.166667,576.026667 394.54,576.64 C393.913333,577.253333 393.093333,577.56 392.08,577.56 Z M415.88,587.36 C416.706667,587.36 417.573333,587.093333 418.48,586.56 C419.386667,586.026667 420.133333,584.92 420.72,583.24 L420.72,583.24 L421.72,580.32 L420.96,580.32 L420.44,581.8 C419.88,583.4 419.353333,584.48 418.86,585.04 C418.366667,585.6 417.866667,585.88 417.36,585.88 C416.773333,585.88 416.466667,585.64 416.44,585.16 C416.413333,584.68 416.506667,584.093333 416.72,583.4 L416.72,583.4 L420.6,571.72 C420.92,570.76 421.106667,569.813333 421.16,568.88 C421.213333,567.946667 421.006667,567.18 420.54,566.58 C420.073333,565.98 419.213333,565.68 417.96,565.68 C416.92,565.68 415.92,565.946667 414.96,566.48 C414,567.013333 413.066667,567.873333 412.16,569.06 C411.253333,570.246667 410.34,571.813333 409.42,573.76 C409.288571,574.038095 409.15619,574.324898 409.022857,574.620408 L408.868,574.968 L414.72,555 C413.874286,555.434286 412.96,555.785306 411.977143,556.053061 L411.48,556.18 C410.306667,556.46 408.986667,556.613333 407.52,556.64 L407.52,556.64 L407.28,557.48 C408.586667,557.48 409.406667,557.693333 409.74,558.12 C410.073333,558.546667 410.106667,559.213333 409.84,560.12 L409.84,560.12 L401.92,586.8 L405.4,586.8 L406.791,582.054 L406.815,581.98 C407.153667,580.956 407.504067,579.9704 407.8662,579.0232 L408.14,578.32 C409.06,576 410.013333,573.993333 411,572.3 C411.986667,570.606667 412.96,569.293333 413.92,568.36 C414.88,567.426667 415.786667,566.96 416.64,566.96 C417.28,566.96 417.673333,567.153333 417.82,567.54 C417.966667,567.926667 417.986667,568.386667 417.88,568.92 C417.773333,569.453333 417.653333,569.92 417.52,570.32 L417.52,570.32 L413.72,581.76 C413.373333,582.826667 413.166667,583.786667 413.1,584.64 C413.033333,585.493333 413.213333,586.16 413.64,586.64 C414.066667,587.12 414.813333,587.36 415.88,587.36 Z M428.72,587.36 C429.946667,587.36 431.02,587.04 431.94,586.4 C432.86,585.76 433.613333,584.573333 434.2,582.84 L434.2,582.84 L435.04,580.32 L434.28,580.32 L433.72,581.88 C433.133333,583.533333 432.54,584.613333 431.94,585.12 C431.34,585.626667 430.746667,585.88 430.16,585.88 C429.573333,585.88 429.1,585.686667 428.74,585.3 C428.38,584.913333 428.32,584.28 428.56,583.4 L428.56,583.4 L433.207,567.04 L438.6,567.04 L438.72,566.24 L433.434,566.24 L435.32,559.6 C434.914667,559.749333 434.470933,559.864533 433.9888,559.9456 L433.62,560 C432.993333,560.08 432.36,560.133333 431.72,560.16 L431.72,560.16 L429.975,566.24 L426.36,566.24 L426.16,567.04 L429.745,567.04 L425.52,581.76 C425.07,583.31 425.047734,584.590469 425.453203,585.601406 L425.54,585.8 C426.033333,586.84 427.093333,587.36 428.72,587.36 Z M441.88,587.36 C443.133333,587.36 444.28,587.093333 445.32,586.56 C446.36,586.026667 447.193333,585.286667 447.82,584.34 C448.446667,583.393333 448.76,582.306667 448.76,581.08 C448.76,580.04 448.533333,579.053333 448.08,578.12 C447.626667,577.186667 447.066667,576.213333 446.4,575.2 C445.626667,574.026667 445.033333,573.126667 444.62,572.5 C444.206667,571.873333 444,571.106667 444,570.2 C444,569 444.333333,568.066667 445,567.4 C445.666667,566.733333 446.493333,566.4 447.48,566.4 C448.306667,566.4 448.973333,566.56 449.48,566.88 C449.133333,567.306667 448.86,567.74 448.66,568.18 C448.46,568.62 448.36,569.08 448.36,569.56 C448.36,570.066667 448.52,570.473333 448.84,570.78 C449.16,571.086667 449.533333,571.24 449.96,571.24 C450.653333,571.24 451.133333,570.986667 451.4,570.48 C451.666667,569.973333 451.8,569.533333 451.8,569.16 C451.8,568.2 451.553333,567.473333 451.06,566.98 C450.566667,566.486667 449.946667,566.146667 449.2,565.96 C448.453333,565.773333 447.693333,565.68 446.92,565.68 C445.213333,565.68 443.753333,566.2 442.54,567.24 C441.326667,568.28 440.72,569.653333 440.72,571.36 C440.72,572.586667 441,573.646667 441.56,574.54 C442.12,575.433333 442.706667,576.306667 443.32,577.16 C444.093333,578.226667 444.633333,579.166667 444.94,579.98 C445.246667,580.793333 445.4,581.613333 445.4,582.44 C445.4,583.773333 445.02,584.793333 444.26,585.5 C443.5,586.206667 442.533333,586.56 441.36,586.56 C440.853333,586.56 440.473333,586.526667 440.22,586.46 C439.966667,586.393333 439.733333,586.306667 439.52,586.2 C439.573333,585.906667 439.633333,585.593333 439.7,585.26 C439.766667,584.926667 439.8,584.546667 439.8,584.12 C439.8,583.48 439.666667,582.9 439.4,582.38 C439.133333,581.86 438.68,581.6 438.04,581.6 C437.453333,581.6 437.046667,581.806667 436.82,582.22 C436.593333,582.633333 436.48,583.026667 436.48,583.4 C436.48,584.36 436.74,585.126667 437.26,585.7 C437.78,586.273333 438.453333,586.693333 439.28,586.96 C440.106667,587.226667 440.973333,587.36 441.88,587.36 Z M484.48,586.8 L484.64,586 C484.24,585.973333 483.833333,585.78 483.42,585.42 C483.006667,585.06 482.76,584.4 482.68,583.44 L482.68,583.44 L481.08,558.28 L481.08,558.28 L480.48,558.28 L463.24,582.52 C462.413333,583.666667 461.673333,584.5 461.02,585.02 C460.366667,585.54 459.773333,585.866667 459.24,586 L459.24,586 L459.04,586.8 C459.466667,586.746667 459.906667,586.713333 460.36,586.7 C460.813333,586.686667 461.373333,586.68 462.04,586.68 C462.733333,586.68 463.48,586.686667 464.28,586.7 C465.08,586.713333 465.853333,586.746667 466.6,586.8 L466.6,586.8 L466.8,586 C465.706667,585.973333 464.906667,585.78 464.4,585.42 C463.893333,585.06 463.74,584.466667 463.94,583.64 C464.14,582.813333 464.733333,581.706667 465.72,580.32 L465.72,580.32 L468.721,576.08 L478.561,576.08 L478.92,582.64 C478.97,583.915 478.762188,584.773984 478.296563,585.216953 L478.2,585.3 C477.666667,585.713333 476.76,585.946667 475.48,586 L475.48,586 L475.32,586.8 C475.853333,586.746667 476.546667,586.713333 477.4,586.7 C478.253333,586.686667 479.16,586.68 480.12,586.68 C480.893333,586.68 481.68,586.686667 482.48,586.7 C483.28,586.713333 483.946667,586.746667 484.48,586.8 L484.48,586.8 Z M478.518,575.28 L469.287,575.28 L477.856,563.173 L478.518,575.28 Z M501.76,587.36 C502.56,587.36 503.406667,587.08 504.3,586.52 C505.193333,585.96 505.893333,584.866667 506.4,583.24 L506.4,583.24 L507.32,580.32 L506.56,580.32 L506.08,581.8 C505.573333,583.32 505.093333,584.38 504.64,584.98 C504.186667,585.58 503.693333,585.88 503.16,585.88 C502.573333,585.88 502.26,585.62 502.22,585.1 C502.18,584.58 502.253333,584.013333 502.44,583.4 L502.44,583.4 L510.28,555 C509.266667,555.506667 508.2,555.9 507.08,556.18 C505.96,556.46 504.666667,556.613333 503.2,556.64 L503.2,556.64 L502.96,557.48 C504.266667,557.48 505.08,557.693333 505.4,558.12 C505.72,558.546667 505.76,559.213333 505.52,560.12 L505.52,560.12 L503.533,567.584 L503.488333,567.434861 C503.361667,567.065417 503.175,566.754306 502.928333,566.501528 L502.8,566.38 C502.266667,565.913333 501.693333,565.68 501.08,565.68 C499.613333,565.68 498.226667,566.04 496.92,566.76 C495.613333,567.48 494.42,568.433333 493.34,569.62 C492.26,570.806667 491.333333,572.12 490.56,573.56 C489.786667,575 489.193333,576.46 488.78,577.94 C488.366667,579.42 488.16,580.8 488.16,582.08 C488.16,583.866667 488.54,585.193333 489.3,586.06 C490.06,586.926667 491.066667,587.36 492.32,587.36 C493.466667,587.36 494.566667,586.993333 495.62,586.26 C496.673333,585.526667 497.713333,584.333333 498.74,582.68 C499.219111,581.908444 499.699674,581.017837 500.181689,580.008178 L500.285,579.788 L499.76,581.76 C499.610667,582.293333 499.4912,582.792533 499.4016,583.2576 L499.34,583.6 C499.246667,584.16 499.213333,584.653333 499.24,585.08 C499.32,586.6 500.16,587.36 501.76,587.36 Z M493.48,586.08 C492.893333,586.08 492.453333,585.793333 492.16,585.22 C491.866667,584.646667 491.72,583.773333 491.72,582.6 C491.72,581 491.966667,579.28 492.46,577.44 C492.953333,575.6 493.633333,573.853333 494.5,572.2 C495.366667,570.546667 496.366667,569.2 497.5,568.16 C498.633333,567.12 499.84,566.6 501.12,566.6 C501.653333,566.6 502.133333,566.806667 502.56,567.22 C502.870303,567.520606 503.095978,567.965785 503.237025,568.555537 L503.254,568.635 L501.778,574.177 L501.685,574.475 C501.4675,575.1425 501.228437,575.801562 500.967812,576.452187 L500.7,577.1 C499.966667,578.82 499.166667,580.353333 498.3,581.7 C497.433333,583.046667 496.58,584.113333 495.74,584.9 C494.9,585.686667 494.146667,586.08 493.48,586.08 Z M516.68,587.36 C518.173333,587.36 519.533333,587.06 520.76,586.46 C521.986667,585.86 523.093333,585.026667 524.08,583.96 C525.066667,582.893333 525.913333,581.68 526.62,580.32 C527.326667,578.96 527.906667,577.506667 528.36,575.96 C528.813333,574.413333 529.133333,572.853333 529.32,571.28 C529.506667,569.626667 529.426667,568.273333 529.08,567.22 C528.733333,566.166667 528.093333,565.64 527.16,565.64 C526.813333,565.64 526.446667,565.766667 526.06,566.02 C525.673333,566.273333 525.453333,566.706667 525.4,567.32 C525.32,568.386667 525.6,569.28 526.24,570 C526.88,570.72 527.573333,571.266667 528.32,571.64 C528.266667,572.626667 528.073333,573.746667 527.74,575 C527.406667,576.253333 526.94,577.526667 526.34,578.82 C525.74,580.113333 525.02,581.306667 524.18,582.4 C523.34,583.493333 522.386667,584.373333 521.32,585.04 C520.253333,585.706667 519.093333,586.04 517.84,586.04 C517.253333,586.04 516.793333,585.706667 516.46,585.04 C516.126667,584.373333 516.013333,583.266667 516.12,581.72 C516.28,579.826667 516.66,577.986667 517.26,576.2 C517.86,574.413333 518.666667,572.64 519.68,570.88 C520.693333,569.12 521.906667,567.373333 523.32,565.64 L523.32,565.64 L522.48,565.24 L522.08,566 C521.626667,566.426667 521.113333,566.74 520.54,566.94 C519.966667,567.14 519.36,567.24 518.72,567.24 C518.213333,567.24 517.78,567.113333 517.42,566.86 C517.06,566.606667 516.706667,566.346667 516.36,566.08 C516.013333,565.813333 515.586667,565.68 515.08,565.68 C514.386667,565.68 513.7,565.96 513.02,566.52 C512.34,567.08 511.773333,568.16 511.32,569.76 L511.32,569.76 L510.44,572.68 L511.2,572.68 L511.64,571.2 C511.96,570.266667 512.26,569.62 512.54,569.26 C512.82,568.9 513.173333,568.72 513.6,568.72 C514.053333,568.72 514.46,568.886667 514.82,569.22 C515.18,569.553333 515.613333,569.72 516.12,569.72 C516.493333,569.72 516.893333,569.62 517.32,569.42 C517.746667,569.22 518.186667,568.98 518.64,568.7 C519.093333,568.42 519.56,568.14 520.04,567.86 C520.52,567.58 520.973333,567.36 521.4,567.2 C519.64,568.853333 518.086667,570.566667 516.74,572.34 C515.393333,574.113333 514.313333,575.86 513.5,577.58 C512.686667,579.3 512.226667,580.906667 512.12,582.4 C512.066667,583.2 512.173333,583.98 512.44,584.74 C512.706667,585.5 513.18,586.126667 513.86,586.62 C514.54,587.113333 515.48,587.36 516.68,587.36 Z M537,587.36 C538.866667,587.36 540.52,586.846667 541.96,585.82 C543.4,584.793333 544.606667,583.48 545.58,581.88 C546.553333,580.28 547.293333,578.593333 547.8,576.82 C548.306667,575.046667 548.56,573.426667 548.56,571.96 C548.56,569.826667 548.06,568.246667 547.06,567.22 C546.06,566.193333 544.733333,565.68 543.08,565.68 C541.213333,565.68 539.56,566.193333 538.12,567.22 C536.68,568.246667 535.473333,569.56 534.5,571.16 C533.526667,572.76 532.786667,574.446667 532.28,576.22 C531.773333,577.993333 531.52,579.613333 531.52,581.08 C531.52,583.186667 532.02,584.76 533.02,585.8 C534.02,586.84 535.346667,587.36 537,587.36 Z M537.24,586.56 C536.493333,586.56 535.926667,586.28 535.54,585.72 C535.153333,585.16 534.96,584.28 534.96,583.08 C534.96,581.666667 535.093333,580.186667 535.36,578.64 C535.626667,577.093333 536.006667,575.6 536.5,574.16 C536.993333,572.72 537.566667,571.42 538.22,570.26 C538.873333,569.1 539.593333,568.18 540.38,567.5 C541.166667,566.82 541.986667,566.48 542.84,566.48 C543.613333,566.48 544.186667,566.753333 544.56,567.3 C544.933333,567.846667 545.12,568.733333 545.12,569.96 C545.12,571.4 544.986667,572.886667 544.72,574.42 C544.453333,575.953333 544.08,577.44 543.6,578.88 C543.12,580.32 542.546667,581.62 541.88,582.78 C541.213333,583.94 540.486667,584.86 539.7,585.54 C538.913333,586.22 538.093333,586.56 537.24,586.56 Z M556.2,587.36 C557.346667,587.36 558.433333,587.1 559.46,586.58 C560.486667,586.06 561.413333,585.386667 562.24,584.56 C563.066667,583.733333 563.733333,582.88 564.24,582 L564.24,582 L563.44,581.68 C562.426667,583.173333 561.413333,584.213333 560.4,584.8 C559.386667,585.386667 558.4,585.68 557.44,585.68 C556.613333,585.68 555.94,585.38 555.42,584.78 C554.9,584.18 554.64,583.2 554.64,581.84 C554.64,579.813333 554.886667,577.88 555.38,576.04 C555.873333,574.2 556.533333,572.56 557.36,571.12 C558.186667,569.68 559.1,568.546667 560.1,567.72 C561.1,566.893333 562.106667,566.48 563.12,566.48 C563.813333,566.48 564.373333,566.593333 564.8,566.82 C565.226667,567.046667 565.573333,567.346667 565.84,567.72 C565.066667,567.853333 564.373333,568.193333 563.76,568.74 C563.146667,569.286667 562.84,569.946667 562.84,570.72 C562.84,571.146667 562.973333,571.513333 563.24,571.82 C563.506667,572.126667 563.92,572.28 564.48,572.28 C565.066667,572.28 565.573333,572.12 566,571.8 C566.426667,571.48 566.753333,571.073333 566.98,570.58 C567.206667,570.086667 567.32,569.586667 567.32,569.08 C567.32,568.013333 566.893333,567.18 566.04,566.58 C565.186667,565.98 564.173333,565.68 563,565.68 C561.133333,565.68 559.453333,566.2 557.96,567.24 C556.466667,568.28 555.2,569.62 554.16,571.26 C553.12,572.9 552.32,574.626667 551.76,576.44 C551.2,578.253333 550.92,579.933333 550.92,581.48 C550.92,583.426667 551.4,584.893333 552.36,585.88 C553.32,586.866667 554.6,587.36 556.2,587.36 Z M580.84,587.36 C581.613333,587.36 582.426667,587.066667 583.28,586.48 C584.133333,585.893333 584.853333,584.8 585.44,583.2 L585.44,583.2 L586.44,580.28 L585.68,580.28 L585.2,581.76 C584.693333,583.306667 584.186667,584.373333 583.68,584.96 C583.173333,585.546667 582.653333,585.84 582.12,585.84 C581.666667,585.84 581.393333,585.68 581.3,585.36 C581.206667,585.04 581.206667,584.686667 581.3,584.3 C581.393333,583.913333 581.466667,583.6 581.52,583.36 L581.52,583.36 L586.52,565.68 C585.986667,565.866667 585.4,566 584.76,566.08 C584.12,566.16 583.48,566.213333 582.84,566.24 L582.84,566.24 L582.221,568.686 L582.213689,568.587556 C582.1632,568.082667 582.049778,567.636444 581.873422,567.248889 L581.78,567.06 C581.286667,566.14 580.573333,565.68 579.64,565.68 C578.44,565.68 577.26,566.053333 576.1,566.8 C574.94,567.546667 573.866667,568.533333 572.88,569.76 C571.893333,570.986667 571.02,572.346667 570.26,573.84 C569.5,575.333333 568.906667,576.833333 568.48,578.34 C568.053333,579.846667 567.84,581.24 567.84,582.52 C567.84,583.933333 568.153333,585.093333 568.78,586 C569.406667,586.906667 570.346667,587.36 571.6,587.36 C573.2,587.36 574.766667,586.48 576.3,584.72 C577.361538,583.501538 578.419882,581.682367 579.47503,579.262485 L579.64,578.878 L578.92,581.72 C578.777778,582.271111 578.647407,582.819259 578.528889,583.364444 L578.36,584.18 C578.2,584.993333 578.293333,585.706667 578.64,586.32 C579.066667,587.013333 579.8,587.36 580.84,587.36 Z M572.76,586.08 C572.333333,586.08 571.993333,585.853333 571.74,585.4 C571.486667,584.946667 571.36,584.146667 571.36,583 C571.36,581.24 571.613333,579.393333 572.12,577.46 C572.626667,575.526667 573.293333,573.726667 574.12,572.06 C574.946667,570.393333 575.833333,569.04 576.78,568 C577.726667,566.96 578.64,566.44 579.52,566.44 C580.373333,566.44 580.986667,566.873333 581.36,567.74 C581.675897,568.473333 581.791321,569.402367 581.706272,570.527101 L581.679,570.823 L580.976,573.601 L580.81,574.15 C580.595,574.835 580.359375,575.510625 580.103125,576.176875 L579.84,576.84 C579.12,578.6 578.333333,580.173333 577.48,581.56 C576.626667,582.946667 575.786667,584.046667 574.96,584.86 C574.133333,585.673333 573.4,586.08 572.76,586.08 Z M594.4,587.36 C595.546667,587.36 596.633333,587.1 597.66,586.58 C598.686667,586.06 599.613333,585.386667 600.44,584.56 C601.266667,583.733333 601.933333,582.88 602.44,582 L602.44,582 L601.64,581.68 C600.626667,583.173333 599.613333,584.213333 598.6,584.8 C597.586667,585.386667 596.6,585.68 595.64,585.68 C594.813333,585.68 594.14,585.38 593.62,584.78 C593.1,584.18 592.84,583.2 592.84,581.84 C592.84,579.813333 593.086667,577.88 593.58,576.04 C594.073333,574.2 594.733333,572.56 595.56,571.12 C596.386667,569.68 597.3,568.546667 598.3,567.72 C599.3,566.893333 600.306667,566.48 601.32,566.48 C602.013333,566.48 602.573333,566.593333 603,566.82 C603.426667,567.046667 603.773333,567.346667 604.04,567.72 C603.266667,567.853333 602.573333,568.193333 601.96,568.74 C601.346667,569.286667 601.04,569.946667 601.04,570.72 C601.04,571.146667 601.173333,571.513333 601.44,571.82 C601.706667,572.126667 602.12,572.28 602.68,572.28 C603.266667,572.28 603.773333,572.12 604.2,571.8 C604.626667,571.48 604.953333,571.073333 605.18,570.58 C605.406667,570.086667 605.52,569.586667 605.52,569.08 C605.52,568.013333 605.093333,567.18 604.24,566.58 C603.386667,565.98 602.373333,565.68 601.2,565.68 C599.333333,565.68 597.653333,566.2 596.16,567.24 C594.666667,568.28 593.4,569.62 592.36,571.26 C591.32,572.9 590.52,574.626667 589.96,576.44 C589.4,578.253333 589.12,579.933333 589.12,581.48 C589.12,583.426667 589.6,584.893333 590.56,585.88 C591.52,586.866667 592.8,587.36 594.4,587.36 Z M604.76,594.32 C605.133333,594.32 605.606667,594.246667 606.18,594.1 C606.753333,593.953333 607.44,593.693333 608.24,593.32 C609.52,592.706667 610.673333,591.98 611.7,591.14 C612.726667,590.3 613.613333,589.48 614.36,588.68 C615.106667,587.88 615.693333,587.213333 616.12,586.68 C617.08,585.48 618.026667,584.14 618.96,582.66 C619.893333,581.18 620.74,579.64 621.5,578.04 C622.26,576.44 622.866667,574.86 623.32,573.3 C623.773333,571.74 624,570.28 624,568.92 C624,567.853333 623.833333,567.046667 623.5,566.5 C623.166667,565.953333 622.64,565.68 621.92,565.68 C621.36,565.68 620.893333,565.84 620.52,566.16 C620.146667,566.48 619.933333,566.946667 619.88,567.56 C619.826667,568.466667 620.16,569.246667 620.88,569.9 C621.6,570.553333 622.28,571.053333 622.92,571.4 C622.413333,573.933333 621.513333,576.446667 620.22,578.94 C619.314667,580.685333 618.340733,582.3098 617.2982,583.8134 L616.89,584.391 L614.84,569.36 C614.666667,568.047619 614.378367,567.120374 613.975102,566.578265 L613.88,566.46 C613.426667,565.94 612.786667,565.68 611.96,565.68 C611.106667,565.68 610.266667,565.953333 609.44,566.5 C608.613333,567.046667 607.92,568.133333 607.36,569.76 L607.36,569.76 L606.36,572.68 L607.12,572.68 L607.64,571.2 C608.173333,569.68 608.626667,568.686667 609,568.22 C609.373333,567.753333 609.706667,567.52 610,567.52 C610.346667,567.52 610.613333,567.68 610.8,568 C610.986667,568.32 611.146667,568.893333 611.28,569.72 L611.28,569.72 L614.247,587.681 L614.210972,587.722361 C613.537083,588.462917 612.874861,589.111806 612.224306,589.669028 L611.9,589.94 C610.606667,590.993333 609.386667,591.826667 608.24,592.44 C607.733333,592.04 607.206667,591.68 606.66,591.36 C606.113333,591.04 605.533333,590.88 604.92,590.88 C604.36,590.88 603.86,591.033333 603.42,591.34 C602.98,591.646667 602.76,592.093333 602.76,592.68 C602.76,593.213333 602.96,593.62 603.36,593.9 C603.76,594.18 604.226667,594.32 604.76,594.32 Z" id="CenterforWomen’sRightsAdvocacy"></path>
            </g>
        </g>
    </g>
</svg>