<?xml version="1.0" encoding="UTF-8"?>
<svg width="283px" height="312px" viewBox="0 0 283 312" version="1.1" xmlns="http://www.w3.org/2000/svg" xmlns:xlink="http://www.w3.org/1999/xlink">
    <title>CWRA Logo Tree</title>
    <defs>
        <filter id="filter-1">
            <feColorMatrix in="SourceGraphic" type="matrix" values="0 0 0 0 1.000000 0 0 0 0 1.000000 0 0 0 0 1.000000 0 0 0 1.000000 0"></feColorMatrix>
        </filter>
    </defs>
    <g id="Profile-Pictures" stroke="none" stroke-width="1" fill="none" fill-rule="evenodd">
        <g id="Profile-Picture---CWRA-Logo-(Round)" transform="translate(-219.000000, -94.000000)">
            <g id="CWRA-Logo-Tree" transform="translate(104.000000, 94.000000)" filter="url(#filter-1)">
                <g transform="translate(115.000000, 0.000000)">
                    <path d="M145.458893,0 C146.860344,6.20331292 145.73265,8.62743823 140.504247,10.6456693 C138.566549,6.07717348 139.083644,4.43860965 143.862546,0 C144.394287,0 144.926027,0 145.458893,0" id="Fill-4" fill="#509042"></path>
                    <path d="M283,116.459084 C279.397835,119.26014 275.726681,121.216115 271.515942,117.557439 C274.295178,112.423005 276.521276,111.888873 283,114.682407 C283,115.274214 283,115.867276 283,116.459084" id="Fill-5" fill="#509042"></path>
                    <path d="M42.1310654,110.551181 C38.3374269,105.675218 38.4448639,103.643773 42.5385852,99.0866142 C47.1707266,101.545602 47.0966321,105.818556 42.1310654,110.551181" id="Fill-6" fill="#509042"></path>
                    <path d="M214.915942,98.7431264 C209.235365,101.876201 206.982552,101.408012 203.431884,96.5170911 C207.882202,92.8754882 210.783943,93.373015 214.915942,98.7431264" id="Fill-7" fill="#509042"></path>
                    <path d="M4.10144928,117.171039 C10.3550291,116.658479 12.9489536,118.981997 13.1246377,125.253012 C6.65920347,125.619126 4.17637339,123.394982 4.10144928,117.171039" id="Fill-8" fill="#509042"></path>
                    <path d="M132.134495,110.551181 C133.877889,116.627471 132.711683,119.097406 127.373871,121.19685 C125.09705,115.839087 126.456046,112.669337 132.134495,110.551181" id="Fill-9" fill="#509042"></path>
                    <path d="M128.69068,11.4645669 C121.773865,10.1540314 120.186506,8.31421684 120.659748,2.45669291 C127.074951,2.73399463 129.292871,5.13094508 128.69068,11.4645669" id="Fill-10" fill="#509042"></path>
                    <path d="M119.373307,52.4094488 C114.236692,49.3242724 113.552938,46.4003055 116.879898,41.7637795 C122.011681,44.780033 122.680938,47.6362452 119.373307,52.4094488" id="Fill-11" fill="#509042"></path>
                    <path d="M245.102028,85.1653543 C239.640738,84.023259 238.135247,81.7521959 238.883552,76.1574803 C244.171643,76.6813882 245.837009,79.018089 245.102028,85.1653543" id="Fill-12" fill="#509042"></path>
                    <path d="M211.342943,76.1574803 C212.324869,82.0653517 210.918955,84.455315 205.750282,85.984252 C203.972409,80.8968158 205.642901,77.8131111 211.342943,76.1574803" id="Fill-13" fill="#509042"></path>
                    <path d="M53.3188406,49.3954177 C47.652757,50.840083 45.3219091,49.5866067 43.4753623,44.3351295 C48.3314942,42.1913231 51.3625507,43.6835029 53.3188406,49.3954177" id="Fill-14" fill="#509042"></path>
                    <path d="M112.37971,44.9356749 C110.586766,50.4265078 107.794591,51.8631773 102.536232,49.9970119 C104.19571,44.5802699 106.92056,43.1794882 112.37971,44.9356749" id="Fill-15" fill="#509042"></path>
                    <path d="M273.976812,107.299776 C273.3069,113.805402 271.009878,115.796037 264.953623,115.420989 C265.00129,109.213041 267.358862,107.015212 273.976812,107.299776" id="Fill-16" fill="#509042"></path>
                    <path d="M167.33913,111.736592 C170.358564,106.183943 172.914304,105.293842 178.002899,107.749706 C176.055382,113.061561 172.948027,114.266732 167.33913,111.736592" id="Fill-17" fill="#509042"></path>
                    <path d="M18.8666667,109.557282 C13.7057805,113.357251 11.407762,113.086976 7.3826087,108.453865 C11.2206859,104.413376 14.4383946,104.668774 18.8666667,109.557282" id="Fill-18" fill="#509042"></path>
                    <path d="M136.351351,22.1102362 C135.619138,15.6855783 136.98556,13.4603845 142.192159,12.2834646 C143.754589,17.8751078 141.947712,21.0517725 136.351351,22.1102362" id="Fill-19" fill="#509042"></path>
                    <path d="M95.048668,92.5354331 C93.2270394,87.1913503 94.8613657,84.0861544 100.217753,82.7086614 C101.962862,88.0785491 100.373077,91.101415 95.048668,92.5354331" id="Fill-20" fill="#509042"></path>
                    <path d="M148.472464,17.8430185 C153.756086,16.1312385 156.86965,17.797942 158.315942,23.1124611 C152.85355,24.8152259 149.666741,23.1090804 148.472464,17.8430185" id="Fill-21" fill="#509042"></path>
                    <path d="M142.964875,45.0393701 C141.939858,39.3828605 144.231928,36.7166089 150.711358,36.0314961 C151.684794,41.8166189 149.519693,44.3344705 142.964875,45.0393701" id="Fill-22" fill="#509042"></path>
                    <path d="M168.15942,39.0548604 C164.790415,42.9844355 162.888672,43.3836364 157.495652,41.4689855 C158.664951,37.4892738 162.575276,36.5518138 168.15942,39.0548604" id="Fill-23" fill="#509042"></path>
                    <path d="M137.808696,91.9564561 C137.115893,97.2380291 134.351861,99.0751464 128.785507,97.9507904 C129.345493,92.7551058 131.947991,91.0261854 137.808696,91.9564561" id="Fill-24" fill="#509042"></path>
                    <path d="M15.5855072,135.032446 C9.26256667,135.642742 6.39991684,132.994587 6.56941584,127.008376 C12.4504035,126.505545 14.5434023,128.304593 15.5855072,135.032446" id="Fill-25" fill="#509042"></path>
                    <path d="M186.550464,31.9370079 C185.474977,26.1158597 186.808492,23.8330325 192.082496,22.1102362 C193.823073,27.3371905 192.344973,30.0885401 186.550464,31.9370079" id="Fill-26" fill="#509042"></path>
                    <path d="M63.1991143,126.929134 C57.8303179,123.992316 57.0454205,121.378381 59.7667261,116.283465 C65.077701,118.538903 66.1295619,121.603925 63.1991143,126.929134" id="Fill-27" fill="#509042"></path>
                    <path d="M169.535585,126.110236 C165.295427,121.522969 165.530016,118.386776 170.207989,114.645669 C174.182197,119.292948 174.103164,121.458157 169.535585,126.110236" id="Fill-28" fill="#509042"></path>
                    <path d="M226.940895,40.1259843 C230.424008,44.6080516 230.531283,47.1765228 227.577899,51.5905512 C224.05966,48.3514101 223.821377,45.0065656 226.940895,40.1259843" id="Fill-29" fill="#509042"></path>
                    <path d="M41.0144928,76.3821219 C47.2643202,75.6390911 48.8655357,76.5601855 50.857971,81.873515 C45.9186694,83.9245437 42.7562082,82.2362371 41.0144928,76.3821219" id="Fill-30" fill="#509042"></path>
                    <path d="M30.1965898,128.566929 C24.5737321,125.710474 23.5471033,123.245937 25.5543396,117.92126 C31.0426735,119.812049 32.3277295,122.62796 30.1965898,128.566929" id="Fill-31" fill="#509042"></path>
                    <path d="M49.0979156,55.6850394 C51.2344871,61.4323415 49.7527485,64.6501387 44.3981751,66.3307087 C42.4061925,60.9986062 43.4924026,58.4221441 49.0979156,55.6850394" id="Fill-32" fill="#509042"></path>
                    <path d="M156.42601,126.929134 C151.122594,126.171283 149.443579,123.684285 150.343129,117.92126 C155.51991,118.670717 157.406345,121.463494 156.42601,126.929134" id="Fill-33" fill="#509042"></path>
                    <path d="M218.977244,120.377953 C219.324798,126.524563 217.474547,128.568692 211.122523,129.385827 C209.896605,123.857239 212.292832,120.999854 218.977244,120.377953" id="Fill-34" fill="#509042"></path>
                    <path d="M223.118841,55.8110912 C230.51764,55.3189099 232.041211,56.0958533 233.782609,61.2532108 C228.447053,63.5875567 225.016879,61.7746887 223.264467,55.7044519 L223.118841,55.8110912" id="Fill-35" fill="#509042"></path>
                    <path d="M176.385781,9.82677165 C178.901981,15.2856833 178.531755,17.8830196 174.923962,21.2913386 C172.094788,16.8321517 172.478372,13.5054181 176.385781,9.82677165" id="Fill-36" fill="#509042"></path>
                    <path d="M140.82243,143.307087 C139.367116,138.00446 140.692748,135.43771 145.899956,133.480315 C148.183236,138.366342 146.188137,142.226415 140.82243,143.307087" id="Fill-37" fill="#509042"></path>
                    <path d="M96.7942029,19.6535433 C97.2119463,13.4316829 99.1172936,11.56855 104.896483,11.4645669 C105.52917,17.0576353 103.219437,19.4920636 96.7942029,19.6535433" id="Fill-38" fill="#509042"></path>
                    <path d="M237.678198,133.480315 C243.245455,135.040159 244.722649,137.837915 242.866507,143.307087 C237.533169,142.110478 236.078197,139.35767 237.678198,133.480315" id="Fill-39" fill="#509042"></path>
                    <path d="M93.220551,154.771654 C97.1375264,158.035622 97.6095429,160.15924 95.7262352,165.417323 C91.7597742,164.56236 90.7310447,160.500985 93.220551,154.771654" id="Fill-40" fill="#509042"></path>
                    <path d="M215.493683,66.3307087 C219.384014,71.607507 219.109608,74.0026149 214.449692,77.7952756 C210.419663,73.6148123 210.672865,70.3721484 215.493683,66.3307087" id="Fill-41" fill="#509042"></path>
                    <path d="M51.723362,72.0629921 C49.8450275,66.5477659 50.9041137,63.962425 56.0867496,61.4173228 C58.7973929,66.722553 57.3916103,70.1516506 51.723362,72.0629921" id="Fill-42" fill="#509042"></path>
                    <path d="M228.86087,53.988344 C231.649223,48.3692761 233.34491,47.5910455 239.524638,48.8118947 C238.479317,54.398131 235.063024,56.1053743 228.86087,53.988344" id="Fill-43" fill="#509042"></path>
                    <path d="M160.004464,78.6141732 C164.43783,83.2292754 164.287801,86.4677101 159.703155,90.0787402 C155.609855,85.6366288 155.624858,83.4385578 160.004464,78.6141732" id="Fill-44" fill="#509042"></path>
                    <path d="M169.8,27.1631329 C169.36705,33.6147647 166.87504,35.800206 160.776812,35.0817585 C161.205941,28.6720034 163.787088,26.4080433 169.8,27.1631329" id="Fill-45" fill="#509042"></path>
                    <path d="M257.571014,88.6923371 C259.595874,82.8696531 262.604835,81.5270613 268.234783,83.6689858 C266.012856,89.1243118 264.074213,90.0756134 257.571014,88.6923371" id="Fill-46" fill="#509042"></path>
                    <path d="M202.290785,18.8346457 C203.376351,24.3100669 201.768814,26.8178934 196.51985,27.8425197 C195.021432,22.5784724 197.143066,19.2669472 202.290785,18.8346457" id="Fill-47" fill="#509042"></path>
                    <path d="M73.5083747,19.6535433 C78.9241955,22.2012767 80.0008273,25.157666 77.3866685,30.2992126 C72.045849,27.9030579 70.9413941,24.8702729 73.5083747,19.6535433" id="Fill-48" fill="#509042"></path>
                    <path d="M126.592447,72.8818898 C122.179709,69.0329216 121.931281,66.2359065 125.572385,61.4173228 C130.576081,64.317567 130.933667,68.3348968 126.592447,72.8818898" id="Fill-49" fill="#509042"></path>
                    <path d="M66.0693661,90.8976378 C71.5929499,92.4253819 73.2164551,95.4545081 71.5780554,100.724409 C66.3363221,99.5908409 64.7368774,96.8554633 66.0693661,90.8976378" id="Fill-50" fill="#509042"></path>
                    <path d="M131.246377,29.1221925 C125.844442,31.5167063 122.805622,30.3236003 120.582609,24.9368339 C125.745256,22.4925085 129.037002,23.7840516 131.246377,29.1221925" id="Fill-51" fill="#509042"></path>
                    <path d="M51.6782609,54.4277382 C57.2430017,52.1075614 59.6668561,53.0289139 62.342029,58.2871014 C57.3144667,61.0415615 54.5809307,60.1106116 51.6782609,54.4277382" id="Fill-52" fill="#509042"></path>
                    <path d="M13.9449275,99.0375725 C17.7474404,95.2613009 20.4910257,94.9060786 25.4289855,97.4165715 C22.8137551,101.192843 19.3345977,101.73956 13.9449275,99.0375725" id="Fill-53" fill="#509042"></path>
                    <path d="M201.763533,73.7007874 C196.350694,70.8192353 195.511698,67.5521563 198.831422,63.0551181 C203.89791,65.9424938 204.629375,68.4140595 201.763533,73.7007874" id="Fill-54" fill="#509042"></path>
                    <path d="M48.1911646,97.4488189 C54.0468557,99.5357453 55.3272155,102.470524 53.1305678,108.094488 C47.6584959,105.729881 46.7397645,103.819436 48.1911646,97.4488189" id="Fill-55" fill="#509042"></path>
                    <path d="M99.2550725,31.2147908 C103.481048,26.902969 105.812111,26.7701663 110.73913,30.5629613 C107.396544,35.4510736 103.835882,35.6533235 99.2550725,31.2147908" id="Fill-56" fill="#509042"></path>
                    <path d="M253.231616,118.740157 C247.882722,114.824165 247.381649,112.63944 250.379448,107.275591 C255.623437,110.147893 256.405901,113.115077 253.231616,118.740157" id="Fill-57" fill="#509042"></path>
                    <path d="M266.471343,140.850394 C260.810538,139.598559 259.362654,137.410274 260.292024,131.84252 C265.439809,132.299828 267.087627,134.605775 266.471343,140.850394" id="Fill-58" fill="#509042"></path>
                    <path d="M32.8115942,113.682725 C27.8082629,116.397388 24.8461342,116.053581 21.3275362,112.352709 C26.3088534,109.606019 29.3822759,109.962072 32.8115942,113.682725" id="Fill-59" fill="#509042"></path>
                    <path d="M154.714716,15.5590551 C149.099307,13.7571285 147.866111,11.660883 148.715472,5.73228346 C153.979498,6.55687292 155.852793,9.49633564 154.714716,15.5590551" id="Fill-60" fill="#509042"></path>
                    <path d="M238.242017,103.181102 C235.369819,98.0594786 235.573824,95.4752722 238.981179,91.7165354 C242.083,95.7404113 241.919797,98.7925103 238.242017,103.181102" id="Fill-61" fill="#509042"></path>
                    <path d="M159.506987,10.6456693 C164.187453,14.2097203 164.433727,17.3103231 160.415827,22.1102362 C155.72161,18.5169916 155.476586,15.4163888 159.506987,10.6456693" id="Fill-62" fill="#509042"></path>
                    <path d="M81.2086957,134.121056 C85.2047583,129.26231 88.0951861,128.974818 92.6927536,132.978554 C89.1391914,137.625725 85.7791461,137.959266 81.2086957,134.121056" id="Fill-63" fill="#509042"></path>
                    <path d="M178.823188,63.0551181 C172.548456,62.4746417 170.987964,60.9119154 170.62029,55.1157782 C175.98615,54.0300039 178.601128,56.4517367 178.823188,63.0551181" id="Fill-64" fill="#509042"></path>
                    <path d="M114.84058,15.3227681 C121.381384,13.9270624 123.198138,14.8240424 125.504348,20.3790239 C119.717969,22.4223468 116.895315,21.157375 114.84058,15.3227681" id="Fill-65" fill="#509042"></path>
                    <path d="M181.284058,127.782956 C187.802603,127.435083 190.182985,129.655521 190.307246,135.815072 C184.378943,136.470729 182.188836,134.578765 181.284058,127.782956" id="Fill-66" fill="#509042"></path>
                    <path d="M161.597101,25.2351317 C162.441669,18.8479707 164.241694,17.235428 170.56757,17.1968504 C171.079468,23.2046652 167.846902,26.1018412 161.597101,25.2351317" id="Fill-67" fill="#509042"></path>
                    <path d="M45.115942,110.281292 C50.6467497,107.682549 53.4902584,108.69753 55.7797101,114.092374 C50.3709415,116.703375 47.4834987,115.671233 45.115942,110.281292" id="Fill-68" fill="#509042"></path>
                    <path d="M78.3824667,69.6062992 C83.9460276,70.939013 85.5391593,73.8018342 83.8480069,79.4330709 C78.5324502,78.4510067 77.0633205,75.8076481 78.3824667,69.6062992" id="Fill-69" fill="#509042"></path>
                    <path d="M167.002741,80.2519685 C171.968518,83.4476448 172.568071,85.7392352 169.79035,90.8976378 C164.358529,88.5572407 163.435094,85.0292141 167.002741,80.2519685" id="Fill-70" fill="#509042"></path>
                    <path d="M263.157765,108.094488 C263.8525,114.453063 262.277472,116.951808 257.186798,117.92126 C255.854762,112.172605 257.499373,109.357985 263.157765,108.094488" id="Fill-71" fill="#509042"></path>
                    <path d="M276.437681,132.275069 C271.140817,133.554056 268.211041,131.667523 267.414493,126.466384 C272.954714,125.271467 275.720669,127.052633 276.437681,132.275069" id="Fill-72" fill="#509042"></path>
                    <path d="M238.04242,60.5984252 C241.586425,65.6453336 241.088846,68.7494273 236.205111,72.0629921 C232.530492,66.9364602 232.953434,64.2954081 238.04242,60.5984252" id="Fill-73" fill="#509042"></path>
                    <path d="M18.0463768,79.955463 C22.622423,76.960506 25.1915581,77.0764581 29.5304348,80.3240586 C25.6550618,83.5867424 22.4598957,83.5367793 18.0463768,79.955463" id="Fill-74" fill="#509042"></path>
                    <path d="M215.060433,26.2047244 C218.516354,30.7603351 218.184776,33.0806346 213.528917,36.8503937 C209.4211,33.3088226 210.010433,29.2072595 215.060433,26.2047244" id="Fill-75" fill="#509042"></path>
                    <path d="M11.484058,63.8213647 C15.7153238,60.138131 18.7947256,60.652556 22.1478261,65.6040498 C17.8676439,69.2430847 14.6554691,68.7065604 11.484058,63.8213647" id="Fill-76" fill="#509042"></path>
                    <path d="M163.154892,123.653543 C166.05004,129.137152 165.399135,131.495173 160.428124,134.299213 C156.985108,129.529003 157.653606,126.712286 163.154892,123.653543" id="Fill-77" fill="#509042"></path>
                    <path d="M40.4089399,81.0708661 C46.0328616,83.7133649 47.0562874,86.308262 44.8667466,91.7165354 C39.4556286,89.9308654 38.1997178,87.0698875 40.4089399,81.0708661" id="Fill-78" fill="#509042"></path>
                    <path d="M170.62029,32.7279985 C175.111881,29.502055 177.908624,29.5133675 182.104348,32.6205299 C178.65012,36.0218169 175.418707,36.0944053 170.62029,32.7279985" id="Fill-79" fill="#509042"></path>
                    <path d="M187.026087,35.4965707 C188.977788,29.6583666 191.891718,28.3367141 197.689855,30.3825598 C195.525151,35.894877 193.666329,36.8194303 187.026087,35.4965707" id="Fill-80" fill="#509042"></path>
                    <path d="M18.678818,153.133858 C13.9052151,148.957506 13.5998754,146.203721 17.2099204,141.669291 C22.1808004,145.024745 22.6268728,147.99289 18.678818,153.133858" id="Fill-81" fill="#509042"></path>
                    <path d="M72.7208313,30.2992126 C74.9168527,36.0429673 73.9684049,38.4542378 68.7203272,40.9448819 C65.9418615,36.0646146 67.0654074,32.853596 72.7208313,30.2992126" id="Fill-82" fill="#509042"></path>
                    <path d="M111.42651,91.7165354 C109.770528,86.2311929 110.995501,83.8936823 116.317326,81.8897638 C118.487116,86.6452257 117.160062,89.4180622 111.42651,91.7165354" id="Fill-83" fill="#509042"></path>
                    <path d="M167.33913,63.8757454 C173.829081,63.8102411 175.779334,65.5901938 176.362319,71.7979834 C170.648809,72.8976994 167.973093,70.6352825 167.33913,63.8757454" id="Fill-84" fill="#509042"></path>
                    <path d="M83.6695652,33.7450635 C89.536647,31.6822471 92.0525023,32.7308864 94.3333333,37.9790064 C89.1567114,40.6215284 85.8225334,39.3759614 83.6695652,33.7450635" id="Fill-85" fill="#509042"></path>
                    <path d="M253.469565,99.1258009 C259.47595,97.2582384 261.882943,98.3108861 264.133333,103.552835 C259.048067,106.082737 256.117011,104.92719 253.469565,99.1258009" id="Fill-86" fill="#509042"></path>
                    <path d="M111.55942,37.4277737 C110.748138,42.728577 107.760183,44.3784801 101.715942,42.8649816 C102.799309,37.4289598 105.643146,35.8585272 111.55942,37.4277737" id="Fill-87" fill="#509042"></path>
                    <path d="M234.338791,147.401575 C228.878784,144.702995 228.068469,142.975481 229.455915,137.574803 C234.970721,138.81561 236.824535,142.468838 234.338791,147.401575" id="Fill-88" fill="#509042"></path>
                    <path d="M189.486957,43.4640981 C191.590804,37.7898722 194.90116,36.4026031 200.150725,38.7780801 C197.942564,44.1122774 195.622551,45.1843118 189.486957,43.4640981" id="Fill-89" fill="#509042"></path>
                    <path d="M26.604132,159.685039 C24.2227708,154.004578 25.3698456,151.149675 30.8787116,149.03937 C33.1898189,154.619574 31.9640115,157.671324 26.604132,159.685039" id="Fill-90" fill="#509042"></path>
                    <path d="M64.1219879,75.3385827 C58.5858374,72.1177366 57.9112954,69.9555563 60.5530473,64.6929134 C65.8831559,67.0274072 66.9011011,69.8977251 64.1219879,75.3385827" id="Fill-91" fill="#509042"></path>
                    <path d="M60.2766271,147.401575 C61.5062433,152.984515 60.1647421,155.462365 54.9620894,157.228346 C52.8351555,152.156906 54.9095034,148.322524 60.2766271,147.401575" id="Fill-92" fill="#509042"></path>
                    <path d="M5.92606977,151.496063 C5.14194957,145.576361 6.80095981,143.160057 12.1082615,142.488189 C12.9645601,148.087089 11.0365212,150.894408 5.92606977,151.496063" id="Fill-93" fill="#509042"></path>
                    <path d="M121.402899,44.208146 C124.107178,39.0277356 126.443908,38.2227134 132.066667,40.5369987 C130.468684,46.009921 126.692186,47.311476 121.402899,44.208146" id="Fill-94" fill="#509042"></path>
                    <path d="M160.452116,76.976378 C157.06042,71.9688894 157.62364,69.3515744 162.744605,66.3307087 C166.146204,71.0291926 165.5508,73.7906329 160.452116,76.976378" id="Fill-95" fill="#509042"></path>
                    <path d="M214.71936,152.314961 C209.472684,149.644294 208.703753,146.764368 211.874191,141.669291 C217.085972,144.425512 217.813777,147.147048 214.71936,152.314961" id="Fill-96" fill="#509042"></path>
                    <path d="M260.852174,66.3177716 C258.806684,71.9264552 256.318514,73.1114905 251.008696,71.2379027 C252.222838,65.8756484 255.050358,64.3910323 260.852174,66.3177716" id="Fill-97" fill="#509042"></path>
                    <path d="M222.080284,53.2283465 C216.642484,51.1879372 215.611894,49.0696406 217.295313,43.4015748 C222.686657,44.2276514 224.466657,47.8848107 222.080284,53.2283465" id="Fill-98" fill="#509042"></path>
                    <path d="M164.878261,49.2055724 C158.899822,50.9848093 156.093897,49.6833845 154.214493,44.2545508 C159.787423,42.2872265 162.696294,43.6365492 164.878261,49.2055724" id="Fill-99" fill="#509042"></path>
                    <path d="M199.330435,51.2492247 C192.900566,52.288166 190.789788,51.0843698 189.486957,45.8469668 C194.878895,43.8983588 197.724172,45.3915405 199.330435,51.2492247" id="Fill-100" fill="#509042"></path>
                    <path d="M74.6225163,77.7952756 C69.1430138,75.7845054 68.1427871,73.9102181 69.3749504,67.9685039 C74.9196851,68.8321115 76.7075299,72.1794733 74.6225163,77.7952756" id="Fill-101" fill="#509042"></path>
                    <path d="M197.689855,126.225615 C192.724602,129.83188 189.666428,129.327299 186.205797,124.328492 C191.226097,120.764276 194.232894,121.261436 197.689855,126.225615" id="Fill-102" fill="#509042"></path>
                    <path d="M53.0178668,128.566929 C49.5845204,123.850125 50.1751246,121.079366 55.2871592,117.92126 C58.6898726,122.839298 58.0845645,125.675197 53.0178668,128.566929" id="Fill-103" fill="#509042"></path>
                    <path d="M97.2981093,148.220472 C91.6673146,145.10412 90.654728,142.318414 93.1760329,137.574803 C98.6191344,140.153854 99.5384723,142.436503 97.2981093,148.220472" id="Fill-104" fill="#509042"></path>
                    <path d="M12.3043478,114.195851 C18.0664564,111.760827 21.1783335,113.028157 22.9681159,118.376946 C17.4863784,120.654008 15.2748308,119.838689 12.3043478,114.195851" id="Fill-105" fill="#509042"></path>
                    <path d="M86.9507246,82.2609062 C89.6283338,77.1548967 92.4319481,76.5266158 97.6144928,79.8692665 C94.620704,84.975276 91.7004183,85.6305534 86.9507246,82.2609062" id="Fill-106" fill="#509042"></path>
                    <path d="M61.7525619,144.944882 C58.6408485,139.348574 59.3378923,136.808183 64.3833402,134.299213 C67.7636278,139.16238 67.0503447,142.170584 61.7525619,144.944882" id="Fill-107" fill="#509042"></path>
                    <path d="M97.6154775,105.703806 C103.378146,105.182662 105.973433,107.735886 105.810153,113.768102 C100.140788,114.255955 97.5565495,111.712974 97.6154775,105.703806" id="Fill-108" fill="#509042"></path>
                    <path d="M33.9105093,144.125984 C31.7838976,138.151058 32.5545836,136.191205 37.8951967,133.480315 C40.6985671,138.213048 39.5943185,141.370985 33.9105093,144.125984" id="Fill-109" fill="#509042"></path>
                    <path d="M133.41517,13.9212598 C129.773967,10.6979394 129.486354,7.67092199 132.405202,3.27559055 C135.96762,6.29680013 136.284659,9.63627632 133.41517,13.9212598" id="Fill-110" fill="#509042"></path>
                    <path d="M44.6782336,136.755906 C48.7990896,141.362532 48.5672448,144.122838 43.7184456,148.220472 C39.8369133,143.805941 40.1148779,140.479137 44.6782336,136.755906" id="Fill-111" fill="#509042"></path>
                    <path d="M91.4199418,5.73228346 C96.5272797,8.49148637 97.2720741,11.5805684 93.9890501,16.3779528 C88.8594796,13.4655917 88.0973932,10.3058213 91.4199418,5.73228346" id="Fill-112" fill="#509042"></path>
                    <path d="M188.185936,12.2834646 C191.599282,16.7209122 190.945294,19.6959528 185.846909,22.9291339 C182.45458,18.1622942 183.122166,15.1195064 188.185936,12.2834646" id="Fill-113" fill="#509042"></path>
                    <path d="M183.744928,68.7349727 C185.655016,63.3554819 188.567603,61.9263412 193.588406,63.9020855 C191.705605,69.3043515 188.745562,70.7574061 183.744928,68.7349727" id="Fill-114" fill="#509042"></path>
                    <path d="M54.4344897,138.393701 C57.5643726,143.295965 57.3068868,146.268704 53.6267472,149.858268 C50.8420859,145.178779 50.9822727,142.724653 54.4344897,138.393701" id="Fill-115" fill="#509042"></path>
                    <path d="M64.9763238,18.8346457 C70.2177516,21.5492913 71.0301852,24.5478215 67.8567703,29.480315 C62.691662,26.8330919 61.8779975,23.8274646 64.9763238,18.8346457" id="Fill-116" fill="#509042"></path>
                    <path d="M108.278261,18.8346457 C107.48956,25.273089 105.53891,26.9951279 99.2846962,27.023622 C98.952334,21.1909896 101.383063,18.8767675 108.278261,18.8346457" id="Fill-117" fill="#509042"></path>
                    <path d="M247.557483,140.031496 C253.321935,142.262454 254.688702,145.375389 252.448821,150.677165 C247.08524,148.608482 246.00277,146.365137 247.557483,140.031496" id="Fill-118" fill="#509042"></path>
                    <path d="M26.2492754,70.712082 C28.3923767,64.9362167 30.9509534,63.6425573 36.0927536,65.4546406 C35.0118137,70.8152867 32.6363278,72.1329472 26.2492754,70.712082" id="Fill-119" fill="#509042"></path>
                    <path d="M137.808696,26.612216 C141.052811,22.5593309 143.464169,22.0400223 148.472464,24.1333959 C146.537975,28.0647609 143.431282,28.8366034 137.808696,26.612216" id="Fill-120" fill="#509042"></path>
                    <path d="M82.0289855,27.6656117 C86.2054353,24.5630519 88.8285834,24.6172658 92.6927536,27.8891254 C89.2322336,31.1762029 85.6097909,31.1001131 82.0289855,27.6656117" id="Fill-121" fill="#509042"></path>
                    <path d="M197.367911,146.582677 C198.248261,152.652743 197.619928,153.740573 191.691253,156.409449 C190.045729,150.756239 192.021954,147.336272 197.367911,146.582677" id="Fill-122" fill="#509042"></path>
                    <path d="M59.1674054,27.8425197 C64.5940822,29.8194827 65.9849037,32.9886601 63.8415547,38.488189 C58.4137003,36.4646944 57.10296,33.479128 59.1674054,27.8425197" id="Fill-123" fill="#509042"></path>
                    <path d="M209.683179,27.8425197 C210.635456,34.1224864 209.571147,35.9413607 204.10213,37.6692913 C202.403351,32.3315015 203.817476,29.7135351 209.683179,27.8425197" id="Fill-124" fill="#509042"></path>
                    <path d="M138.733712,38.488189 C138.158167,32.2269782 139.840424,30.3835635 146.644756,29.480315 C147.490591,35.3095908 145.574351,37.571404 138.733712,38.488189" id="Fill-125" fill="#509042"></path>
                    <path d="M121.402899,31.580313 C126.51096,29.0367641 129.713156,30.2366192 132.066667,35.5754349 C126.777094,38.0566537 123.998015,37.0150213 121.402899,31.580313" id="Fill-126" fill="#509042"></path>
                    <path d="M232.928437,157.228346 C227.274621,154.74695 226.063514,151.884185 228.22944,146.582677 C233.591208,148.385391 234.866684,151.120196 232.928437,157.228346" id="Fill-127" fill="#509042"></path>
                    <path d="M70.5449275,164.260125 C71.4855296,157.874242 73.5873063,156.058001 79.5681159,156.463223 C79.4857182,162.958661 76.4306628,165.598547 70.5449275,164.260125" id="Fill-128" fill="#509042"></path>
                    <path d="M173.751688,38.488189 C175.773366,44.3595718 174.751074,46.801137 169.586571,49.1338583 C166.783707,44.1245681 168.077244,40.7009347 173.751688,38.488189" id="Fill-129" fill="#509042"></path>
                    <path d="M200.150725,45.7653883 C201.248366,40.2589679 203.716861,38.6117577 209.173913,39.5594369 C208.706577,44.7357416 206.558027,46.2774046 200.150725,45.7653883" id="Fill-130" fill="#509042"></path>
                    <path d="M84.7415947,42.5826772 C88.0850025,47.6487613 87.7357642,49.9374684 82.9917396,54.0472441 C79.0048051,49.9795311 79.6043717,46.0404806 84.7415947,42.5826772" id="Fill-131" fill="#509042"></path>
                    <path d="M68.084058,47.9732956 C64.7118543,53.1049062 62.3481818,53.5930959 57.4202899,50.4229841 C59.8511978,45.243928 62.6843589,44.5359905 68.084058,47.9732956" id="Fill-132" fill="#509042"></path>
                    <path d="M136.168116,47.5234349 C132.866125,52.878728 130.535727,53.5698124 125.504348,50.8689669 C127.616197,45.5515247 130.662818,44.5173402 136.168116,47.5234349" id="Fill-133" fill="#509042"></path>
                    <path d="M27.0695652,54.6706676 C21.0284028,55.5428609 18.7745018,53.5930183 18.0463768,46.8633437 C23.9762979,45.9739185 26.5752998,48.2220036 27.0695652,54.6706676" id="Fill-134" fill="#509042"></path>
                    <path d="M183.744928,51.4181428 C178.38815,54.0207162 176.603375,53.8741728 172.26087,50.6064443 C175.263262,47.3196843 179.642516,47.5499668 183.744928,51.4181428" id="Fill-135" fill="#509042"></path>
                    <path d="M207.633371,49.1338583 C213.749301,49.1254088 215.894798,51.2767024 215.727202,57.2499625 C209.845374,57.831066 206.943034,54.9194952 207.633371,49.1338583" id="Fill-136" fill="#509042"></path>
                    <path d="M108.695607,59.7795276 C107.500375,53.761842 108.734277,51.64422 114.200708,49.9527559 C115.817787,55.7178591 114.506547,58.177844 108.695607,59.7795276" id="Fill-137" fill="#509042"></path>
                    <path d="M162.820817,63.0551181 C160.481153,57.5962615 161.369359,55.2089854 166.589073,52.4094488 C169.495601,56.9203459 168.4389,60.0973885 162.820817,63.0551181" id="Fill-138" fill="#509042"></path>
                    <path d="M74.6463768,55.7701789 C71.1441855,60.484785 68.7515993,60.9207459 63.9826087,57.7120734 C66.8294395,52.4768054 70.4252538,51.8216184 74.6463768,55.7701789" id="Fill-139" fill="#509042"></path>
                    <path d="M117.958305,55.6850394 C122.42368,60.2835382 122.488776,63.1810555 118.495351,67.1496063 C113.807146,63.3845397 113.630634,60.3810157 117.958305,55.6850394" id="Fill-140" fill="#509042"></path>
                    <path d="M31.9913043,60.3036609 C27.411862,64.2372578 24.2407266,63.9781886 20.5072464,59.3650043 C24.9485475,55.28748 28.0536685,55.5402915 31.9913043,60.3036609" id="Fill-141" fill="#509042"></path>
                    <path d="M69.7246377,64.3369719 C70.9733546,58.7194523 73.3663191,57.3153667 79.5681159,58.5640967 C78.6450978,63.925044 75.9817419,65.4868392 69.7246377,64.3369719" id="Fill-142" fill="#509042"></path>
                    <path d="M216.556522,62.2625409 C222.477926,60.2879237 225.370007,61.69954 227.22029,67.275483 C221.37624,68.8810349 219.171622,67.8890248 216.556522,62.2625409" id="Fill-143" fill="#509042"></path>
                    <path d="M248.346487,62.2362205 C249.07853,68.8043735 247.964198,70.6058271 242.507571,72.0629921 C241.085316,66.2270584 242.421585,63.8970491 248.346487,62.2362205" id="Fill-144" fill="#509042"></path>
                    <path d="M48.3971014,89.0598189 C49.6994791,83.4569253 51.6847962,82.1581028 57.4202899,82.8983986 C57.0368852,88.0000502 54.3111179,89.9257006 48.3971014,89.0598189" id="Fill-145" fill="#509042"></path>
                    <path d="M255.930435,94.5420176 C260.034962,90.9106645 263.074156,90.8227406 267.414493,94.0296006 C263.428469,97.3253301 260.781893,97.4794333 255.930435,94.5420176" id="Fill-146" fill="#509042"></path>
                    <path d="M253.323241,91.7165354 C248.553778,88.3176719 248.134254,85.0047312 251.867899,80.2519685 C256.826705,84.2817515 257.16579,86.9576354 253.323241,91.7165354" id="Fill-147" fill="#509042"></path>
                    <path d="M223.372297,96.6299213 C226.787979,101.333929 226.321536,103.605469 221.400017,107.275591 C217.713774,103.376231 218.254896,100.127536 223.372297,96.6299213" id="Fill-148" fill="#509042"></path>
                    <path d="M264.244727,106.456693 C263.591568,100.475793 265.761614,97.9742462 272.057164,97.4488189 C273.198517,103.515582 270.886304,106.179882 264.244727,106.456693" id="Fill-149" fill="#509042"></path>
                    <path d="M34.1271836,111.370079 C31.01866,106.376362 31.2934202,103.443677 35.0156067,99.9055118 C37.7574643,104.352498 37.5841835,107.060975 34.1271836,111.370079" id="Fill-150" fill="#509042"></path>
                    <path d="M57.4202899,35.931177 C51.60942,37.886944 49.1607212,36.8482409 46.7565217,31.5927134 C51.6823495,28.9798564 55.050701,30.2761483 57.4202899,35.931177" id="Fill-151" fill="#509042"></path>
                    <path d="M85.3101449,103.32916 C80.2939376,106.822752 77.6293439,106.406521 73.826087,101.702984 C78.0190468,97.8081611 81.1963435,98.1906437 85.3101449,103.32916" id="Fill-152" fill="#509042"></path>
                    <path d="M65.6231884,112.972253 C58.9914735,113.346877 56.2656986,110.775479 56.6324535,104.837565 C62.7035573,104.603106 64.910636,106.536114 65.6231884,112.972253" id="Fill-153" fill="#509042"></path>
                    <path d="M150.933333,76.6977376 C146.414955,80.681591 143.262081,80.3461613 139.449275,75.478676 C143.988624,71.6662923 147.452344,72.0342637 150.933333,76.6977376" id="Fill-154" fill="#509042"></path>
                    <path d="M239.524638,114.877759 C234.605384,118.300378 231.789056,117.820697 228.04058,113.111996 C231.917071,109.243959 235.287716,109.699166 239.524638,114.877759" id="Fill-155" fill="#509042"></path>
                    <path d="M255.110145,76.291418 C250.864743,79.9066599 247.640949,79.3267746 244.446377,74.3759259 C248.789966,70.7793901 251.95064,71.3468047 255.110145,76.291418" id="Fill-156" fill="#509042"></path>
                    <path d="M218.197101,117.950682 C222.6959,113.535887 225.355529,113.565843 229.681159,117.909492 C225.924,122.250645 223.006409,122.320543 218.197101,117.950682" id="Fill-157" fill="#509042"></path>
                    <path d="M36.9572789,116.283465 C41.272917,120.947423 41.2440204,123.424403 37.045225,127.748031 C32.5423875,123.735972 32.4757998,120.724531 36.9572789,116.283465" id="Fill-158" fill="#509042"></path>
                    <path d="M196.869565,80.2519685 C190.282285,79.8725433 188.681881,78.4140882 187.846377,72.295384 C193.959028,71.250389 196.860413,73.6996355 196.869565,80.2519685" id="Fill-159" fill="#509042"></path>
                    <path d="M193.588406,118.206528 C198.885331,115.307496 201.906868,115.668219 205.072464,119.410828 C200.579558,122.076952 197.763643,121.824163 193.588406,118.206528" id="Fill-160" fill="#509042"></path>
                    <path d="M29.5304348,77.0493116 C31.8694542,71.4128227 34.2662583,70.3095867 40.1942029,71.9181216 C38.5033757,77.4523476 35.678212,78.8623722 29.5304348,77.0493116" id="Fill-161" fill="#509042"></path>
                    <path d="M13.1246377,72.588348 C17.7643913,69.5799945 20.5880614,69.7143297 24.6086957,72.9610811 C20.810216,76.2172928 17.7328284,76.1624234 13.1246377,72.588348" id="Fill-162" fill="#509042"></path>
                    <path d="M231.321739,120.718795 C237.558027,119.601588 240.167111,121.1501 241.165217,126.564081 C234.8789,127.702214 232.507459,126.293207 231.321739,120.718795" id="Fill-163" fill="#509042"></path>
                    <path d="M15.696147,121.19685 C22.6612879,122.535942 24.2962786,124.443318 23.6632059,130.204724 C17.3150426,130.008341 15.0322254,127.52286 15.696147,121.19685" id="Fill-164" fill="#509042"></path>
                    <path d="M228.86087,123.001186 C228.597323,129.024312 226.638501,130.948034 220.694616,131.023622 C220.295007,124.918609 223.173176,122.092867 228.86087,123.001186" id="Fill-165" fill="#509042"></path>
                    <path d="M26.6966717,148.220472 C23.136975,143.982839 22.9232974,141.235074 25.6273254,136.755906 C29.3709957,140.276106 29.6776183,143.105181 26.6966717,148.220472" id="Fill-166" fill="#509042"></path>
                    <path d="M91.4277273,72.0629921 C85.7738841,70.5781609 84.5095565,68.393076 85.7405518,62.2362205 C91.3966938,63.8004871 92.6932043,66.0405657 91.4277273,72.0629921" id="Fill-167" fill="#509042"></path>
                    <path d="M133.454557,22.9291339 C127.767994,21.580873 126.35159,19.1229374 127.527077,13.1023622 C132.912204,14.1474197 134.364687,16.4773637 133.454557,22.9291339" id="Fill-168" fill="#509042"></path>
                    <path d="M80.3884058,17.4069543 C86.2954036,15.3424947 88.56082,16.2406135 91.0521739,21.4145062 C86.2253267,24.260572 83.1963139,23.1888978 80.3884058,17.4069543" id="Fill-169" fill="#509042"></path>
                    <path d="M183.692897,28.6614173 C178.049627,26.165448 177.375341,24.8625355 178.404639,18.8346457 C183.875169,19.4961425 185.887304,23.0930315 183.692897,28.6614173" id="Fill-170" fill="#509042"></path>
                    <path d="M118.942029,27.2610086 C112.488107,28.7046091 110.31833,27.6246451 108.278261,22.1591515 C114.242314,20.1585425 117.245749,21.5194431 118.942029,27.2610086" id="Fill-171" fill="#509042"></path>
                    <path d="M149.522356,26.2047244 C154.936981,26.8516073 156.870776,29.8353104 155.356825,35.2125984 C150.173799,34.2866216 148.654145,31.9403407 149.522356,26.2047244" id="Fill-172" fill="#509042"></path>
                    <path d="M222.347611,42.5826772 C218.525743,38.9821568 218.105005,36.3158318 220.514257,31.9370079 C224.367537,34.4786196 224.95581,37.6172386 222.347611,42.5826772" id="Fill-173" fill="#509042"></path>
                    <path d="M29.5280111,47.496063 C35.2756811,50.2905355 36.120343,52.1526783 34.6195487,58.1417323 C29.1571536,57.033254 27.5385284,53.7732458 29.5280111,47.496063" id="Fill-174" fill="#509042"></path>
                    <path d="M97.1423886,102.362205 C96.0987949,96.3007526 97.2449989,94.3438488 102.720659,92.5354331 C104.354262,98.272143 102.959695,100.868873 97.1423886,102.362205" id="Fill-175" fill="#509042"></path>
                    <path d="M249.458532,124.472441 C254.792197,125.358347 256.137179,127.297286 255.905855,133.42323 C251.091017,133.93718 248.879121,130.982905 249.458532,124.472441" id="Fill-176" fill="#509042"></path>
                    <path d="M181.284058,105.017438 C185.4283,100.686837 187.988959,100.463765 192.768116,104.019219 C189.215556,109.117489 185.83593,109.411596 181.284058,105.017438" id="Fill-177" fill="#509042"></path>
                    <path d="M147.652174,97.6015576 C150.20332,92.2503108 153.13374,91.2703146 158.315942,94.0393881 C155.791035,99.3426802 152.761623,100.354646 147.652174,97.6015576" id="Fill-178" fill="#509042"></path>
                    <path d="M208.353623,113.701996 C203.943601,116.43623 200.601122,116.001368 197.689855,112.313088 C202.443681,109.596855 205.481981,109.991926 208.353623,113.701996" id="Fill-179" fill="#509042"></path>
                    <path d="M184.469819,120.377953 C182.059797,115.579049 182.434795,112.979838 185.835341,109.732283 C188.890245,113.178429 188.487786,116.706348 184.469819,120.377953" id="Fill-180" fill="#509042"></path>
                    <path d="M44.3923887,49.1338583 C46.0080989,55.2956179 45.0870603,57.3772085 39.9033732,59.7795276 C37.1857702,54.831505 38.5176233,51.4871247 44.3923887,49.1338583" id="Fill-181" fill="#509042"></path>
                    <path d="M156.225903,141.669291 C152.234005,138.759865 151.693485,136.263397 153.737238,131.023622 C157.737656,133.159775 158.506312,136.248189 156.225903,141.669291" id="Fill-182" fill="#509042"></path>
                    <path d="M224.64688,78.6141732 C227.245543,83.6474086 226.996876,85.7973936 223.621841,89.2598425 C220.452763,85.2425214 220.800137,81.3479904 224.64688,78.6141732" id="Fill-183" fill="#509042"></path>
                    <path d="M156.675362,61.5563488 C151.76594,65.0707852 148.873987,64.6258725 145.191304,59.9648824 C149.148649,56.0317046 152.54189,56.4317522 156.675362,61.5563488" id="Fill-184" fill="#509042"></path>
                    <path d="M248.803848,97.4488189 C242.937206,95.1955906 241.618164,92.2291903 243.788393,86.8031496 C249.233608,89.0254779 250.180032,90.9622901 248.803848,97.4488189" id="Fill-185" fill="#509042"></path>
                    <path d="M29.7055917,83.5275591 C34.5975786,83.7860429 36.253328,86.1047951 36.0806697,92.4528543 C31.2727984,93.1206043 28.8312321,89.7020287 29.7055917,83.5275591" id="Fill-186" fill="#509042"></path>
                    <path d="M11.484058,138.277081 C6.11347767,140.931112 3.2986124,140.602108 0,137.09783 C4.38457532,134.154964 7.66097484,134.448581 11.484058,138.277081" id="Fill-187" fill="#509042"></path>
                    <path d="M156.675362,53.1652405 C153.95043,58.487131 150.845804,59.4530822 146.011594,56.4819579 C148.457446,51.294397 151.629147,50.308907 156.675362,53.1652405" id="Fill-188" fill="#509042"></path>
                    <path d="M77.7342547,131.84252 C78.4792221,138.04936 77.1746548,140.196208 71.9960242,141.669291 C70.2810837,135.82171 72.0205066,132.721397 77.7342547,131.84252" id="Fill-189" fill="#509042"></path>
                    <path d="M10.6676134,84.390682 C16.9683274,83.9967776 19.4740678,86.2013294 19.6869565,92.3252306 C13.556818,93.338878 10.5406735,90.685275 10.6676134,84.390682" id="Fill-190" fill="#509042"></path>
                    <path d="M140.285688,81.8897638 C145.628548,84.9739354 146.345425,87.3967106 143.698974,92.5354331 C138.30366,90.1724651 137.297034,87.1938354 140.285688,81.8897638" id="Fill-191" fill="#509042"></path>
                    <path d="M256.920333,121.19685 C262.030572,121.251294 264.103241,124.302587 263.043828,130.204724 C257.832484,129.324972 256.174129,126.886164 256.920333,121.19685" id="Fill-192" fill="#509042"></path>
                    <path d="M196.869565,53.6341197 C195.134924,59.3061921 192.646569,60.659875 187.026087,59.2803405 C187.881192,53.8961608 190.407416,52.4002941 196.869565,53.6341197" id="Fill-193" fill="#509042"></path>
                    <path d="M224.551367,149.03937 C218.824801,147.356214 217.671762,145.439774 218.386305,139.212598 C223.730041,139.914959 225.39655,142.473556 224.551367,149.03937" id="Fill-194" fill="#509042"></path>
                    <path d="M137.808696,101.700042 C136.377943,107.402622 133.906176,108.867537 127.965217,107.744094 C128.742132,102.495671 131.061336,101.014821 137.808696,101.700042" id="Fill-195" fill="#509042"></path>
                    <path d="M38.8332318,145.76378 C41.449444,150.86268 40.3573332,153.900659 35.0047766,156.409449 C32.3885645,151.206167 33.4297101,148.312623 38.8332318,145.76378" id="Fill-196" fill="#509042"></path>
                    <path d="M242.427611,123.653543 C238.246819,118.782823 238.577772,115.745844 243.446796,112.188976 C247.211389,116.613552 247.018333,119.386286 242.427611,123.653543" id="Fill-197" fill="#509042"></path>
                    <path d="M72.2574264,47.4863498 C71.7491005,41.2960884 73.8878052,38.8720404 80.1945157,38.488189 C81.1711419,44.6074642 78.4480625,47.6927357 72.2574264,47.4863498" id="Fill-198" fill="#509042"></path>
                    <path d="M164.878261,115.125553 C161.591499,118.56483 159.096473,118.780676 154.214493,116.049794 C156.533316,112.36044 160.748077,111.996258 164.878261,115.125553" id="Fill-199" fill="#509042"></path>
                    <path d="M117.621073,171.968504 C114.520662,166.678404 114.942936,164.832876 120.003992,160.503937 C123.560309,164.770946 122.89638,168.282403 117.621073,171.968504" id="Fill-200" fill="#509042"></path>
                    <path d="M109.418921,170.330709 C106.317516,165.039942 106.739756,163.194613 111.801648,158.866142 C115.357677,163.13269 114.692556,166.643767 109.418921,170.330709" id="Fill-201" fill="#509042"></path>
                    <path d="M106.637681,70.4639518 C101.613175,74.0674319 99.1101602,73.7027274 95.1536232,68.9690366 C99.3565199,65.0643329 102.793238,65.4377506 106.637681,70.4639518" id="Fill-202" fill="#509042"></path>
                    <path d="M21.4497552,84.3464567 C27.1159451,85.7193017 28.659335,88.0700145 27.5583537,93.3543307 C22.416334,92.8253006 20.8460635,90.60505 21.4497552,84.3464567" id="Fill-203" fill="#509042"></path>
                    <path d="M128.785695,55.7756837 C134.867339,55.1977594 137.316532,57.3325686 137.808696,63.6438263 C131.672797,64.6957025 128.758568,62.1544559 128.785695,55.7756837" id="Fill-204" fill="#509042"></path>
                    <path d="M204.64246,54.0472441 C208.666677,56.9236209 209.252728,59.5634536 207.197261,64.6929134 C203.242608,62.6822881 202.424042,59.4629223 204.64246,54.0472441" id="Fill-205" fill="#509042"></path>
                    <path d="M242.334742,60.5984252 C241.32983,54.7030873 242.307582,52.979686 247.726549,50.7716535 C249.726925,56.0566704 248.12686,59.1396977 242.334742,60.5984252" id="Fill-206" fill="#509042"></path>
                    <path d="M78.7478261,109.059133 C84.8033765,108.322377 87.1095058,110.300194 87.7710145,116.794421 C81.881495,118.010529 79.1426396,115.663677 78.7478261,109.059133" id="Fill-207" fill="#509042"></path>
                    <path d="M172.26087,134.860834 C177.404712,132.222768 180.408522,133.296821 182.924638,138.676738 C177.607312,141.270152 174.659308,140.215409 172.26087,134.860834" id="Fill-208" fill="#509042"></path>
                    <path d="M111.55942,7.36446636 C117.512805,5.54655937 119.942476,6.64553377 122.223188,11.9903256 C116.759243,14.317779 113.772537,13.0917206 111.55942,7.36446636" id="Fill-209" fill="#509042"></path>
                    <path d="M102.536232,139.212598 C106.394319,141.201163 107.803437,143.564437 107.38789,147.087411 C107.263816,148.135647 106.417952,149.636853 105.694191,149.837251 C105.017697,150.024605 103.493368,148.919452 103.338769,148.108373 C102.84543,145.526915 102.816874,142.817391 102.536232,139.212598" id="Fill-210" fill="#509042"></path>
                    <path d="M190.984061,89.2598425 C185.415594,88.269448 183.955541,85.8873562 184.777684,79.4330709 C189.977684,80.02988 191.664574,82.5766088 190.984061,89.2598425" id="Fill-211" fill="#509042"></path>
                    <path d="M214.302295,101.543307 C217.843578,106.183166 217.259755,109.38918 212.215622,113.007874 C208.727527,108.215583 209.291559,105.113669 214.302295,101.543307" id="Fill-212" fill="#509042"></path>
                    <path d="M94.3964966,52.4094488 C88.8427243,49.4811574 88.0487915,46.3653803 91.4211273,41.7637795 C96.3863375,44.3405354 97.1489637,46.8997144 94.3964966,52.4094488" id="Fill-213" fill="#509042"></path>
                    <path d="M53.3188406,42.4251703 C56.7023473,38.8046243 59.0015597,38.449077 63.9826087,40.7785244 C61.336607,44.7385851 57.8710269,45.2733206 53.3188406,42.4251703" id="Fill-214" fill="#509042"></path>
                    <path d="M114.02029,76.8816524 C109.935101,80.6887496 106.68727,80.2532651 103.356522,75.4542994 C107.487257,71.6348655 110.467647,72.0345737 114.02029,76.8816524" id="Fill-215" fill="#509042"></path>
                    <path d="M222.298551,92.6609302 C217.246067,95.2170427 213.872311,94.522602 211.634783,90.6556138 C216.199481,88.3573005 218.79208,88.8110652 222.298551,92.6609302" id="Fill-216" fill="#509042"></path>
                    <path d="M177.976405,113.007874 C181.788709,115.865073 182.236993,118.676002 179.674966,123.653543 C175.854149,120.467824 175.408703,117.674247 177.976405,113.007874" id="Fill-217" fill="#509042"></path>
                    <path d="M195.140321,108.913386 C193.47418,102.875343 194.478943,100.775526 199.973098,98.2677165 C202.144643,103.751183 200.876296,106.673092 195.140321,108.913386" id="Fill-218" fill="#509042"></path>
                    <path d="M47.8127725,148.220472 C50.8714274,152.948217 50.7749279,155.504448 47.5327348,159.685039 C44.2489144,156.200602 44.2820269,152.824863 47.8127725,148.220472" id="Fill-219" fill="#509042"></path>
                    <path d="M226.914845,95.8110236 C232.749424,98.174545 233.965109,100.534494 232.242889,105.637795 C227.016152,104.725726 225.468275,101.976421 226.914845,95.8110236" id="Fill-220" fill="#509042"></path>
                    <path d="M185.362246,45.8582677 C178.782377,45.3868667 176.691653,42.9898249 177.276142,36.8525714 C183.313175,36.7660402 185.648444,39.2496132 185.362246,45.8582677" id="Fill-221" fill="#509042"></path>
                    <path d="M271.515942,122.08195 C266.559522,125.798956 263.228541,125.191971 260.031884,120.185901 C265.064709,116.754241 267.388878,117.095905 271.515942,122.08195" id="Fill-222" fill="#509042"></path>
                    <path d="M84.713337,167.055118 C81.9923305,161.703728 82.1861173,159.938158 85.7182314,156.409449 C88.7039466,160.752289 88.4861862,163.542205 84.713337,167.055118" id="Fill-223" fill="#509042"></path>
                    <path d="M103.216228,157.228346 C105.325768,162.53618 104.02768,165.568871 98.6572004,167.874016 C96.545332,162.421173 97.4382775,160.333542 103.216228,157.228346" id="Fill-224" fill="#509042"></path>
                    <path d="M64.8028986,100.213472 C59.497772,102.594438 57.3381419,101.914853 54.1391304,97.062229 C57.8566434,93.4720373 61.8357856,94.5700144 64.8028986,100.213472" id="Fill-225" fill="#509042"></path>
                    <path d="M155.855072,70.5801595 C150.809529,74.0858529 148.10315,73.6363415 144.371014,68.8923248 C148.865734,65.0696206 151.706759,65.4398793 155.855072,70.5801595" id="Fill-226" fill="#509042"></path>
                    <path d="M123.043478,38.6047242 C116.870507,40.2449291 114.565164,39.1591426 112.37971,33.7860159 C118.058145,31.5622767 121.050344,32.8373176 123.043478,38.6047242" id="Fill-227" fill="#509042"></path>
                    <path d="M241.985507,131.268844 C248.350089,130.388639 250.656596,131.77099 251.828986,137.16355 C245.539671,138.462404 242.653986,136.734465 241.985507,131.268844" id="Fill-228" fill="#509042"></path>
                    <path d="M239.397498,38.488189 C240.00341,44.6541286 238.528242,46.6906078 233.139751,47.496063 C232.394357,41.6270598 233.907464,39.3729875 239.397498,38.488189" id="Fill-229" fill="#509042"></path>
                    <path d="M42.7279595,117.92126 C48.4159359,120.248438 49.3078486,122.120705 47.6578726,127.748031 C42.2413479,127.02532 40.6176415,123.950872 42.7279595,117.92126" id="Fill-230" fill="#509042"></path>
                    <path d="M7.62053172,159.685039 C6.78602959,153.483293 8.03082861,151.373037 13.2082189,149.858268 C15.1206196,155.232535 13.3275991,158.533765 7.62053172,159.685039" id="Fill-231" fill="#509042"></path>
                    <path d="M81.9826805,98.2485323 C76.2573436,98.4890005 74.2209805,96.5041413 73.826087,90.2944816 C79.7358726,89.2701668 82.4221388,91.888746 81.9826805,98.2485323" id="Fill-232" fill="#509042"></path>
                    <path d="M203.62653,142.488189 C205.556924,145.052375 206.702137,147.805336 205.209338,151.222637 C204.829196,152.092694 203.798886,153.274954 203.294264,153.120063 C202.497594,152.876834 201.525694,151.77323 201.276734,150.773693 C200.451338,147.46651 201.317908,144.686927 203.62653,142.488189" id="Fill-233" fill="#509042"></path>
                    <path d="M65.6231884,115.558329 C71.8840984,114.97489 74.1694641,117.054979 74.6463768,123.468811 C68.7975194,124.335292 66.3035839,122.228501 65.6231884,115.558329" id="Fill-234" fill="#509042"></path>
                    <path d="M141.089855,129.32563 C144.256809,125.567692 147.591288,125.139681 152.573913,127.853272 C149.360151,131.579823 146.429702,131.955521 141.089855,129.32563" id="Fill-235" fill="#509042"></path>
                    <path d="M80.3884058,152.886961 C75.5765201,153.80236 73.3390775,152.266636 71.3652174,146.691534 C76.7078789,146.152801 78.7009961,147.520869 80.3884058,152.886961" id="Fill-236" fill="#509042"></path>
                    <path d="M229.955789,76.976378 C235.082885,77.5399935 236.818937,80.0924739 236.081509,85.984252 C230.948784,85.9805112 228.885111,82.9442192 229.955789,76.976378" id="Fill-237" fill="#509042"></path>
                    <path d="M20.6703246,109.732283 C19.8639954,103.839819 21.987555,101.360259 28.3880477,100.724409 C29.6470055,106.64241 27.2442798,109.446279 20.6703246,109.732283" id="Fill-238" fill="#509042"></path>
                    <path d="M65.6231884,103.233493 C72.1330448,102.799175 74.5575942,105.03149 74.6463768,111.192467 C68.7658327,112.03074 66.3673958,109.987202 65.6231884,103.233493" id="Fill-239" fill="#509042"></path>
                    <path d="M78.2554953,165.417323 C80.4578947,170.384284 79.9326531,173.314662 76.3473517,176.062992 C73.6267406,171.083112 74.1037765,168.426392 78.2554953,165.417323" id="Fill-240" fill="#509042"></path>
                    <path d="M181.81537,160.503937 C179.542577,155.63225 180.092247,152.927726 183.797887,149.858268 C186.283754,155.790506 186.015095,157.371885 181.81537,160.503937" id="Fill-241" fill="#509042"></path>
                    <path d="M62.342029,156.655202 C65.6069631,152.698537 67.2339541,152.333277 72.1855072,154.285793 C70.2250865,158.314171 67.153639,159.111624 62.342029,156.655202" id="Fill-242" fill="#509042"></path>
                    <path d="M68.9043478,162.150421 C68.2709721,167.487517 67.397907,168.155607 60.7014493,168.692913 C60.6866077,164.218995 63.3840433,161.983671 68.9043478,162.150421" id="Fill-243" fill="#509042"></path>
                    <path d="M88.143223,150.677165 C83.6143935,146.869931 82.8366635,144.505953 84.4200473,140.031496 C88.3624767,141.6302 89.2684494,144.113751 88.143223,150.677165" id="Fill-244" fill="#509042"></path>
                    <path d="M168.132741,77.4543599 C170.062938,79.1325004 172.625279,80.0897823 175.17598,81.4874601 C174.965265,88.4364455 170.974484,94.0178854 165.171088,97.6094307 C157.735524,102.21041 149.563039,105.629274 141.368435,109.728433 C143.014573,100.353793 146.920369,92.5332873 152.96242,85.6909241 C145.695661,90.8284911 141.109988,97.8261519 138.192574,105.966524 C137.043537,109.172144 136.540615,112.651272 135.087728,115.69464 C132.370552,121.387338 129.174901,126.854043 126.067726,132.619754 C125.146867,129.261155 123.11888,125.454047 123.284192,121.74545 C123.667204,113.211039 125.132897,104.724144 126.128263,96.2152296 C127.071242,88.1745258 130.29949,81.581334 136.494048,75.9338347 C139.442895,73.2451012 141.204286,68.551407 142.069266,64.4661546 C143.70027,56.7789264 146.237,49.8519609 151.882069,44.1372432 C156.085893,39.8816271 158.631936,34.672206 159.105754,28.5124566 C157.047498,39.0066298 147.181144,43.7107545 141.905118,52.5928465 C139.092479,43.1834382 133.370575,35.3374357 134.143585,25.5073333 C133.526574,28.1844775 133.112129,30.9068201 133.616215,33.4483687 C134.568508,38.2556387 135.889843,43.0072798 137.336908,47.6974973 C141.717686,61.8909969 138.241469,71.0570284 126.345963,78.2018741 C121.465756,73.9787082 117.068679,69.7172974 112.202442,66.0759179 C106.117317,61.522455 101.816866,56.0290943 100.345353,48.4960047 C99.4547621,43.9379061 98.5257532,39.3867611 97.5268939,34.8518412 C96.4069607,29.7745388 95.1892372,24.7180974 94.014588,19.6535433 C93.6304113,19.7427814 93.2462347,19.8308606 92.8632222,19.9200988 C94.9226419,33.1771774 96.9820615,46.4342561 99.0310037,59.6217985 C88.1599687,58.6274307 77.5811408,55.5098906 69.6903853,46.1549523 C69.7788623,47.0670356 70.0943528,47.6117359 70.4703803,48.1077609 C75.9513005,55.3198249 83.340298,59.7133545 92.1053464,61.3358661 C102.490922,63.2585424 109.891561,69.5469337 116.591369,76.8748914 C118.391178,78.8427662 119.728812,81.9000416 119.903437,84.5482123 C120.53209,94.0677196 116.556444,102.714547 113.636701,111.775116 C111.888115,107.673638 110.68669,103.548982 109.967232,99.3420413 C109.393296,95.9927138 109.670368,92.4985191 109.099924,89.1480327 C108.1779,83.7334797 103.608527,78.5518731 98.7737217,77.4555188 C105.769229,82.9094756 107.814679,89.5478659 106.725014,97.7658871 C105.851885,104.350966 106.705223,111.134224 111.287403,116.400433 C114.57386,120.176249 113.939386,124.185012 114.171056,129.349234 C107.261697,123.305379 100.568874,118.538671 97.1951049,110.598795 C94.4173914,104.062391 91.5244248,97.5595964 88.3148035,91.2260065 C84.5591857,83.8111285 78.6417012,79.1974009 70.0314876,78.2690925 C66.3829736,77.8750539 62.6646093,77.1878044 59.2279745,75.9489009 C49.7551097,72.5300372 41.049434,67.8282304 34.6616241,59.6078913 C37.4044125,66.0701232 42.0680842,70.9562009 48.0542549,74.3472502 C54.0474106,77.7440941 60.4375489,80.4467348 66.2514222,83.2594746 C55.4397599,89.6904152 44.2800104,96.7738372 30.3518606,96.4945334 C40.2298572,97.8829398 49.4337983,95.9440384 58.2733538,91.6443827 C61.8298982,89.91409 65.5191582,88.335618 69.3085369,87.2299922 C75.1119327,85.5379444 79.14928,86.7583049 81.2191772,91.4774958 C85.6209103,101.515048 89.4545276,111.799453 93.6676648,122.349256 C83.8665036,121.236676 75.0688583,123.847761 66.4993907,127.350068 C58.3082789,130.695919 50.4361501,132.064623 41.3858796,129.370095 C31.5788975,126.450733 23.1689215,131.684492 15.5855072,137.570732 C16.7846041,137.367918 17.8579703,136.832489 18.9103815,136.255339 C27.7289819,131.416778 36.6372234,129.465128 46.4639964,133.792598 C49.4873502,135.124217 53.5340109,135.184481 56.8740194,134.562132 C63.9975858,133.235149 70.909273,130.808336 78.0118843,129.328373 C89.0377541,127.031361 99.3010915,128.415131 107.934589,136.533484 C111.271105,139.670726 114.684456,142.72916 118.135061,145.745873 L118.22703,145.833952 C120.875521,148.166892 126.595096,154.689389 126.595096,154.689389 L126.603245,154.691706 C123.008283,154.096013 119.409829,153.526975 115.823016,152.886083 C111.253642,152.069032 106.615582,151.479133 102.152148,150.265727 C94.3906154,148.155303 87.6686882,150.081456 81.427564,154.604786 C82.7326004,154.450648 84.0620844,154.14237 85.1482566,153.452803 C89.2053948,150.877645 93.4348305,151.138406 97.7865042,152.399329 C103.291872,153.994026 108.714584,156.091702 114.332876,157.043189 C127.345987,159.246328 134.778059,167.200112 137.205357,179.403717 C141.059929,198.783459 135.424174,216.384233 125.272597,232.866633 C118.307358,244.17438 100.242906,244.278684 91.695558,240.33714 C84.4439327,236.993607 78.5485674,237.25205 72.7929027,242.417431 C69.0058523,245.816593 64.8299686,246.498048 60.201222,244.706332 C57.6551786,243.722394 55.1324186,242.634153 52.7144341,241.37207 C47.132231,238.460821 41.7444445,239.420421 36.2774944,242.025711 C46.5454884,238.224398 53.2394755,246.207155 61.8275698,250.280818 C57.4724037,252.091077 53.1172375,253.901337 48.5676546,255.792722 C54.28723,255.69653 59.5911961,254.955969 64.4760604,251.982137 C68.5727805,249.488105 72.7277091,247.001027 77.1189646,245.113119 C79.034027,244.290273 81.2203414,244.093254 83.3903574,243.85799 C80.9816862,247.045066 78.3320315,250.102342 76.4484018,253.57104 C73.1980345,259.55579 68.4586916,261.170189 62.0499266,260.367045 C56.5399022,259.676319 52.7947619,261.043864 50.9064755,262.927137 C56.4700519,262.927137 63.0010549,262.927137 70.4447685,262.927137 C69.1059711,264.72233 68.4912884,266.283418 67.3527286,266.933582 C63.720513,269.00692 60.0428947,271.185721 56.1056661,272.503432 C50.299942,274.448128 45.1543033,277.464841 42.832945,281.794629 C49.3592913,274.780743 58.7332016,275.164351 66.7624935,272.226446 C67.918516,276.975769 66.0313937,279.96235 61.7169735,282.143469 C59.2826906,283.37426 57.3815983,285.649253 55.2395224,287.452559 C58.3955918,285.985344 61.3071851,284.5726 63.8974671,282.715984 C65.8963498,281.284697 68.8347191,279.43851 69.0384491,277.5309 C70.0175175,268.401955 75.83954,262.111245 81.1202226,255.556298 C86.2018319,249.247046 95.2008789,247.413608 102.622473,250.603002 C98.7096923,254.480805 94.6874792,257.5601 88.6035181,257.053645 C84.0201742,256.672355 80.6720165,260.25347 80.3704961,264.923985 C80.2715415,266.465371 80.3553619,268.018346 80.3553619,270.606252 C84.3193664,258.307615 85.2297486,257.671358 94.1694228,260.07847 C93.5000241,265.993684 85.3799267,267.072654 85.1144956,273.416674 C86.7746044,271.678269 88.2728933,270.032579 89.8550026,268.470332 C91.973795,266.377292 94.604823,264.64584 96.2206933,262.231775 C100.011236,256.573845 105.204606,253.049518 111.547013,251.110617 C115.701942,249.840422 119.987258,248.99208 124.88842,247.790263 C121.387756,254.287263 118.380701,260.186251 111.346776,262.982766 C104.642311,265.64948 99.501329,270.171651 96.551318,277.045306 C94.2544073,282.396117 90.2426718,286.091967 84.6336927,288.297424 C80.4473314,289.943114 76.8779811,292.685158 75.6358099,297.510971 C80.037543,289.189805 90.644311,290.762482 96.6071983,284.362833 C96.4383934,287.755041 96.5955565,291.735989 94.6746733,293.657506 C89.1157536,299.211132 89.8258983,305.427669 91.0017117,312 C91.2764562,312 91.5512007,312 91.8259452,312 C91.4766937,307.100015 90.1879557,301.523211 94.1379902,297.950209 C98.7830351,293.747904 99.6596564,288.778382 99.9635052,283.244459 C100.39192,275.467993 104.397835,270.73953 112.340978,268.645331 C111.089494,279.006227 113.239719,281.292809 105.612066,287.77822 C102.868113,290.11116 102.712114,293.222905 104.5387,296.343922 C105.013682,297.155178 105.531738,297.942096 106.04281,298.73365 C102.593369,292.028041 107.253548,287.746928 113.311897,283.834358 C115.133826,287.559181 117.039575,291.455526 118.946488,295.353031 C117.859152,289.537486 115.696121,283.847106 115.194363,278.016495 C114.661172,271.838202 117.866137,266.67398 122.829001,262.58525 C125.380865,269.037052 127.746462,275.019484 129.961881,280.621785 C131.447364,277.512357 130.022417,273.9776 128.281981,270.812543 C125.801131,266.297325 125.802295,261.821511 127.829118,257.433776 C129.900179,252.948691 132.556819,248.731319 135.516144,243.389779 C135.285638,246.944239 134.915431,249.26443 135.045818,251.557966 C135.184355,253.994052 135.377607,256.577322 136.29381,258.788573 C137.799084,262.422999 139.914384,265.804777 141.759596,269.30129 C144.869099,275.193325 144.231133,279.094306 139.392835,283.609524 C137.589533,285.2923 135.64071,286.827892 133.922393,288.589476 C131.412438,291.15768 131.404289,293.412971 133.640663,296.516604 C133.015503,291.238805 135.038833,288.72623 142.729351,285.565809 C143.34287,291.598076 150.680644,297.100708 142.82947,303.481814 C147.929706,300.16146 148.663134,297.564283 147.289412,292.34559 C146.403477,288.983514 145.564109,285.410512 145.8016,282.007873 C146.03327,278.687519 147.658454,275.463357 148.693403,272.126778 C154.531723,276.580572 163.354981,278.343315 163.900977,288.18153 C164.417869,282.101747 161.59941,278.198448 156.991618,274.592995 C152.329111,270.943503 148.071735,266.512887 144.560593,261.748498 C140.759573,256.592388 141.562851,248.45781 145.632795,243.438455 C150.111364,255.709278 159.46199,263.111408 170.093206,269.272316 C170.682277,269.614203 171.35284,269.980427 171.716061,270.517014 C173.506557,273.155914 175.437918,275.740343 176.881491,278.565831 C178.794225,282.313833 179.854785,286.555541 182.128413,290.038147 C183.918909,292.783668 186.901517,294.19873 190.215913,296.236141 C190.520926,295.92091 190.097168,296.358988 190.402181,296.042598 C182.591753,291.08119 180.400782,283.443796 179.682488,274.722796 C186.991158,275.101769 193.897024,275.461039 200.801726,275.817991 C196.587425,274.44581 192.153095,273.707567 187.747869,272.819822 C184.695411,272.205585 181.145852,272.155751 178.761628,270.503107 C172.741697,266.333252 167.254956,261.398499 160.721624,256.094045 C162.367763,256.298018 162.87767,256.343217 163.382921,256.427819 C170.360966,257.600663 177.301757,259.132778 184.326369,259.846683 C190.154212,260.440058 195.326627,261.373003 198.92741,266.689046 C201.096262,269.893506 204.535225,271.29582 207.804219,270.80559 C205.734322,269.56205 202.483954,268.608245 200.89486,266.445669 C197.54321,261.885253 193.721234,258.423508 187.229813,257.235598 C195.171792,251.438596 201.684168,252.919717 207.924128,258.610097 C202.138195,250.439592 195.054211,249.062775 185.913135,253.819052 C184.140101,254.741566 181.933996,256.174012 180.301827,255.790404 C174.716132,254.473851 169.299241,252.454983 163.087221,250.470884 C171.088573,245.740103 177.725516,240.807668 186.523161,241.190117 C179.417057,239.747241 175.003682,240.621079 167.055882,244.690107 C162.221077,247.165596 158.074298,246.75765 155.195301,242.179849 C153.218538,239.036813 151.964725,234.846097 152.025262,231.149088 C152.150992,223.522125 153.497939,215.922976 154.099816,208.292536 C154.636499,201.490735 154.921721,194.668074 155.181331,187.847731 C155.4293,181.317122 155.017183,174.722771 155.792521,168.262857 C156.496845,162.407908 159.996345,157.319016 165.027895,154.492369 C170.014042,151.691219 175.792991,150.130131 181.382179,148.593381 C187.499901,146.910604 193.735204,145.634615 198.515293,141.119397 C202.008972,137.818745 206.154588,136.406001 210.808946,136.183485 C213.827643,136.038618 216.86031,136.154511 219.877843,135.995737 C227.812837,135.57852 235.445147,134.125213 241.78639,128.869434 C245.424426,125.852722 248.97515,122.732864 252.565455,119.658204 C249.27667,121.035021 246.327823,123.095611 243.218321,124.876897 C239.238018,127.157685 235.29264,130.573072 231.041085,131.07605 C222.718422,132.059988 214.193193,131.365784 205.734322,131.365784 C210.044085,120.647936 217.596067,113.048787 229.46014,110.066843 C233.443935,109.065521 237.485939,108.161551 241.318393,106.727946 C247.579308,104.386893 251.280209,99.6897223 252.649275,93.1521595 C249.216133,100.133595 243.982017,104.846991 236.042367,105.559737 C219.688083,107.02811 207.563235,114.627259 199.949553,129.228705 C199.072931,130.909163 197.9367,132.575714 196.54435,133.836638 C194.54896,135.644579 192.418526,137.894076 189.977258,138.518743 C181.315821,140.73463 172.497221,142.340916 163.256026,144.279818 C165.711264,138.730828 168.637992,134.187796 173.290021,130.971746 C177.123639,128.322416 181.107434,125.88749 184.941051,123.235842 C188.731594,120.615486 192.326557,117.766819 193.643235,113.019814 C189.74908,119.366152 183.247182,122.284355 176.978117,125.292955 C167.300358,129.935656 161.117443,137.347057 156.742485,146.998684 C154.467694,152.020357 150.357004,156.216867 146.716639,161.288375 C145.022769,158.418847 143.976179,155.804286 142.214787,153.817868 C136.524316,147.39504 136.44166,139.80748 137.583712,132.139954 C139.28806,120.691976 147.396515,114.322459 157.293139,110.321809 C169.465718,105.40444 181.918862,101.156936 194.347559,96.8943666 C202.220851,94.1952027 209.906713,91.4427277 214.863756,84.1495381 C215.537811,83.1586471 216.626312,82.4366294 217.559977,81.6323272 C223.921011,76.1517148 231.509082,73.9138078 239.752582,73.4108292 C229.017755,72.2866604 219.691576,75.177049 212.086042,82.9523563 C208.324603,86.7953909 203.954303,89.4458795 197.370912,90.6905777 C202.133539,81.911631 206.113842,73.9775493 210.673902,66.3888308 C213.485376,61.7102027 217.230517,57.6156788 222.804571,55.8587306 L222.674183,55.9583991 C224.038593,55.2016134 225.401838,54.4448276 226.767411,53.6880418 C223.944295,53.7830747 220.946553,54.144663 219.051281,55.7764461 C214.126835,60.0193139 209.122061,64.3919826 205.210444,69.5156424 C201.091605,74.9081756 198.135773,81.195408 194.789944,87.1581381 C190.462718,94.8743397 182.916557,95.6461916 175.494963,96.8155589 C176.883819,92.8809683 178.90715,89.3948863 179.243595,85.7535067 C180.144664,76.0138014 182.243666,66.6542273 185.327556,57.37462 C188.044733,49.1948437 187.824705,40.7960283 184.612755,32.6197288 C186.298476,41.8587734 185.45678,50.7420244 181.771012,59.466501 C179.202849,65.5462837 177.265668,71.8891451 175.078189,78.0280336" id="Fill-245" fill="#2D2018"></path>
                    <path d="M106.868824,299.244611 C106.792493,299.12792 106.715087,299.013295 106.637681,298.897638 C107.053739,299.678327 107.592357,300.494127 108.278261,301.354331 C107.808449,300.651091 107.335411,299.948883 106.868824,299.244611" id="Fill-246" fill="#1A1919"></path>
                </g>
            </g>
        </g>
    </g>
</svg>