<?xml version="1.0" standalone="no"?>
<!DOCTYPE svg PUBLIC "-//W3C//DTD SVG 20010904//EN"
 "http://www.w3.org/TR/2001/REC-SVG-20010904/DTD/svg10.dtd">
<svg version="1.0" xmlns="http://www.w3.org/2000/svg"
 width="624.000000pt" height="624.000000pt" viewBox="0 0 624.000000 624.000000"
 preserveAspectRatio="xMidYMid meet">
<metadata>
Created by potrace 1.11, written by Peter Selinger 2001-2013
</metadata>
<g transform="translate(0.000000,624.000000) scale(0.100000,-0.100000)"
fill="#000000" stroke="none">
<path d="M3126 6200 c-41 -45 -51 -76 -42 -125 9 -44 18 -49 55 -31 46 24 71
63 71 110 0 96 -26 110 -84 46z"/>
<path d="M2702 6147 c3 -25 12 -57 21 -70 18 -27 68 -54 112 -59 28 -3 30 -1
31 32 1 77 -46 127 -130 137 l-38 5 4 -45z"/>
<path d="M2916 6136 c-22 -46 -20 -92 5 -132 26 -42 43 -43 60 -2 19 46 16
104 -7 135 -29 38 -39 38 -58 -1z"/>
<path d="M3266 6123 c-12 -12 -6 -94 9 -122 14 -28 91 -75 107 -65 12 8 10 89
-4 118 -16 36 -96 85 -112 69z"/>
<path d="M2103 6100 c-3 -11 -8 -20 -12 -20 -4 0 -8 -20 -10 -44 -1 -38 3 -48
33 -80 20 -20 41 -36 48 -36 32 0 58 92 38 131 -15 29 -60 68 -78 69 -8 0 -16
-9 -19 -20z"/>
<path d="M2560 6104 c-8 -3 -21 -7 -28 -10 -17 -5 8 -53 46 -89 24 -24 33 -26
85 -22 32 3 61 8 64 11 9 9 -17 62 -41 85 -22 21 -97 36 -126 25z"/>
<path d="M3786 6010 c-14 -17 -27 -39 -28 -48 -5 -60 -4 -80 9 -110 11 -27 16
-31 32 -23 22 12 51 70 51 104 0 26 -18 87 -30 100 -4 5 -19 -6 -34 -23z"/>
<path d="M3456 5995 c-44 -67 -42 -117 7 -165 17 -17 34 -30 38 -30 11 0 56
96 54 116 -2 29 -33 82 -54 94 -26 14 -26 14 -45 -15z"/>
<path d="M2313 6003 c-38 -7 -79 -67 -82 -117 l-2 -44 38 8 c21 5 39 9 41 10
1 0 6 0 11 0 5 0 22 13 38 29 23 22 30 39 32 75 2 45 1 46 -26 45 -15 -1 -38
-4 -50 -6z"/>
<path d="M3074 5973 c-41 -20 -57 -48 -61 -111 -5 -63 8 -72 64 -44 55 28 69
60 64 145 -1 31 -19 34 -67 10z"/>
<path d="M4005 5958 c-42 -41 -49 -80 -23 -136 21 -47 31 -47 81 4 28 27 31
38 28 87 -1 30 -27 77 -42 77 -5 0 -25 -15 -44 -32z"/>
<path d="M2838 5962 c-5 -64 -4 -81 9 -110 16 -34 36 -48 84 -62 25 -8 29 -6
30 13 6 107 -14 145 -92 167 -24 7 -29 5 -31 -8z"/>
<path d="M2623 5942 c-37 -4 -39 -11 -19 -50 35 -67 101 -94 168 -68 33 12 33
12 8 53 -34 56 -78 74 -157 65z"/>
<path d="M1968 5909 c-65 -10 -71 -15 -54 -47 35 -67 98 -94 160 -68 38 16 40
31 7 70 -36 41 -64 53 -113 45z"/>
<path d="M3290 5891 c-29 -8 -31 -24 -8 -66 26 -48 65 -63 151 -56 36 2 4 86
-42 111 -26 14 -72 19 -101 11z"/>
<path d="M3617 5885 c-20 -7 -44 -18 -52 -25 -18 -15 -47 -108 -39 -122 4 -6
28 -7 57 -4 59 8 98 38 114 89 20 65 -9 87 -80 62z"/>
<path d="M2382 5855 c-64 -15 -90 -37 -98 -84 -4 -20 -8 -44 -10 -53 -3 -21
30 -24 83 -9 47 14 73 42 88 99 15 61 11 64 -63 47z"/>
<path d="M1575 5836 c-38 -58 -19 -133 43 -169 l31 -18 15 28 c30 59 24 106
-20 148 -42 41 -49 42 -69 11z"/>
<path d="M3857 5853 c-11 -23 -7 -97 7 -118 17 -25 94 -71 103 -61 11 11 14
93 4 118 -16 42 -100 87 -114 61z"/>
<path d="M4268 5844 c-46 -24 -67 -83 -52 -141 5 -18 10 -20 37 -12 18 5 44
22 60 39 22 25 27 40 27 80 0 45 -2 50 -22 50 -13 -1 -35 -7 -50 -16z"/>
<path d="M2156 5841 c-6 -10 -1 -74 9 -111 2 -8 7 -37 10 -65 3 -27 7 -61 10
-75 6 -32 12 -68 24 -150 27 -178 51 -328 57 -357 8 -39 6 -40 -111 -19 -180
32 -319 99 -422 203 -24 24 -43 37 -43 30 0 -23 132 -151 195 -189 73 -44 141
-70 260 -99 50 -12 110 -31 135 -42 148 -67 362 -258 393 -353 15 -46 17 -181
4 -239 -27 -115 -105 -355 -116 -355 -8 0 -54 134 -56 165 -1 11 -5 29 -8 40
-4 11 -9 49 -12 85 -12 148 -15 168 -34 213 -25 57 -77 115 -131 146 -41 23
-56 17 -19 -9 35 -25 85 -102 107 -163 18 -51 20 -75 16 -180 -7 -147 -6 -179
6 -232 14 -61 36 -108 75 -160 49 -63 65 -113 65 -197 l0 -70 -52 43 c-170
140 -240 228 -313 394 -99 225 -173 371 -213 420 -76 90 -177 144 -302 159
-100 13 -160 28 -250 62 -80 30 -238 109 -265 133 -11 10 -28 22 -37 27 -23
12 -125 111 -131 127 -2 6 -7 9 -11 6 -8 -7 64 -119 101 -157 66 -68 149 -120
327 -207 l188 -91 -68 -41 c-246 -145 -349 -187 -539 -219 l-80 -13 120 4
c165 6 259 31 435 113 179 83 285 106 352 78 46 -20 66 -48 116 -166 40 -96
212 -526 212 -532 0 -2 -42 -3 -93 -4 -50 0 -112 -3 -137 -6 -53 -8 -205 -51
-258 -74 -208 -90 -368 -108 -543 -64 -47 12 -106 20 -140 19 -60 -2 -164 -33
-215 -64 -66 -40 -164 -109 -160 -112 2 -2 46 17 97 42 52 25 107 48 121 50
15 3 38 9 50 14 13 4 64 9 113 9 76 1 104 -4 180 -30 72 -25 106 -31 170 -31
98 0 111 3 293 52 157 43 179 48 280 66 15 3 66 5 113 6 167 1 301 -54 440
-182 14 -13 65 -60 114 -104 113 -101 270 -268 229 -242 -10 6 -23 9 -104 22
-19 3 -60 10 -90 15 -30 5 -73 12 -95 16 -22 3 -69 12 -105 20 -36 8 -76 17
-90 20 -14 2 -34 7 -44 11 -22 6 -118 5 -155 -2 -58 -11 -112 -34 -194 -83
-21 -12 -20 -13 9 -7 16 3 52 17 79 31 79 40 116 35 405 -49 47 -14 128 -35
180 -47 122 -28 200 -70 275 -145 117 -118 166 -272 170 -530 2 -232 -55 -453
-183 -695 -114 -217 -194 -285 -377 -321 -47 -10 -193 -13 -225 -6 -8 2 -31 7
-50 11 -19 4 -69 21 -112 37 -148 56 -236 45 -354 -42 -82 -60 -99 -68 -162
-70 -46 -2 -73 7 -276 94 -60 26 -132 30 -210 12 -56 -12 -57 -22 -3 -18 78 4
151 -22 291 -106 65 -39 121 -72 123 -74 2 -2 -47 -25 -109 -51 -123 -52 -144
-65 -101 -61 136 12 192 30 315 101 173 100 265 139 309 132 20 -3 19 -6 -19
-54 -22 -29 -61 -83 -86 -122 -85 -134 -120 -151 -291 -149 -95 1 -130 -2
-168 -17 -26 -10 -47 -22 -47 -27 0 -5 79 -9 185 -9 102 0 185 -4 185 -8 0
-38 -156 -140 -275 -181 -82 -28 -162 -72 -209 -116 -56 -51 -54 -58 7 -17 43
29 128 65 182 77 17 4 37 8 45 10 8 2 51 13 94 24 44 12 83 21 88 21 14 0 9
-80 -9 -113 -18 -36 -34 -50 -79 -72 -30 -15 -135 -105 -123 -105 21 0 197
108 235 145 9 9 25 44 29 65 21 110 63 197 155 315 120 154 162 188 265 220
54 16 169 12 213 -7 l34 -15 -44 -35 c-88 -70 -129 -86 -228 -89 -81 -3 -122
-26 -150 -83 -19 -40 -36 -171 -20 -161 4 2 17 30 28 62 29 77 57 121 86 134
26 12 120 5 145 -10 24 -15 1 -53 -79 -133 -44 -44 -79 -87 -82 -102 -3 -14
-4 -26 -3 -26 3 0 222 220 285 287 36 38 87 81 114 96 46 26 173 71 226 81 14
3 52 12 85 20 33 9 63 15 67 16 24 1 -68 -151 -128 -212 -30 -31 -80 -63 -148
-97 -137 -68 -205 -133 -271 -262 -62 -122 -115 -173 -239 -233 -70 -35 -104
-57 -129 -89 -47 -58 -54 -85 -11 -42 40 40 98 71 204 109 79 29 137 60 157
86 10 12 12 7 12 -30 1 -70 -14 -117 -49 -157 -52 -59 -73 -117 -74 -203 0
-86 11 -153 24 -145 5 3 7 15 4 28 -8 45 -5 153 5 181 6 15 31 51 56 79 75 86
93 138 109 312 9 100 68 185 161 231 49 24 94 27 81 6 -3 -5 -7 -50 -10 -100
-6 -115 -25 -160 -103 -238 -69 -70 -80 -106 -51 -173 9 -23 18 -41 20 -41 2
0 1 22 0 49 -4 52 11 93 50 133 25 26 103 88 111 88 2 0 28 -47 56 -105 28
-58 53 -105 55 -105 2 0 -2 24 -10 53 -38 135 -61 268 -58 326 3 69 49 162
106 218 l43 42 64 -162 c35 -89 71 -171 79 -182 27 -38 9 93 -22 160 -43 92
-47 105 -47 159 -1 63 23 128 97 259 86 153 81 150 77 34 -1 -63 3 -122 11
-153 12 -44 80 -189 96 -204 3 -3 13 -21 22 -40 67 -137 51 -206 -71 -315
-111 -99 -127 -124 -117 -180 9 -48 31 -51 31 -5 1 51 39 98 106 133 61 31 79
34 79 11 0 -9 14 -48 32 -87 34 -77 42 -153 19 -181 -7 -8 -11 -20 -9 -26 2
-6 15 8 30 30 26 41 30 82 14 150 -3 14 -8 36 -11 50 -3 14 -8 36 -11 50 -13
62 -5 143 21 224 l28 83 94 -58 c147 -92 168 -112 199 -196 l15 -38 -6 37
c-11 69 -37 112 -108 178 -312 289 -348 351 -312 535 7 32 45 105 55 105 4 0
17 -24 30 -53 50 -111 147 -229 265 -321 33 -25 65 -50 70 -54 6 -5 42 -27 81
-50 64 -38 134 -112 134 -142 0 -6 4 -10 8 -10 5 0 26 -37 46 -82 103 -227
103 -226 187 -290 44 -34 42 -18 -4 31 -25 26 -54 66 -65 87 -41 80 -81 263
-58 265 19 2 57 1 181 -6 66 -3 141 -7 167 -9 42 -2 57 4 25 10 -7 1 -61 14
-122 27 -60 14 -128 27 -150 31 -89 13 -133 30 -177 71 -15 14 -31 25 -35 25
-4 0 -24 15 -43 33 -19 17 -77 66 -129 107 -107 86 -104 91 36 65 48 -10 102
-19 118 -21 17 -2 41 -5 55 -8 56 -12 78 -16 133 -21 156 -15 227 -42 292
-112 25 -26 45 -50 45 -54 0 -14 72 -49 113 -55 51 -8 49 -6 -30 40 -35 21
-63 40 -63 45 0 4 -25 33 -56 64 -55 57 -132 104 -189 117 l-30 6 35 22 c43
27 122 52 165 52 44 0 90 -17 155 -58 l55 -34 -45 46 c-108 112 -231 121 -411
31 -49 -25 -74 -32 -99 -28 -33 5 -306 90 -324 100 -10 7 67 56 177 114 81 42
188 78 219 73 10 -1 20 2 24 7 3 5 -34 7 -88 5 -95 -4 -129 -14 -271 -80 -100
-47 -165 -35 -223 41 -55 72 -73 144 -69 280 2 65 6 136 9 158 3 22 8 56 11
75 4 33 8 72 20 210 9 113 17 291 20 485 5 269 10 318 45 390 67 140 173 200
520 295 103 28 218 71 245 92 6 5 28 24 50 43 83 72 153 95 310 101 230 8 293
16 390 51 39 14 91 40 116 57 53 35 259 209 254 214 -1 2 -37 -17 -80 -42 -42
-26 -79 -46 -83 -46 -3 0 -14 -7 -24 -17 -10 -9 -19 -14 -21 -12 -1 2 -10 21
-19 41 -26 57 -58 72 -145 69 -39 -1 -42 -15 -13 -71 20 -39 47 -53 120 -63
20 -3 10 -11 -55 -43 l-80 -39 -257 -2 c-198 -2 -258 0 -258 10 1 22 76 147
121 201 92 110 224 187 379 221 258 58 362 126 419 278 15 38 -1 34 -22 -6
-59 -109 -175 -176 -332 -192 -189 -20 -381 -106 -507 -227 -59 -56 -139 -163
-169 -224 -28 -57 -143 -178 -185 -195 -53 -20 -528 -123 -544 -117 -14 5 39
103 90 166 34 42 87 85 203 163 194 130 231 160 261 207 32 52 42 84 14 47
-51 -68 -115 -114 -249 -181 -237 -117 -328 -205 -449 -433 -46 -88 -201 -311
-215 -311 -2 0 -18 26 -35 57 -18 32 -50 80 -70 108 -71 94 -86 146 -84 300 3
253 109 414 344 523 61 28 336 136 390 152 14 5 104 36 200 70 96 33 209 73
250 87 83 28 195 81 243 115 32 22 75 64 132 130 38 43 95 87 165 126 57 31
218 79 257 76 12 -1 20 2 17 7 -7 12 -137 2 -204 -15 -105 -27 -189 -74 -275
-155 -87 -81 -184 -143 -245 -156 -8 -2 -28 -6 -44 -10 l-28 -8 42 79 c24 43
58 108 77 144 181 338 228 397 369 465 52 25 94 47 94 49 0 6 -81 -5 -104 -14
-57 -21 -250 -205 -331 -314 -44 -60 -185 -298 -185 -313 0 -15 -66 -96 -100
-123 -38 -30 -129 -68 -180 -76 -14 -1 -46 -7 -72 -12 l-46 -9 13 36 c7 20 22
59 33 86 11 28 23 75 27 105 10 80 23 171 29 205 17 92 52 227 96 370 23 78
32 134 33 209 1 91 -21 216 -38 216 -3 0 -3 -28 0 -62 l6 -63 -19 30 c-10 17
-25 35 -33 42 -19 15 -94 32 -107 24 -12 -8 -8 -81 7 -109 16 -30 55 -54 99
-61 35 -6 37 -8 38 -46 1 -54 -31 -162 -91 -310 -4 -11 -9 -24 -11 -30 -1 -5
-23 -66 -47 -135 l-45 -125 -69 2 c-67 2 -68 2 -45 -16 13 -9 44 -26 68 -37
45 -19 45 -19 41 -64 -8 -102 -86 -211 -202 -286 -56 -36 -385 -203 -441 -224
-25 -10 -25 -9 -19 21 4 17 8 37 10 43 1 6 4 18 7 26 3 8 14 38 23 65 36 102
120 246 164 283 8 6 10 12 5 12 -16 0 -106 -88 -154 -149 -67 -88 -108 -176
-155 -337 -13 -44 -46 -123 -73 -175 -99 -186 -129 -241 -137 -242 -16 -4 -56
133 -58 193 0 26 12 186 18 223 4 26 15 109 20 152 23 190 27 212 50 280 35
102 77 167 173 265 58 60 100 146 116 243 8 45 56 187 78 231 28 55 67 111
122 171 58 65 101 137 120 203 8 28 13 52 11 52 -2 0 -13 -21 -26 -46 -24 -50
-80 -120 -179 -224 -34 -36 -74 -81 -89 -100 -14 -19 -30 -38 -36 -42 -5 -4
-30 45 -58 115 -87 219 -101 264 -101 335 0 17 -4 32 -8 32 -13 0 -13 -64 -1
-132 6 -37 33 -145 59 -240 37 -136 47 -188 46 -244 -2 -151 -70 -271 -211
-368 -47 -33 -40 -36 -152 66 -41 36 -103 89 -139 118 -206 163 -244 228 -296
499 -22 110 -96 436 -104 450 -5 9 -9 10 -14 2z"/>
<path d="M1741 5797 c-11 -36 -10 -50 3 -80 13 -31 65 -77 88 -77 19 0 34 58
29 113 -2 24 -52 74 -82 82 -24 6 -27 3 -38 -38z"/>
<path d="M2508 5810 c-15 -5 -29 -6 -32 -3 -3 3 -8 -1 -12 -10 -7 -20 28 -79
59 -99 26 -18 126 -15 137 3 10 15 -26 76 -54 94 -28 18 -65 24 -98 15z"/>
<path d="M4080 5775 c-51 -32 -61 -48 -64 -102 -4 -65 0 -74 30 -63 29 11 29
10 3 -34 -11 -19 -18 -39 -16 -43 3 -5 32 -10 64 -11 67 -3 101 15 129 71 15
29 15 31 -2 44 -12 9 -37 13 -64 11 l-45 -3 16 32 c9 17 15 44 13 60 -1 15 -2
33 -3 39 -2 22 -26 21 -61 -1z"/>
<path d="M3084 5747 c-31 -26 -34 -32 -21 -44 8 -9 38 -15 76 -16 60 -2 64 0
94 33 l30 34 -29 13 c-49 21 -109 13 -150 -20z"/>
<path d="M2730 5754 c-32 -14 -32 -14 -15 -42 9 -15 31 -39 48 -54 27 -24 29
-28 11 -28 -11 0 -29 -6 -39 -14 -18 -13 -17 -15 11 -54 28 -40 72 -65 104
-59 45 9 80 19 80 23 0 15 -33 65 -55 82 -32 25 -31 29 5 37 34 8 36 16 14 53
-35 60 -101 82 -164 56z"/>
<path d="M1975 5714 c-16 -8 -34 -19 -38 -23 -12 -12 57 -52 95 -55 32 -3 108
29 108 45 0 4 -15 17 -34 28 -40 25 -90 27 -131 5z"/>
<path d="M3283 5703 c-21 -55 3 -124 53 -148 34 -16 63 -20 65 -7 14 94 -5
131 -86 162 -21 8 -27 7 -32 -7z"/>
<path d="M4541 5675 c-38 -44 -42 -98 -10 -139 24 -31 39 -33 61 -7 52 61 56
87 24 150 -21 40 -37 39 -75 -4z"/>
<path d="M3589 5691 c-48 -19 -79 -70 -79 -132 0 -27 1 -27 48 -23 78 9 111
44 125 132 l5 33 -42 -2 c-24 -2 -49 -5 -57 -8z"/>
<path d="M2354 5675 c-30 -13 -74 -50 -74 -63 0 -12 72 -54 102 -59 52 -8 141
66 107 89 -59 39 -98 49 -135 33z"/>
<path d="M1465 5661 c-23 -74 -3 -134 57 -171 41 -25 45 -25 53 -1 27 87 -5
161 -82 185 -16 5 -23 2 -28 -13z"/>
<path d="M4428 5660 c-49 -26 -68 -56 -68 -105 0 -64 10 -72 63 -46 53 25 69
57 66 124 -3 52 -8 55 -61 27z"/>
<path d="M3152 5635 c-53 -16 -79 -45 -86 -93 -9 -67 -7 -72 33 -66 83 13 127
58 126 125 -1 51 -9 54 -73 34z"/>
<path d="M1270 5626 c-42 -14 -45 -23 -20 -64 27 -43 79 -66 134 -57 56 10 58
12 42 43 -36 70 -94 99 -156 78z"/>
<path d="M3800 5633 c-42 -12 -90 -38 -87 -47 5 -16 58 -44 94 -49 34 -5 114
27 120 49 6 19 -94 56 -127 47z"/>
<path d="M1702 5610 c-63 -39 -80 -92 -51 -162 11 -26 12 -26 42 -12 61 30 88
99 65 167 -12 32 -14 33 -56 7z"/>
<path d="M4681 5558 c-6 -24 -9 -55 -7 -70 4 -33 55 -103 67 -91 15 15 32 99
26 125 -6 24 -52 78 -67 78 -4 0 -12 -19 -19 -42z"/>
<path d="M2012 5580 c-45 -10 -48 -15 -29 -55 29 -61 76 -79 155 -61 37 9 40
26 11 67 -33 47 -76 62 -137 49z"/>
<path d="M2583 5579 c-44 -13 -48 -23 -19 -65 33 -48 66 -64 123 -58 60 6 64
9 52 43 -22 63 -90 98 -156 80z"/>
<path d="M3237 5506 c-20 -8 -44 -20 -53 -27 -22 -18 -41 -60 -38 -86 1 -13 2
-30 3 -39 1 -13 8 -15 39 -9 82 15 129 71 119 142 -4 33 -19 37 -70 19z"/>
<path d="M2416 5499 c-39 -11 -74 -45 -81 -81 -8 -36 -6 -39 39 -45 71 -9 125
25 142 91 5 22 2 26 -23 31 -15 4 -32 8 -38 9 -5 2 -23 -1 -39 -5z"/>
<path d="M3505 5482 c-27 -6 -65 -49 -59 -66 6 -15 48 -26 99 -26 22 0 44 11
71 34 l39 34 -30 12 c-34 13 -91 19 -120 12z"/>
<path d="M4155 5471 c-56 -33 -86 -100 -50 -108 92 -19 156 11 179 83 5 18 0
23 -33 32 -51 16 -61 15 -96 -7z"/>
<path d="M1815 5455 c-22 -8 -41 -15 -42 -15 -10 -1 -39 -82 -38 -110 0 -30 4
-35 26 -38 38 -4 94 22 115 53 9 15 18 49 20 76 2 44 0 49 -19 49 -12 -1 -40
-7 -62 -15z"/>
<path d="M3725 5451 c-63 -38 -82 -81 -64 -145 13 -48 24 -52 64 -24 54 37 68
78 51 156 -9 37 -11 38 -51 13z"/>
<path d="M5006 5446 c-41 -23 -56 -53 -56 -111 0 -49 4 -52 56 -30 55 23 67
41 72 106 4 54 3 58 -17 56 -12 -1 -37 -10 -55 -21z"/>
<path d="M1423 5440 c-49 -22 -68 -43 -51 -58 15 -11 77 -29 96 -26 6 1 18 2
26 3 7 0 28 15 45 33 35 36 32 41 -37 56 -31 8 -49 6 -79 -8z"/>
<path d="M2805 5448 c-28 -8 -68 -48 -80 -81 -12 -29 82 -53 136 -35 29 10 76
85 63 98 -16 16 -88 27 -119 18z"/>
<path d="M4360 5438 c-30 -18 -47 -43 -60 -88 l-8 -28 53 3 c60 3 89 16 107
48 15 27 22 77 11 78 -46 6 -79 2 -103 -13z"/>
<path d="M4804 5393 c-24 -57 -22 -105 7 -147 13 -20 27 -36 30 -36 12 0 42
80 41 109 -1 33 -37 111 -52 111 -5 0 -17 -17 -26 -37z"/>
<path d="M2105 5391 c-3 -6 -12 -27 -19 -48 -12 -34 -12 -43 3 -71 9 -17 32
-43 51 -57 32 -23 35 -24 44 -8 6 10 11 20 11 23 0 3 3 10 6 15 3 6 6 26 8 46
2 30 -4 42 -34 72 -37 37 -59 45 -70 28z"/>
<path d="M2605 5369 c-32 -62 -17 -115 45 -159 l30 -22 20 46 c12 26 18 57 16
73 -5 27 -66 93 -86 93 -5 0 -17 -14 -25 -31z"/>
<path d="M1943 5356 c-47 -54 -55 -94 -29 -148 25 -51 40 -53 76 -10 39 47 46
76 30 121 -24 67 -43 76 -77 37z"/>
<path d="M3445 5374 c-5 -1 -23 -5 -38 -9 -26 -5 -28 -9 -22 -33 16 -64 85
-102 160 -88 45 9 46 31 3 80 -30 33 -78 57 -103 50z"/>
<path d="M1177 5358 c-15 -12 -15 -16 -1 -45 26 -53 48 -66 112 -67 l57 -1 -2
30 c-3 45 -62 95 -111 95 -21 0 -46 -6 -55 -12z"/>
<path d="M4626 5339 c-11 -56 -6 -78 24 -113 26 -30 75 -54 86 -43 2 2 8 24
13 50 10 55 -10 97 -58 122 -44 22 -58 19 -65 -16z"/>
<path d="M2422 5349 c-32 -12 -50 -32 -67 -73 -18 -42 -12 -48 57 -49 45 0 54
3 79 31 27 30 47 77 37 87 -9 10 -84 12 -106 4z"/>
<path d="M4103 5330 c-27 -11 -27 -9 -8 -52 20 -49 53 -68 120 -68 48 0 55 3
55 19 0 29 -31 77 -61 95 -30 18 -72 20 -106 6z"/>
<path d="M1503 5310 c-34 -20 -67 -66 -58 -80 12 -20 79 -41 110 -34 35 7 49
17 76 55 l20 28 -25 17 c-44 28 -91 34 -123 14z"/>
<path d="M2858 5308 c-27 -23 -61 -79 -52 -88 5 -5 30 -14 56 -21 43 -12 49
-11 81 11 19 13 42 36 51 52 16 27 16 27 -13 43 -36 18 -101 20 -123 3z"/>
<path d="M660 5300 c-17 -11 7 -92 36 -123 27 -29 26 -29 93 -32 l43 -2 -6 40
c-9 56 -33 96 -64 109 -33 13 -87 17 -102 8z"/>
<path d="M872 5256 c-23 -82 11 -154 80 -171 33 -8 42 7 42 70 0 50 -23 85
-73 113 l-40 23 -9 -35z"/>
<path d="M3780 5259 c-23 -10 -40 -24 -38 -31 3 -7 26 -23 52 -36 45 -23 48
-23 101 -7 30 8 57 19 60 24 8 14 -47 49 -93 59 -32 8 -49 6 -82 -9z"/>
<path d="M4975 5272 c-34 -7 -72 -40 -90 -78 -9 -19 -15 -37 -13 -40 2 -2 29
-5 60 -8 43 -4 62 0 87 15 33 20 69 86 54 99 -10 10 -72 18 -98 12z"/>
<path d="M1129 5232 c-52 -34 -74 -76 -65 -124 13 -69 39 -73 96 -17 26 26 30
38 29 82 0 29 -4 60 -7 70 -7 16 -11 15 -53 -11z"/>
<path d="M4443 5217 c3 -23 8 -51 12 -63 9 -29 59 -55 108 -57 42 -2 42 -2 40
32 -4 80 -40 118 -118 125 l-47 5 5 -42z"/>
<path d="M2518 5218 c-20 -11 -42 -32 -49 -45 -12 -23 -15 -110 -5 -121 12
-11 62 12 92 42 28 28 32 37 29 79 -4 47 -10 67 -23 67 -4 0 -23 -10 -44 -22z"/>
<path d="M5194 5201 c-48 -29 -64 -59 -64 -118 0 -29 4 -53 10 -53 5 0 27 8
49 17 60 26 83 81 65 151 -8 27 -20 28 -60 3z"/>
<path d="M3283 5195 c-18 -8 -42 -29 -53 -47 l-20 -33 22 -17 22 -16 -27 -13
c-15 -7 -27 -18 -27 -25 0 -18 59 -72 87 -79 28 -7 90 9 118 31 20 15 19 16
-18 50 l-38 35 35 40 c43 47 44 56 9 70 -46 18 -76 19 -110 4z"/>
<path d="M3586 5171 c-61 -41 -80 -108 -46 -171 9 -17 14 -18 32 -7 69 40 93
92 72 153 -8 21 -14 40 -14 42 0 7 -18 0 -44 -17z"/>
<path d="M1363 5167 c-39 -12 -40 -20 -10 -64 39 -58 100 -73 164 -40 l24 13
-30 41 c-39 54 -84 69 -148 50z"/>
<path d="M1651 5169 c-23 -9 -81 -65 -81 -79 0 -10 55 -39 85 -44 15 -3 37 0
49 6 26 13 76 59 76 69 0 12 -52 45 -80 52 -14 3 -36 1 -49 -4z"/>
<path d="M4099 5166 c-29 -15 -58 -55 -64 -89 -5 -23 -2 -27 17 -29 94 -6 129
11 158 75 10 23 17 43 16 45 -10 9 -109 8 -127 -2z"/>
<path d="M3724 5142 c-17 -2 -21 -9 -18 -35 9 -78 41 -110 124 -123 l41 -7 -6
39 c-11 61 -34 101 -63 112 -42 16 -55 18 -78 14z"/>
<path d="M4369 5123 c-6 -16 -9 -50 -6 -77 3 -38 11 -55 31 -73 15 -13 31 -23
35 -23 8 0 17 25 27 73 6 33 -8 76 -34 102 -32 32 -40 31 -53 -2z"/>
<path d="M2869 5123 c-8 -62 27 -136 71 -151 21 -7 74 -9 102 -3 22 4 -22 114
-55 136 -26 17 -116 30 -118 18z"/>
<path d="M4760 5111 c0 -47 83 -122 128 -115 6 1 20 2 30 3 37 3 45 16 33 52
-17 49 -50 69 -126 74 -58 4 -65 3 -65 -14z"/>
<path d="M1229 5102 c-14 -9 -34 -25 -44 -35 -22 -22 -30 -92 -16 -130 l11
-28 41 23 c23 12 48 36 56 51 22 43 11 137 -16 137 -3 0 -18 -8 -32 -18z"/>
<path d="M2615 5083 c-36 -53 -34 -102 6 -148 17 -19 35 -35 39 -35 16 0 52
62 55 93 4 43 -40 127 -66 127 -5 0 -20 -17 -34 -37z"/>
<path d="M738 5083 c-41 -28 -39 -41 9 -77 42 -31 94 -32 142 -1 l43 27 -23
25 c-55 58 -112 67 -171 26z"/>
<path d="M1753 5064 c-49 -24 -84 -112 -45 -115 51 -4 100 4 122 20 25 18 58
86 47 97 -14 14 -94 13 -124 -2z"/>
<path d="M5006 4990 c-20 -22 -37 -47 -37 -55 -1 -8 -2 -21 -2 -27 -2 -18 18
-69 35 -91 13 -18 15 -17 40 3 58 45 67 111 26 178 -11 17 -21 32 -23 32 -1 0
-19 -18 -39 -40z"/>
<path d="M565 4994 c-47 -24 -48 -29 -15 -67 41 -48 83 -56 139 -28 22 12 41
25 41 30 0 5 -16 25 -36 45 -41 41 -79 47 -129 20z"/>
<path d="M1362 4980 c-23 -16 -44 -41 -48 -56 -7 -26 0 -111 9 -121 3 -3 25 5
49 18 57 32 76 79 58 144 -7 25 -16 45 -20 45 -4 0 -26 -13 -48 -30z"/>
<path d="M2782 4982 c-44 -61 -37 -127 20 -179 l24 -23 28 43 c22 34 27 50 23
85 -5 42 -25 75 -59 93 -13 7 -21 2 -36 -19z"/>
<path d="M4643 5000 l-23 -9 22 -37 c32 -55 73 -76 132 -69 28 3 52 7 54 10 8
8 -11 48 -38 79 -25 27 -36 33 -77 34 -26 1 -58 -3 -70 -8z"/>
<path d="M1999 4963 c-5 -86 9 -117 65 -145 38 -19 40 -19 53 -2 18 24 10 100
-13 125 -22 25 -66 49 -89 49 -9 0 -16 -10 -16 -27z"/>
<path d="M5193 4972 c-41 -22 -63 -60 -63 -109 0 -33 9 -62 21 -66 2 -1 23 9
45 22 49 28 60 47 63 119 3 59 -8 65 -66 34z"/>
<path d="M4050 4973 c-26 -10 -58 -44 -71 -75 -15 -37 -3 -48 58 -48 30 0 50
7 71 25 35 29 57 81 40 91 -15 10 -80 14 -98 7z"/>
<path d="M4258 4962 c-30 -36 -36 -66 -23 -106 7 -21 15 -39 17 -40 1 -1 16
-12 32 -24 37 -28 44 -28 57 6 28 72 20 111 -30 152 -36 28 -39 28 -53 12z"/>
<path d="M3644 4958 c-12 -19 9 -91 35 -119 46 -51 152 -57 137 -8 -2 8 -7 26
-10 41 -6 25 -48 77 -64 78 -4 1 -26 5 -50 9 -24 5 -45 5 -48 -1z"/>
<path d="M905 4940 c-41 -16 -99 -99 -82 -116 6 -7 95 -9 117 -3 38 10 82 91
62 111 -13 13 -72 18 -97 8z"/>
<path d="M1480 4892 c-7 -31 -8 -57 -2 -73 11 -26 69 -79 88 -79 7 0 19 19 26
43 19 56 7 99 -36 132 -48 37 -62 33 -76 -23z"/>
<path d="M5373 4918 c-24 -12 -70 -95 -58 -106 4 -4 34 -7 66 -7 64 0 78 10
113 78 14 27 14 28 -10 37 -33 13 -83 12 -111 -2z"/>
<path d="M2245 4898 c-11 -6 -27 -17 -36 -25 -16 -13 -15 -16 9 -40 54 -54
103 -62 170 -26 36 19 37 22 19 43 -43 55 -113 75 -162 48z"/>
<path d="M3214 4888 c-16 -12 -31 -23 -33 -25 -3 -2 6 -15 20 -29 49 -53 92
-62 154 -35 60 27 59 36 -9 89 -38 29 -94 29 -132 0z"/>
<path d="M3498 4878 c-20 -18 -37 -40 -38 -48 -5 -35 1 -67 20 -98 l20 -33 27
21 c62 48 75 95 43 154 -22 41 -32 41 -72 4z"/>
<path d="M4568 4883 c-52 -55 -58 -107 -18 -163 24 -33 28 -35 51 -17 35 26
57 77 49 111 -8 35 -40 96 -50 96 -4 0 -18 -12 -32 -27z"/>
<path d="M1677 4873 c-13 -13 -7 -109 8 -130 16 -22 68 -53 91 -53 8 0 16 19
20 47 9 62 -14 106 -67 127 -45 18 -44 18 -52 9z"/>
<path d="M1856 4834 c-11 -28 -6 -95 9 -123 13 -26 90 -69 102 -57 2 2 6 28 9
57 5 46 2 58 -18 81 -13 15 -39 34 -60 43 -32 13 -37 13 -42 -1z"/>
<path d="M597 4813 c-21 -8 -36 -20 -34 -26 2 -6 23 -22 48 -35 49 -26 93 -24
141 6 31 20 27 32 -19 56 -40 20 -86 20 -136 -1z"/>
<path d="M972 4809 c-45 -17 -104 -100 -82 -114 22 -14 117 -9 141 6 31 21 67
85 54 98 -15 14 -87 20 -113 10z"/>
<path d="M4053 4765 c13 -79 56 -119 137 -127 35 -3 35 -3 33 33 -6 84 -42
120 -125 126 l-51 3 6 -35z"/>
<path d="M5217 4779 c-33 -18 -36 -22 -26 -41 35 -65 105 -85 167 -48 35 22
37 28 19 50 -47 58 -100 71 -160 39z"/>
<path d="M2435 4778 c-16 -4 -41 -16 -54 -26 -20 -16 -21 -22 -11 -39 7 -10
28 -30 46 -42 40 -28 89 -23 129 12 l25 22 -22 26 c-35 40 -77 58 -113 47z"/>
<path d="M3117 4757 l-38 -23 21 -27 c25 -32 70 -57 101 -57 19 0 109 45 109
54 0 8 -49 55 -68 65 -33 18 -84 13 -125 -12z"/>
<path d="M1114 4709 c-8 -14 33 -85 60 -102 32 -21 64 -26 103 -15 30 8 31 9
20 38 -21 55 -58 81 -121 84 -31 2 -59 0 -62 -5z"/>
<path d="M5067 4701 c-7 -29 1 -82 17 -106 17 -26 82 -59 101 -52 18 7 11 92
-10 124 -9 13 -26 28 -38 32 -58 22 -64 22 -70 2z"/>
<path d="M4449 4687 c-18 -12 -39 -34 -46 -47 -16 -32 -16 -81 0 -103 11 -16
14 -16 47 1 43 23 78 72 74 104 -1 12 -3 33 -3 46 -1 29 -28 29 -72 -1z"/>
<path d="M4888 4683 c-9 -34 -1 -93 16 -117 16 -26 90 -55 103 -42 14 13 6 95
-12 122 -15 23 -69 54 -94 54 -5 0 -11 -8 -13 -17z"/>
<path d="M702 4669 c-23 -11 -42 -24 -42 -28 0 -19 72 -53 110 -53 38 1 93 22
105 42 7 11 -59 46 -101 53 -18 3 -47 -3 -72 -14z"/>
<path d="M2113 4678 c-28 -7 -83 -62 -83 -82 0 -13 86 -46 108 -41 34 6 59 23
81 54 25 34 25 37 9 44 -7 3 -29 12 -48 20 -25 10 -44 12 -67 5z"/>
<path d="M4748 4633 c-18 -23 -28 -49 -28 -69 0 -39 29 -106 44 -101 17 6 46
51 52 81 5 27 -23 126 -35 126 -4 -1 -18 -17 -33 -37z"/>
<path d="M3468 4643 c-29 -34 -47 -80 -42 -109 7 -37 51 -95 67 -88 18 7 60
72 62 97 3 34 -43 117 -65 117 -4 0 -14 -8 -22 -17z"/>
<path d="M3987 4643 c-10 -20 -6 -86 6 -116 16 -37 94 -83 111 -66 14 13 7 97
-10 130 -8 16 -24 33 -35 40 -28 14 -67 21 -72 12z"/>
<path d="M3606 4596 c-26 -55 -21 -93 18 -132 43 -43 63 -43 82 1 23 56 18 83
-25 126 -21 22 -43 39 -49 39 -5 0 -17 -15 -26 -34z"/>
<path d="M5308 4608 c-32 -50 -37 -83 -18 -124 9 -22 27 -47 38 -58 18 -16 24
-17 38 -5 21 17 37 56 39 96 2 24 -6 43 -32 73 -19 22 -38 40 -43 40 -4 0 -14
-10 -22 -22z"/>
<path d="M1097 4613 c-9 -14 -21 -87 -18 -108 4 -33 30 -65 67 -82 42 -21 53
-12 60 48 4 35 1 50 -18 77 -25 37 -83 78 -91 65z"/>
<path d="M2573 4584 c-44 -22 -66 -59 -66 -111 0 -58 11 -68 54 -48 61 30 91
97 66 153 -12 26 -13 26 -54 6z"/>
<path d="M3075 4556 c-23 -59 -8 -106 43 -141 20 -14 40 -25 44 -25 6 0 28 56
33 88 4 26 -22 68 -58 96 -19 15 -36 26 -40 26 -3 0 -13 -20 -22 -44z"/>
<path d="M1334 4575 c-16 -7 -34 -18 -40 -26 -18 -23 -37 -79 -30 -87 4 -3 27
-6 52 -6 46 2 87 22 103 52 13 25 21 72 13 73 -37 6 -75 4 -98 -6z"/>
<path d="M5519 4572 c-34 -17 -84 -91 -71 -104 4 -3 28 -9 53 -11 72 -7 122
24 143 90 5 16 2 23 -13 28 -43 13 -81 12 -112 -3z"/>
<path d="M2233 4560 c-39 -24 -56 -54 -55 -99 2 -57 11 -73 35 -65 66 20 105
83 93 150 -8 40 -25 43 -73 14z"/>
<path d="M885 4560 c-3 -5 -5 -31 -3 -57 4 -62 49 -113 100 -113 l34 0 -6 53
c-6 55 -30 101 -58 112 -32 13 -61 15 -67 5z"/>
<path d="M513 4553 c-12 -4 -9 -57 6 -96 14 -35 59 -63 108 -66 57 -3 63 2 52
47 -14 53 -30 82 -54 95 -23 12 -96 25 -112 20z"/>
<path d="M716 4507 c1 -76 38 -122 105 -129 20 -3 23 2 26 37 5 52 -24 100
-73 120 -54 22 -59 20 -58 -28z"/>
<path d="M5154 4467 c-12 -63 -7 -87 23 -119 28 -29 83 -62 90 -54 3 2 6 29 8
59 4 67 -15 103 -73 134 l-41 21 -7 -41z"/>
<path d="M4565 4444 c-47 -16 -47 -15 -25 -42 32 -39 77 -52 133 -37 26 6 50
15 54 18 15 16 -57 67 -103 72 -12 1 -39 -4 -59 -11z"/>
<path d="M1768 4422 c-8 -28 24 -103 52 -123 22 -17 61 -25 98 -20 28 3 4 110
-32 140 -9 8 -38 15 -65 17 -40 3 -49 1 -53 -14z"/>
<path d="M1609 4413 c-18 -98 5 -146 83 -180 23 -10 28 -9 33 6 19 62 0 125
-48 155 -30 19 -67 29 -68 19z"/>
<path d="M2943 4398 c-35 -9 -58 -37 -73 -87 -9 -33 -11 -32 53 -34 61 -3 109
38 118 102 4 21 0 24 -31 26 -19 1 -50 -2 -67 -7z"/>
<path d="M5485 4397 c-16 -6 -40 -18 -53 -28 l-23 -18 26 -17 c42 -27 123 -29
163 -5 40 26 40 36 0 57 -40 21 -74 24 -113 11z"/>
<path d="M5040 4368 c-11 -18 -21 -40 -21 -48 -4 -37 3 -75 17 -107 14 -27 19
-31 31 -21 21 17 45 78 45 115 0 31 -29 93 -44 93 -5 0 -17 -15 -28 -32z"/>
<path d="M2301 4372 c-60 -29 -76 -63 -72 -149 1 -31 2 -31 33 -22 18 5 46 22
62 38 24 25 29 38 30 80 1 64 -9 74 -53 53z"/>
<path d="M3303 4368 c-17 -13 -38 -37 -47 -54 l-14 -31 37 -12 c77 -22 115
-11 153 46 24 37 23 49 -4 58 -55 18 -93 16 -125 -7z"/>
<path d="M4403 4339 l-43 -21 17 -29 c37 -62 107 -78 177 -41 l35 19 -41 41
c-23 23 -46 42 -52 42 -6 0 -20 3 -31 5 -11 3 -39 -4 -62 -16z"/>
<path d="M1408 4324 c-34 -18 -34 -31 -5 -65 41 -48 84 -60 146 -38 38 13 39
25 3 65 -49 55 -92 67 -144 38z"/>
<path d="M665 4322 c-11 -2 -37 -17 -58 -32 l-39 -29 34 -17 c47 -25 119 -22
157 7 17 12 31 28 31 35 0 20 -86 45 -125 36z"/>
<path d="M4822 4305 c-7 -86 -3 -109 25 -136 15 -16 42 -31 60 -35 31 -6 32
-5 38 39 9 56 -12 96 -65 126 -45 25 -56 26 -58 6z"/>
<path d="M4712 4269 c-39 -39 -50 -85 -27 -128 24 -48 41 -49 80 -5 39 44 44
77 19 130 -20 42 -32 42 -72 3z"/>
<path d="M1250 4278 c-1 -7 -3 -29 -6 -49 -8 -56 17 -104 66 -129 23 -12 44
-19 47 -17 2 3 7 29 10 59 7 66 -11 99 -68 129 -45 22 -49 23 -49 7z"/>
<path d="M5664 4279 c-39 -11 -84 -55 -84 -82 0 -16 -3 -17 -15 -7 -8 7 -15
17 -15 22 0 11 -16 28 -48 49 -25 18 -106 17 -128 -2 -11 -9 -10 -15 4 -37 24
-38 60 -72 80 -74 9 0 24 -2 32 -3 8 -1 30 4 48 11 27 11 32 11 33 -2 1 -7 2
-20 3 -26 3 -34 124 1 146 41 12 24 20 89 13 108 -6 15 -24 15 -69 2z"/>
<path d="M4244 4251 c-18 -11 -39 -30 -48 -42 -16 -24 -21 -85 -10 -126 6 -22
6 -22 43 -4 56 29 75 56 77 109 2 45 -9 82 -24 82 -4 0 -21 -9 -38 -19z"/>
<path d="M1116 4227 c-49 -64 -50 -104 -3 -171 l20 -28 29 32 c15 18 33 50 40
72 10 34 9 44 -6 72 -9 17 -25 37 -36 44 -17 10 -23 7 -44 -21z"/>
<path d="M1825 4246 c-17 -7 -36 -20 -43 -29 -12 -14 -11 -19 5 -35 10 -11 33
-29 52 -40 31 -19 37 -19 79 -7 25 8 52 21 61 29 13 14 12 18 -10 42 -24 26
-77 54 -101 54 -7 -1 -27 -7 -43 -14z"/>
<path d="M972 4223 c-23 -25 -42 -67 -42 -95 0 -36 32 -109 45 -105 5 2 20 21
32 43 24 41 26 85 5 136 -14 34 -24 39 -40 21z"/>
<path d="M820 4220 c-80 -13 -120 -59 -120 -136 0 -31 3 -34 30 -34 90 0 154
76 131 155 -5 17 -12 20 -41 15z"/>
<path d="M2920 4199 c-31 -12 -55 -44 -64 -86 -7 -30 -6 -31 34 -35 64 -6 107
17 135 72 13 26 21 50 18 54 -9 9 -95 6 -123 -5z"/>
<path d="M3983 4194 c-17 -9 -40 -25 -50 -36 -17 -19 -17 -21 12 -44 34 -27
81 -43 108 -36 23 6 87 65 87 80 0 15 -57 44 -95 48 -16 2 -44 -3 -62 -12z"/>
<path d="M4533 4174 c-45 -47 -52 -96 -23 -151 19 -36 25 -41 41 -32 29 15 69
81 69 112 0 33 -26 93 -43 100 -7 2 -26 -11 -44 -29z"/>
<path d="M1605 4170 c-9 -15 26 -107 49 -129 18 -17 38 -24 73 -25 l48 -1 1
45 c1 38 -4 50 -31 77 -18 18 -41 34 -51 34 -11 1 -34 2 -52 4 -18 1 -35 -1
-37 -5z"/>
<path d="M1438 4142 c-21 -4 -22 -21 -8 -74 14 -49 57 -78 122 -85 l51 -5 -6
34 c-9 54 -25 86 -51 103 -29 19 -83 33 -108 27z"/>
<path d="M476 4104 c-20 -14 -36 -28 -36 -33 0 -29 100 -82 135 -72 39 12 86
42 82 54 -2 6 -19 24 -39 40 -48 39 -95 42 -142 11z"/>
<path d="M2244 4090 c10 -83 49 -121 126 -124 34 -1 35 0 33 34 -4 81 -40 120
-118 125 l-46 3 5 -38z"/>
<path d="M3695 4083 c-15 -16 -35 -39 -43 -51 -19 -29 -8 -38 57 -48 54 -8 86
7 118 55 30 44 29 47 -8 60 -55 19 -94 14 -124 -16z"/>
<path d="M5715 4093 c-11 -2 -29 -6 -41 -8 -47 -10 -84 -68 -84 -133 0 -21 4
-23 45 -21 74 4 115 47 131 139 3 13 -14 31 -26 29 -3 -1 -14 -3 -25 -6z"/>
<path d="M5294 4082 c-18 -12 -36 -80 -29 -112 6 -29 68 -100 87 -100 15 0 38
66 38 108 0 31 -7 46 -37 75 -39 39 -42 41 -59 29z"/>
<path d="M5525 4072 c-59 -13 -109 -82 -99 -138 9 -53 10 -54 46 -42 59 21 78
51 83 130 3 52 0 57 -30 50z"/>
<path d="M1235 4053 c-41 -11 -46 -23 -23 -57 47 -66 75 -76 151 -55 35 9 38
13 32 36 -11 44 -48 75 -96 78 -24 2 -53 1 -64 -2z"/>
<path d="M1867 4053 c-3 -5 1 -30 8 -58 18 -67 53 -95 121 -95 l51 0 -7 38
c-15 84 -53 121 -122 122 -26 0 -49 -3 -51 -7z"/>
<path d="M3985 4023 c-36 -35 -44 -99 -22 -161 l12 -33 26 28 c42 45 53 92 33
142 -18 45 -25 49 -49 24z"/>
<path d="M756 4013 c-37 -18 -38 -19 -22 -36 44 -44 114 -55 179 -28 33 13 31
27 -4 53 -37 27 -106 32 -153 11z"/>
<path d="M2887 4007 c-63 -38 -80 -80 -63 -154 9 -41 22 -41 73 -4 30 22 42
39 47 65 7 37 -1 103 -13 111 -4 2 -24 -6 -44 -18z"/>
<path d="M4290 4016 c-42 -15 -44 -32 -9 -58 36 -27 89 -32 134 -14 43 18 42
32 -5 64 -37 25 -68 27 -120 8z"/>
<path d="M4898 4013 c-48 -19 -49 -42 -3 -82 44 -38 96 -41 150 -10 l36 22
-28 30 c-28 29 -80 57 -105 56 -7 0 -30 -7 -50 -16z"/>
<path d="M5110 3953 c-25 -31 -30 -45 -27 -75 4 -36 44 -108 59 -108 19 0 68
85 68 118 0 39 -34 102 -55 102 -7 0 -28 -17 -45 -37z"/>
<path d="M571 3971 c-35 -9 -35 -22 -2 -69 35 -48 80 -61 142 -43 44 13 44 12
24 51 -31 61 -89 82 -164 61z"/>
<path d="M3424 3966 c-35 -16 -51 -45 -32 -58 25 -16 90 -29 116 -23 30 7 72
38 72 53 0 12 -73 42 -103 42 -12 -1 -36 -7 -53 -14z"/>
<path d="M3836 3952 c-9 -17 -16 -48 -16 -68 0 -38 30 -98 54 -107 23 -9 42
51 37 120 0 13 -14 37 -30 55 l-28 32 -17 -32z"/>
<path d="M5758 3939 c-39 -41 -40 -42 -20 -61 38 -39 128 -32 186 13 40 32 34
55 -21 73 -76 26 -101 22 -145 -25z"/>
<path d="M3661 3916 c-53 -54 -51 -110 4 -181 15 -19 16 -19 45 15 49 58 49
123 1 179 -18 20 -18 20 -50 -13z"/>
<path d="M4723 3934 c-76 -38 -77 -65 -2 -102 33 -16 46 -18 78 -10 22 6 50
21 62 34 l23 25 -27 24 c-26 25 -67 45 -90 45 -7 0 -26 -8 -44 -16z"/>
<path d="M1606 3899 c12 -62 32 -97 64 -114 38 -19 79 -25 102 -13 15 7 16 12
3 55 -21 69 -52 95 -119 101 l-56 4 6 -33z"/>
<path d="M1476 3895 c-9 -14 -14 -25 -11 -25 2 0 0 -11 -5 -25 -14 -36 8 -83
53 -117 40 -31 49 -26 64 32 17 61 8 86 -45 128 l-40 32 -16 -25z"/>
<path d="M4221 3901 c-25 -9 -46 -21 -48 -27 -6 -17 76 -56 117 -56 21 0 53 8
71 18 l33 17 -34 28 c-19 16 -41 29 -50 30 -8 0 -22 2 -30 4 -9 1 -35 -5 -59
-14z"/>
<path d="M1008 3893 c-31 -35 -49 -84 -43 -112 3 -15 19 -43 34 -62 26 -30 30
-32 46 -19 30 25 54 89 45 120 -8 30 -49 90 -60 90 -4 0 -14 -8 -22 -17z"/>
<path d="M375 3866 c8 -85 49 -126 131 -131 42 -2 44 -1 44 27 0 42 -24 91
-53 110 -13 10 -48 20 -75 24 l-51 6 4 -36z"/>
<path d="M797 3873 c-3 -4 -8 -28 -11 -53 -8 -57 16 -101 73 -129 l39 -21 8
33 c14 61 5 100 -29 133 -33 33 -72 51 -80 37z"/>
<path d="M1133 3843 c-4 -21 -7 -44 -6 -50 0 -7 1 -20 2 -29 0 -9 15 -29 32
-45 36 -34 88 -40 90 -11 0 9 3 29 5 44 7 40 -21 85 -66 108 -21 11 -41 20
-44 20 -3 0 -8 -17 -13 -37z"/>
<path d="M1370 3863 c-44 -30 -53 -43 -57 -86 -3 -31 2 -51 17 -75 23 -38 40
-34 84 19 22 26 26 38 21 72 -5 31 -30 87 -39 87 -1 0 -13 -8 -26 -17z"/>
<path d="M3297 3873 c-10 -19 0 -91 16 -117 22 -33 84 -63 100 -47 25 25 2
121 -35 145 -30 19 -75 30 -81 19z"/>
<path d="M5527 3859 l-38 -20 21 -30 c24 -32 68 -59 99 -59 34 0 101 34 101
51 0 8 -10 25 -22 36 -53 48 -100 54 -161 22z"/>
<path d="M4595 3817 c-68 -26 -94 -67 -87 -135 3 -28 6 -32 28 -28 87 16 125
52 132 128 4 45 3 48 -19 47 -13 0 -38 -6 -54 -12z"/>
<path d="M611 3811 c-7 -5 -9 -26 -6 -56 5 -60 41 -100 102 -113 56 -13 67 4
54 83 -6 37 -121 103 -150 86z"/>
<path d="M5428 3802 c-1 -19 -1 -48 1 -74 3 -49 101 -110 122 -77 16 26 -1
102 -29 130 -34 34 -91 46 -94 21z"/>
<path d="M4071 3787 c-58 -22 -62 -41 -16 -82 30 -26 49 -35 75 -35 35 0 101
28 107 46 2 6 -12 24 -30 42 -39 38 -86 48 -136 29z"/>
<path d="M4803 3782 c-40 -4 -93 -53 -95 -90 -3 -69 -4 -67 27 -68 73 -3 122
43 129 121 4 37 -5 43 -61 37z"/>
<path d="M3496 3726 c-44 -41 -50 -80 -20 -138 18 -36 32 -35 75 3 29 25 34
37 34 73 0 47 -21 96 -41 96 -7 0 -29 -15 -48 -34z"/>
<path d="M5279 3728 c-5 -99 35 -158 107 -158 24 0 25 2 21 50 -6 62 -28 97
-72 116 -46 19 -55 18 -56 -8z"/>
<path d="M3174 3704 c-16 -8 -36 -22 -44 -30 -13 -14 -13 -17 4 -29 49 -37
148 -27 189 19 17 19 17 20 -8 34 -39 20 -108 23 -141 6z"/>
<path d="M5640 3711 c0 -29 26 -84 47 -101 26 -20 117 -29 126 -12 8 15 -14
69 -38 92 -19 18 -38 24 -80 25 -30 1 -55 0 -55 -4z"/>
<path d="M424 3659 c7 -51 31 -88 69 -107 27 -13 93 -19 103 -9 3 3 -1 30 -10
60 -19 65 -48 88 -119 95 l-49 5 6 -44z"/>
<path d="M3924 3678 c-10 -15 6 -80 27 -109 25 -36 128 -65 143 -41 8 14 -14
96 -32 115 -29 33 -125 57 -138 35z"/>
<path d="M1984 3621 c-40 -25 -67 -58 -59 -71 13 -20 80 -47 109 -43 55 8 116
59 101 83 -10 16 -63 41 -94 45 -16 2 -42 -5 -57 -14z"/>
<path d="M3350 3570 c-7 -28 -9 -61 -6 -74 6 -26 52 -86 66 -86 14 0 33 88 26
123 -6 30 -31 63 -63 80 -7 5 -15 -11 -23 -43z"/>
<path d="M5130 3602 c0 -29 34 -83 61 -97 30 -16 106 -20 126 -7 23 14 -21 91
-62 108 -45 19 -125 16 -125 -4z"/>
<path d="M1795 3590 c-3 -5 -10 -8 -14 -5 -14 8 -52 -41 -60 -77 -7 -31 3 -98
15 -98 2 0 19 6 37 14 53 22 70 48 71 113 1 52 -1 58 -21 61 -11 2 -24 -2 -28
-8z"/>
<path d="M5497 3593 c-21 -20 -2 -99 30 -132 15 -14 85 -42 92 -36 10 10 0 88
-14 119 -20 41 -86 71 -108 49z"/>
<path d="M1002 3543 c-23 -15 -45 -36 -48 -47 -10 -30 -6 -93 6 -116 10 -18
13 -19 38 -6 52 27 77 64 76 110 0 24 -8 53 -16 64 l-15 22 -41 -27z"/>
<path d="M3158 3547 c-48 -28 -64 -65 -60 -139 3 -40 42 -37 87 5 38 35 50 81
33 129 -12 33 -13 33 -60 5z"/>
<path d="M3768 3558 c-34 -12 -35 -22 -5 -65 28 -41 64 -57 117 -49 55 7 63
14 56 42 -17 66 -94 99 -168 72z"/>
<path d="M5035 3526 c-11 -72 5 -105 66 -137 37 -19 38 -19 48 0 32 58 7 131
-53 161 -23 11 -45 20 -49 20 -3 0 -9 -20 -12 -44z"/>
<path d="M1523 3515 c-31 -31 -35 -39 -30 -77 2 -24 10 -55 17 -70 11 -23 16
-26 33 -16 50 27 71 56 71 101 0 44 -25 97 -45 97 -6 0 -27 -16 -46 -35z"/>
<path d="M359 3531 c-14 -5 -35 -14 -47 -20 -18 -10 -20 -14 -10 -25 47 -46
119 -55 188 -25 l35 15 -42 28 c-45 30 -84 39 -124 27z"/>
<path d="M793 3489 c-9 -13 -18 -42 -28 -90 -4 -20 27 -90 48 -107 14 -12 18
-9 31 21 28 68 24 118 -12 158 -22 25 -30 29 -39 18z"/>
<path d="M1153 3478 c-46 -51 -54 -93 -28 -145 24 -49 40 -57 65 -36 53 44 64
110 28 163 -29 43 -39 46 -65 18z"/>
<path d="M2142 3464 c-17 -36 -14 -96 6 -119 21 -25 72 -65 82 -65 10 0 19 24
26 66 7 47 -19 96 -65 122 l-38 22 -11 -26z"/>
<path d="M4875 3469 c-12 -36 -8 -87 8 -110 9 -12 34 -32 56 -46 l40 -24 9 33
c20 74 1 118 -65 152 -40 20 -40 20 -48 -5z"/>
<path d="M1351 3435 c-28 -47 -32 -89 -14 -142 17 -49 27 -53 54 -20 36 44 37
128 0 176 l-18 23 -22 -37z"/>
<path d="M4661 3442 c-4 -9 -7 -37 -5 -62 2 -37 9 -51 38 -77 20 -18 45 -33
56 -33 11 0 23 0 28 0 12 0 9 73 -5 109 -15 37 -34 55 -75 70 -23 8 -30 7 -37
-7z"/>
<path d="M2345 3383 c9 -100 12 -114 32 -129 23 -17 28 -17 43 1 18 21 22 74
9 112 -9 29 -63 83 -83 83 -3 0 -4 -30 -1 -67z"/>
<path d="M1975 3428 c-6 -16 -9 -60 -7 -95 2 -18 80 -116 83 -103 0 3 3 14 5
25 17 75 -2 138 -54 173 -19 12 -22 12 -27 0z"/>
<path d="M5236 3416 c-9 -34 -7 -93 5 -119 15 -33 87 -73 102 -58 6 6 12 37
12 67 0 53 -2 58 -38 89 -49 43 -74 49 -81 21z"/>
<path d="M618 3383 c-8 -10 -20 -34 -27 -53 -10 -30 -9 -40 11 -78 13 -25 33
-51 44 -59 20 -13 23 -12 42 19 40 64 36 109 -13 161 -30 32 -37 33 -57 10z"/>
<path d="M4506 3366 c-29 -62 -16 -112 38 -145 42 -26 51 -23 66 25 17 50 5
98 -31 128 -40 34 -54 33 -73 -8z"/>
<path d="M473 3375 c-17 -7 -39 -25 -49 -39 -17 -26 -27 -113 -14 -121 4 -2
23 0 42 5 50 14 79 49 82 101 5 73 -3 80 -61 54z"/>
<path d="M4348 3373 c-28 -33 -36 -58 -34 -109 2 -75 34 -105 69 -66 26 29 29
99 5 149 -11 23 -21 43 -23 43 -1 0 -9 -8 -17 -17z"/>
<path d="M1013 3295 c-51 -40 -63 -103 -32 -163 12 -21 13 -21 38 -5 38 24 71
61 72 81 4 56 -14 112 -35 112 -6 0 -25 -11 -43 -25z"/>
<path d="M1720 3306 c0 -16 29 -73 49 -95 16 -19 34 -25 77 -29 l55 -5 -16 39
c-25 61 -54 84 -113 91 -29 3 -52 3 -52 -1z"/>
<path d="M4191 3296 c-19 -7 -44 -25 -55 -39 -22 -29 -30 -100 -15 -129 9 -16
13 -15 54 9 52 32 69 60 68 114 -1 52 -10 59 -52 45z"/>
<path d="M4850 3295 c-21 -25 -17 -100 6 -132 26 -35 82 -69 94 -57 5 5 11 30
13 55 6 60 -13 100 -62 127 -34 19 -40 20 -51 7z"/>
<path d="M1432 3270 c-37 -22 -64 -77 -58 -112 3 -13 5 -31 5 -40 1 -22 13
-22 56 -2 55 26 70 58 66 142 -1 38 -20 42 -69 12z"/>
<path d="M1220 3238 c-21 -35 -21 -36 -25 -83 -2 -40 30 -106 49 -99 17 7 46
75 46 108 0 28 -25 92 -40 101 -5 3 -19 -9 -30 -27z"/>
<path d="M872 3243 c-57 -27 -75 -60 -69 -122 3 -30 10 -58 15 -63 13 -13 65
15 91 49 24 29 27 95 7 132 -11 19 -13 19 -44 4z"/>
<path d="M490 3215 c-38 -27 -60 -84 -52 -136 5 -32 20 -36 60 -15 47 24 65
53 68 104 3 75 -17 88 -76 47z"/>
<path d="M3941 3219 c-40 -38 -49 -83 -30 -152 9 -32 13 -36 29 -27 36 19 60
73 54 121 -4 24 -12 52 -19 61 -11 17 -13 16 -34 -3z"/>
<path d="M1605 3166 c-29 -13 -73 -53 -64 -59 17 -12 64 -27 85 -27 55 0 125
61 93 81 -8 5 -21 9 -29 9 -8 0 -24 2 -35 5 -11 3 -33 -1 -50 -9z"/>
<path d="M2141 3109 c-25 -72 -8 -144 40 -169 16 -9 21 -7 30 17 25 62 15 118
-29 161 -13 12 -25 22 -27 22 -1 0 -8 -14 -14 -31z"/>
<path d="M1770 3093 c-14 -9 -29 -24 -35 -32 -17 -28 -35 -86 -30 -98 6 -18
91 -16 120 3 26 17 55 80 55 119 0 23 -4 25 -43 25 -24 0 -54 -8 -67 -17z"/>
<path d="M1976 3079 c-35 -42 -37 -88 -7 -148 l17 -33 27 32 c15 17 27 39 28
48 0 9 2 24 4 33 3 16 -29 99 -39 99 -2 0 -16 -14 -30 -31z"/>
<path d="M2290 3052 c-35 -31 -43 -44 -44 -77 -1 -22 2 -52 8 -67 9 -25 11
-26 35 -12 44 24 60 40 74 75 16 40 4 119 -17 119 -8 0 -33 -17 -56 -38z"/>
<path d="M2485 3024 c-42 -43 -51 -74 -36 -122 19 -62 25 -68 56 -48 35 23 65
74 65 111 0 27 -32 95 -45 95 -3 0 -21 -16 -40 -36z"/>
<path d="M2647 2990 c-20 -24 -38 -51 -38 -59 -4 -38 2 -75 17 -102 l15 -30
32 26 c64 53 77 125 33 180 l-22 28 -37 -43z"/>
<path d="M1573 2980 c-37 -16 -55 -39 -68 -88 -7 -22 -5 -24 37 -21 77 5 112
32 119 94 4 27 1 30 -23 31 -15 1 -44 -7 -65 -16z"/>
<path d="M1828 2907 c-50 -42 -56 -81 -26 -159 12 -33 30 -28 59 19 17 28 20
44 16 84 -9 74 -17 83 -49 56z"/>
</g>
</svg>
